<?xml version="1.0" encoding="UTF-8" standalone="no"?>
<svg
   xml:space="preserve"
   id="Icons"
   x="0"
   y="0"
   version="1.1"
   viewBox="0 0 25.081173 29.142391"
   sodipodi:docname="bières.svg"
   inkscape:version="1.3.2 (091e20e, 2023-11-25, custom)"
   width="25.081173"
   height="29.142391"
   xmlns:inkscape="http://www.inkscape.org/namespaces/inkscape"
   xmlns:sodipodi="http://sodipodi.sourceforge.net/DTD/sodipodi-0.dtd"
   xmlns:xlink="http://www.w3.org/1999/xlink"
   xmlns="http://www.w3.org/2000/svg"
   xmlns:svg="http://www.w3.org/2000/svg"><sodipodi:namedview
   id="namedview24179"
   pagecolor="#ffffff"
   bordercolor="#666666"
   borderopacity="1.0"
   inkscape:showpageshadow="2"
   inkscape:pageopacity="0.0"
   inkscape:pagecheckerboard="0"
   inkscape:deskcolor="#d1d1d1"
   showgrid="false"
   inkscape:zoom="9.7083333"
   inkscape:cx="11.227468"
   inkscape:cy="16.635193"
   inkscape:window-width="1366"
   inkscape:window-height="705"
   inkscape:window-x="-8"
   inkscape:window-y="-8"
   inkscape:window-maximized="1"
   inkscape:current-layer="Icons" />
  <defs
   id="defs24120">
    <path
   id="XMLID_14414_"
   d="M 19.5,41.9 C 19,41.2 18.8,40.3 19,39.5 L 22.6,24.8 8.7,21.4 5.1,36.1 C 4.9,36.9 4.3,37.7 3.5,38 Z"
   class="st1" />
    <path
   id="XMLID_14399_"
   d="m 29.1,33.2 c 0.5,-0.7 0.6,-1.6 0.4,-2.4 l -4.3,-14.5 13.7,-4.1 4.3,14.5 c 0.2,0.8 0.9,1.5 1.7,1.8 z"
   class="st1" />
  
    
  </defs>
  <style
   id="style24122">
    .Graphic_x0020_Style_x0020_11,.st0{opacity:.15;fill:#45413c}.st1{fill:#ffe500}.st2{fill:#ebcb00}.st3{fill:none;stroke:#45413c;stroke-linecap:round;stroke-linejoin:round;stroke-miterlimit:10}.st19{fill:#fff48c}.st36,.st92{stroke:#45413c;stroke-linecap:round;stroke-miterlimit:10}.st36{fill:#fff;stroke-linejoin:round}.st92{fill:#e5feff}.st92,.st94{stroke-linejoin:round}.st94,.st95{fill:#fff;stroke:#45413c;stroke-miterlimit:10}
  </style>
  
  
  
  
  
  
  
  
  
  
  
  
  
  
  <g
   id="g41134"
   inkscape:label="bière"
   transform="translate(0.11208209,-15.700125)"><path
     id="XMLID_14415_"
     d="M 8.1,23.9 7.5,26.3 5.3,25.8 C 4.7,25.6 4.1,26 4,26.6 L 3.2,29.8 C 3,30.7 3.3,31.6 4,32.2 L 5.7,33.5 5,36.5 2.2,34.4 C 0.8,33.3 0.1,31.5 0.5,29.8 L 1.6,25.3 C 2,23.8 3.5,22.9 5,23.2 Z"
     class="st92"
     style="display:inline" /><use
     xlink:href="#XMLID_14414_"
     id="XMLID_14412_"
     class="st3"
     style="display:inline" /><circle
     id="XMLID_14411_"
     cx="18.6"
     cy="30.4"
     r="0.80000001"
     class="st2"
     transform="matrix(0.2368,-0.9716,0.9716,0.2368,-15.3931,41.2885)" /><circle
     id="XMLID_14410_"
     cx="9.6000004"
     cy="26"
     r="0.60000002"
     class="st2"
     transform="rotate(-76.308,9.602046,25.950022)" /><path
     id="XMLID_14409_"
     d="M 22.1,26.4 H 21.8 C 21.5,26.3 21.2,26.2 21,26 l -0.5,1.9 C 20.4,28.3 20,28.5 19.6,28.4 19.2,28.3 19,27.9 19.1,27.5 l 0.5,-1.9 c -0.3,0 -0.6,0 -0.9,-0.1 -0.2,0 -0.4,-0.1 -0.6,-0.2 L 17.2,29 c -0.2,0.7 -0.9,1.2 -1.6,1 -0.7,-0.2 -1.2,-0.9 -1,-1.6 l 0.8,-3.5 C 14.7,24.7 14,24.3 13.5,23.8 12.9,24 12.3,24.1 11.6,24 10.9,23.8 10.4,23.5 10,23 9.5,23.3 9,23.4 8.4,23.2 8.3,23.2 8.2,23.1 8.1,23.1 l 0.4,-1.7 13.9,3.4 z"
     class="Graphic_x0020_Style_x0020_11"
     style="display:inline" /><path
     id="XMLID_14408_"
     d="m 7.3,19.6 c 0.3,-1.1 1.4,-1.8 2.5,-1.5 0.2,0 0.3,0.1 0.5,0.2 0.7,-1 1.9,-1.4 3.1,-1.2 0.2,0 0.4,0.1 0.5,0.2 0.9,-0.9 2.3,-1.3 3.6,-1 1.3,0.3 2.3,1.3 2.7,2.5 0,0 0,0 0,0 1.2,0.3 2.1,1.3 2.2,2.5 0.2,0 0.3,0 0.5,0.1 1.1,0.3 1.8,1.4 1.5,2.5 C 24.1,25 23,25.7 21.9,25.4 21.6,25.3 21.3,25.2 21.1,25 l -0.5,1.9 c -0.1,0.4 -0.5,0.6 -0.9,0.5 -0.4,-0.1 -0.6,-0.5 -0.5,-0.9 l 0.5,-1.9 c -0.3,0 -0.6,0 -0.9,-0.1 -0.2,0 -0.4,-0.1 -0.6,-0.2 l -0.9,3.5 c -0.2,0.7 -0.9,1.2 -1.6,1 -0.7,-0.2 -1.2,-0.9 -1,-1.6 l 0.8,-3.5 C 14.8,23.5 14.1,23.1 13.6,22.6 13,22.8 12.4,22.9 11.7,22.8 11,22.6 10.5,22.3 10.1,21.8 9.6,22.1 9.1,22.2 8.5,22 7.7,21.9 7,20.7 7.3,19.6 Z"
     class="st36" /><circle
     id="XMLID_14407_"
     cx="9.1000004"
     cy="33.900002"
     r="0.80000001"
     class="st2"
     transform="rotate(-76.303,9.1080469,33.888565)" /><circle
     id="XMLID_14406_"
     cx="15.2"
     cy="37.099998"
     r="0.60000002"
     class="st2"
     transform="rotate(-76.308,15.229811,37.107055)" /><circle
     id="XMLID_14405_"
     cx="18.700001"
     cy="33.5"
     r="0.60000002"
     class="st2"
     transform="rotate(-76.308,18.690116,33.53712)" /><circle
     id="XMLID_14404_"
     cx="12"
     cy="29.1"
     r="0.60000002"
     class="st2"
     transform="matrix(0.2368,-0.9716,0.9716,0.2368,-19.1408,33.8834)" /><path
     id="XMLID_14403_"
     d="m 13.8,32.7 c -0.1,0.6 0.2,1.2 0.8,1.3 0.6,0.1 1.2,-0.2 1.3,-0.8 0.1,-0.4 -0.2,-1.7 -0.4,-2.3 0,-0.1 -0.1,-0.1 -0.2,-0.1 -0.1,0 -0.2,0 -0.2,0.1 -0.3,0.4 -1.2,1.4 -1.3,1.8 z"
     class="st95" /><path
     id="XMLID_14401_"
     d="m 2.1,38.9 c -0.2,0.7 0.2,1.4 0.9,1.5 l 15.9,3.9 c 0.7,0.2 1.3,-0.3 1.5,-0.9 0.2,-0.7 -0.2,-1.4 -0.9,-1.5 L 3.5,38 C 2.9,37.8 2.2,38.3 2.1,38.9 Z"
     class="st92" /></g>
  
  
  
  
  
  
  
  
  
  
  
  
  
  
</svg>
