<?xml version="1.0" encoding="UTF-8" standalone="no"?>
<!-- Created with Inkscape (http://www.inkscape.org/) -->

<svg
   width="80.000008mm"
   height="30mm"
   viewBox="0 0 80.000006 30"
   version="1.1"
   id="svg1"
   inkscape:version="1.3.2 (091e20e, 2023-11-25, custom)"
   sodipodi:docname="bouton.svg"
   xmlns:inkscape="http://www.inkscape.org/namespaces/inkscape"
   xmlns:sodipodi="http://sodipodi.sourceforge.net/DTD/sodipodi-0.dtd"
   xmlns:xlink="http://www.w3.org/1999/xlink"
   xmlns="http://www.w3.org/2000/svg"
   xmlns:svg="http://www.w3.org/2000/svg">
  <sodipodi:namedview
     id="namedview1"
     pagecolor="#ffffff"
     bordercolor="#000000"
     borderopacity="0.25"
     inkscape:showpageshadow="2"
     inkscape:pageopacity="0.0"
     inkscape:pagecheckerboard="0"
     inkscape:deskcolor="#d1d1d1"
     inkscape:document-units="mm"
     inkscape:zoom="0.70555556"
     inkscape:cx="358.58267"
     inkscape:cy="78.661417"
     inkscape:window-width="1366"
     inkscape:window-height="705"
     inkscape:window-x="-8"
     inkscape:window-y="-8"
     inkscape:window-maximized="1"
     inkscape:current-layer="layer1" />
  <defs
     id="defs1">
    <linearGradient
       inkscape:collect="always"
       id="linearGradient3638">
      <stop
         style="stop-color:#bf953f;stop-opacity:1;"
         offset="0"
         id="stop3634" />
      <stop
         style="stop-color:#faef84;stop-opacity:1;"
         offset="0.25"
         id="stop3642" />
      <stop
         style="stop-color:#b38728;stop-opacity:1;"
         offset="0.5"
         id="stop3644" />
      <stop
         style="stop-color:#fff699;stop-opacity:1;"
         offset="0.755"
         id="stop8004" />
      <stop
         style="stop-color:#ab781c;stop-opacity:1;"
         offset="1"
         id="stop3636" />
    </linearGradient>
    <linearGradient
       inkscape:collect="always"
       xlink:href="#linearGradient3638"
       id="linearGradient2"
       x1="22.144989"
       y1="86.480164"
       x2="82.082001"
       y2="97.542664"
       gradientUnits="userSpaceOnUse"
       gradientTransform="matrix(1.3013661,0,0,1.2655363,-17.736726,33.098876)" />
  </defs>
  <g
     inkscape:label="Calque 1"
     inkscape:groupmode="layer"
     id="layer1"
     transform="translate(-10.082007,-127.54266)">
    <rect
       style="fill:url(#linearGradient2);stroke:#000000;stroke-width:2.00001;stroke-opacity:1"
       id="rect1"
       width="78"
       height="27.99999"
       x="11.082012"
       y="128.54266"
       rx="6.5068307"
       ry="6.3276815" />
    <path
       d="m 25.013819,143.18776 v -6.69209 h 4.35287 v 7.87375 q 0,1.0008 -0.132635,1.60369 -0.156752,0.61495 -0.44614,1.0852 -0.566717,0.89228 -1.483111,1.3746 -0.940509,0.48231 -2.086001,0.48231 -1.133435,0 -1.977481,-0.31351 -0.892279,-0.3135 -1.71221,-1.00079 l 1.422822,-3.25561 q 0.349677,0.3979 0.675238,0.59083 0.32556,0.19292 0.566717,0.19292 0.470254,0 0.651122,-0.36173 0.168809,-0.34968 0.168809,-1.57957 z m 16.953285,-0.90434 q -0.470254,-0.57877 -1.121376,-1.01286 -1.603689,-1.00079 -3.954963,-1.00079 -2.339216,0 -3.954962,1.00079 -0.651122,0.43409 -1.121377,1.01286 0.446139,0.57878 1.121377,1.0008 1.603689,1.01286 3.954962,1.01286 2.363331,0 3.954963,-1.01286 0.663179,-0.42202 1.121376,-1.0008 z m -5.076339,-1.55546 q 0.627006,0 1.073146,0.4582 0.458196,0.4582 0.458196,1.09726 0,0.65112 -0.458196,1.10932 -0.44614,0.44614 -1.073146,0.44614 -0.639064,0 -1.085203,-0.44614 -0.446139,-0.4582 -0.446139,-1.10932 0,-0.63906 0.446139,-1.09726 0.446139,-0.4582 1.085203,-0.4582 z m 6.595624,1.78456 q 0,1.29019 -0.470255,2.48391 -0.470255,1.13343 -1.386648,2.04983 -0.904336,0.88022 -2.09806,1.35047 -1.181665,0.47026 -2.520083,0.47026 -1.362533,0 -2.53214,-0.47026 -1.193724,-0.45819 -2.110118,-1.37459 -0.892278,-0.86816 -1.362533,-2.01365 -0.458196,-1.1455 -0.458196,-2.49597 0,-1.32636 0.458196,-2.48391 0.458197,-1.13343 1.362533,-2.03777 0.892278,-0.86816 2.09806,-1.35048 1.169608,-0.47025 2.544198,-0.47025 1.362533,0 2.544199,0.47025 1.181665,0.48232 2.098059,1.35048 0.880221,0.89228 1.362533,2.03777 0.470255,1.15755 0.470255,2.48391 z m 1.965423,0.5426 v -6.55945 h 4.35287 v 6.59562 q 0,1.1455 0.27733,1.57958 0.265272,0.43408 0.928452,0.43408 0.651121,0 0.928451,-0.44614 0.289388,-0.44614 0.289388,-1.56752 v -6.59562 h 4.340812 v 6.55945 q 0,1.35048 -0.168809,2.12218 -0.16881,0.84404 -0.542602,1.3987 -0.723468,1.14549 -1.977481,1.73633 -1.241955,0.60289 -2.869759,0.60289 -1.651921,0 -2.86976,-0.60289 -1.26607,-0.59084 -1.989539,-1.73633 -0.373792,-0.55466 -0.530544,-1.37459 -0.168809,-0.8561 -0.168809,-2.14629 z m 12.467778,5.54659 v -12.10604 h 8.090793 v 3.27973 h -3.822327 v 1.1696 h 3.460592 v 3.09886 h -3.460592 v 1.27813 h 3.918789 v 3.27972 z m 9.453324,0 v -12.10604 h 5.474248 q 2.375389,0 3.641459,1.04903 1.254013,1.06109 1.254013,3.02651 0,1.29019 -0.639065,2.12218 -0.627006,0.83199 -1.700151,0.97668 l 3.231494,4.93164 h -4.883415 l -2.110117,-4.00319 v 4.00319 z m 4.268466,-8.99512 v 2.37539 h 0.675238 q 0.60289,0 0.952567,-0.30145 0.337619,-0.3135 0.337619,-0.86816 0,-0.56672 -0.337619,-0.89228 -0.337619,-0.3135 -0.952567,-0.3135 z"
       id="text1"
       style="font-size:24.6944px;line-height:125%;font-family:'Monster AG';-inkscape-font-specification:'Monster AG';text-align:center;text-anchor:middle;stroke-width:2"
       aria-label="JOuer" />
  </g>
</svg>
