<svg width="488.33" height="476.61" version="1.1" viewBox="0 0 488.33 476.61" xmlns="http://www.w3.org/2000/svg" xmlns:xlink="http://www.w3.org/1999/xlink">
 <g transform="translate(-160.58 -120.07)">
  <path transform="matrix(1.3333 0 0 -1.3333 645.44 301.34)" d="m0 0c0.744 3.245-2.713 5.83-5.599 4.17-15.77-9.07-56.219-26.952-104.64-60.595-16.338-11.364-32.392-25.118-48.44-40.342-64.766-65.644-52.98-120.53-52.98-120.53 2.337-1.518 5.245-2.096 8.096-1.458 33.124 7.426 164.22 47.281 203.56 218.75" fill="#d39844" stroke="#000" stroke-width="4.5"/>
  <g fill="#7f4218">
   <path transform="matrix(1.3333 0 0 -1.3333 600.05 324.11)" d="m0 0c-15.243-8.777-53.529-25.767-99.793-57.263 7.784 6.492 15.604 12.532 23.485 18.016 48.42 33.644 88.866 51.522 104.63 60.593 2.888 1.658 6.344-0.917 5.599-4.174-22.363-97.495-74.392-152.43-121.21-183.06 38.052 32.856 74.979 83.647 92.89 161.71 0.738 3.248-2.719 5.824-5.6 4.173" opacity=".2"/>
   <path transform="matrix(1.3333 0 0 -1.3333 363.58 557.14)" d="m0 0s66.161 4.635 88.857 35.693c22.696 31.06 19.873 48.015 53.049 67.067 33.177 19.052 54.009 55.316 49.508 84.655 0 0-177.67-77.345-191.41-187.42" stroke="#000" stroke-width="4.5"/>
   <path transform="matrix(1.3333 0 0 -1.3333 619.51 326.28)" d="m0 0c-48.979-25.86-149.92-88.21-164.06-168.91-15.59-3.38-27.64-4.23-27.64-4.23 13.74 110.07 191.41 187.41 191.41 187.41 0.71-4.62 0.79-9.4 0.29-14.27" opacity=".2"/>
  </g>
  <path transform="matrix(1.3333 0 0 -1.3333 513.31 383.6)" d="m0 0c-3.277 2.981-5.67 6.577-7.142 10.458-0.621 1.591-1.081 3.24-1.372 4.911-0.026 0.091-0.037 0.182-0.049 0.288-0.125 0.681-0.22 1.363-0.282 2.053-0.697 7.408 1.616 15.078 7.019 21.018 5.384 5.918 12.758 8.942 20.176 8.968 3.235 4e-3 6.489-0.55 9.58-1.685 1.397-0.514 2.757-1.143 4.068-1.902 0.756-0.418 1.493-0.885 2.204-1.397 0.102-0.066 0.204-0.131 0.3-0.219 0.638-0.444 1.248-0.932 1.847-1.463 0.19-0.147 0.368-0.308 0.546-0.47 0.074-0.067 0.147-0.134 0.214-0.209 2.999-2.782 5.237-6.074 6.693-9.629 1.12-2.722 1.787-5.586 1.987-8.486 0.526-7.224-1.799-14.625-7.055-20.403-6.634-7.293-16.295-10.186-25.322-8.504-4.835 0.897-9.499 3.111-13.412 6.671" fill="#feebba" stroke="#000" stroke-width="4.5"/>
  <path transform="matrix(1.3333 0 0 -1.3333 520.71 374.32)" d="m0 0c-6.483 6.799-6.896 17.594-0.961 24.877 2.755 3.382 6.399 5.546 10.29 6.464 3.298 0.778 5.597-3.091 3.371-5.645-0.233-0.268-0.461-0.544-0.681-0.828-5.657-7.261-5.165-17.782 1.159-24.469 0.049-0.051 0.097-0.103 0.146-0.153 2.34-2.422 0.275-6.421-3.039-5.817-3.773 0.688-7.391 2.536-10.285 5.571" fill="#feebba" opacity=".39999"/>
  <path transform="matrix(1.3333 0 0 -1.3333 549.81 364.89)" d="m0 0c1.844 0.188 4.146 1.13 4.026 2.98-0.124 1.918-2.599 2.475-4.449 2.999-1.851 0.523-3.563 1.53-4.922 2.892-0.342 0.343-0.683 0.768-0.644 1.251 0.035 0.434 0.368 0.777 0.68 1.081 2.158 2.092 4.316 4.186 6.473 6.278-0.764 1.248-2.526 1.501-3.93 1.091s-2.602-1.315-3.921-1.948c-3.527-1.692-7.634-1.343-11.534-1.662-1.277-0.105-2.936-0.762-2.734-2.028 0.174-1.088 1.586-1.404 2.335-2.211 0.993-1.07 0.631-2.843-0.207-4.037s-2.058-2.087-2.862-3.304c-1.474-2.226-1.231-5.439 0.56-7.419 0.222-0.246 0.5-0.488 0.83-0.486 0.395 2e-3 0.693 0.342 0.935 0.653 2.345 3.017 3.576 6.014 7.669 5.186 3.996-0.809 7.548-1.743 11.695-1.316" fill="#d6b874" opacity=".5"/>
  <path transform="matrix(1.3333 0 0 -1.3333 377.76 493.51)" d="m0 0c-4.492 8.006-4.961 17.165-2.069 25.174 6e-3 8e-3 6e-3 0.021 0.019 0.036 0.081 0.238 0.169 0.469 0.257 0.699 0.019 0.051 0.038 0.101 0.064 0.145 2.479 6.261 7.041 11.737 13.371 15.294 5.619 3.161 11.822 4.332 17.782 3.736 0.341-0.026 0.676-0.06 1.011-0.107 1.025-0.136 2.046-0.322 3.049-0.572 0.164-0.027 0.329-0.069 0.473-0.119 0.042 2e-3 0.071-0.011 0.101-0.023 1.432-0.357 2.835-0.835 4.193-1.409 6.03-2.525 11.282-7.004 14.73-13.142 1.577-2.799 2.651-5.75 3.266-8.73 2.593-12.605-3.067-25.976-14.9-32.61-9.324-5.24-20.229-5.014-29.043-0.362-5.002 2.631-9.328 6.687-12.304 11.99" fill="#feebba" stroke="#000" stroke-width="4.5"/>
  <path transform="matrix(1.3333 0 0 -1.3333 388.79 486.34)" d="m0 0c-4.435 9.415-1.09 20.905 7.696 26.482 4.079 2.59 8.668 3.589 13.078 3.193 3.737-0.337 4.8-5.208 1.566-7.113-0.339-0.201-0.673-0.411-1.006-0.632-8.486-5.651-11.65-16.881-7.345-26.122 0.033-0.072 0.067-0.142 0.1-0.212 1.612-3.365-1.959-6.845-5.229-5.051-3.726 2.044-6.881 5.253-8.86 9.455" fill="#feebba" opacity=".39999"/>
  <path transform="matrix(1.3333 0 0 -1.3333 395.1 478.8)" d="m0 0c-1.015-1.785-1.645-4.468 0.102-5.548 1.81-1.12 3.904 0.755 5.564 2.088 1.662 1.333 3.67 2.231 5.772 2.582 0.53 0.089 1.132 0.124 1.543-0.222 0.37-0.31 0.465-0.831 0.539-1.308 0.501-3.291 1.003-6.583 1.506-9.875 1.617-0.113 2.977 1.315 3.509 2.845 0.532 1.531 0.486 3.194 0.762 4.791 0.739 4.269 3.693 7.751 5.91 11.474 0.727 1.221 1.2 3.141-0.072 3.772-1.094 0.542-2.286-0.53-3.496-0.687-1.603-0.209-2.971 1.257-3.509 2.78-0.539 1.524-0.562 3.198-1.143 4.705-1.062 2.761-4.117 4.607-7.054 4.262-0.365-0.042-0.762-0.138-0.973-0.437-0.251-0.357-0.135-0.845-0.01-1.263 1.215-4.055 3.128-7.091-0.249-10.252-3.296-3.086-6.422-5.69-8.701-9.707" fill="#d6b874" opacity=".5"/>
  <path transform="matrix(1.3333 0 0 -1.3333 418.9 439.12)" d="m0 0c-0.664 1.186-1.238 2.397-1.722 3.635-0.69 1.722-1.205 3.475-1.545 5.257-0.014 0.028-0.023 0.062-0.025 0.09-0.028 0.148-0.056 0.282-0.069 0.429-0.182 0.989-0.307 1.983-0.375 2.991-0.027 0.253-0.038 0.508-0.044 0.77-0.517 10.919 5.01 21.722 15.195 27.435 6.635 3.712 14.081 4.631 20.969 3.123 0.079-0.017 0.158-0.035 0.229-0.06 0.53-0.116 1.046-0.248 1.563-0.393 0.2-0.061 0.408-0.115 0.61-0.191 4.446-1.354 8.573-3.756 11.987-7.078l7e-3 -6e-3c1.195-1.154 2.295-2.412 3.302-3.787 0.696-0.958 1.346-1.968 1.948-3.029 1.678-3 2.783-6.169 3.354-9.377 2.16-12.145-3.411-24.853-14.783-31.232-6.854-3.849-14.594-4.69-21.677-2.966-7.749 1.9-14.71 6.879-18.924 14.389" fill="#feebba" stroke="#000" stroke-width="4.5"/>
  <path transform="matrix(1.3333 0 0 -1.3333 444.97 434.4)" d="m0 0c0.521-1.948 1.932-4.258 3.898-3.809 2.039 0.466 2.208 3.222 2.451 5.298 0.242 2.079 1.026 4.093 2.255 5.788 0.309 0.427 0.706 0.868 1.231 0.91 0.473 0.037 0.898-0.261 1.278-0.544l7.866-5.866c1.208 1.036 1.174 2.974 0.491 4.41-0.684 1.437-1.864 2.568-2.772 3.875-2.427 3.495-2.765 7.968-3.783 12.101-0.333 1.354-1.327 3.023-2.651 2.586-1.139-0.375-1.234-1.947-1.971-2.892-0.978-1.251-2.944-1.17-4.372-0.476-1.428 0.693-2.598 1.848-4.045 2.502-2.647 1.197-6.056 0.38-7.872-1.887-0.226-0.281-0.438-0.621-0.378-0.976 0.07-0.423 0.487-0.685 0.863-0.891 3.648-1.997 7.079-2.799 6.899-7.339-0.176-4.432-0.565-8.409 0.612-12.79" fill="#d6b874" opacity=".5"/>
  <path transform="matrix(1.3333 0 0 -1.3333 164.11 148.4)" d="m0 0c1.312-16.644 14.52-103.82 145.98-328.48 0.848-1.46 2.009-2.651 3.36-3.528 0 0-11.786 54.884 52.98 120.53-19.999-13.888-45.604-39.473-58.007-44.548-8.584-3.507-18.444-0.243-23.258 7.692-28.683 47.247-116.05 218.8-121.06 248.34" fill="#fac977" stroke="#000" stroke-width="4.5"/>
  <path transform="matrix(1.3333 0 0 -1.3333 327.24 477.61)" d="m0 0c4.814-7.934 14.674-11.198 23.257-7.691 11.695 4.787 35.114 27.784 54.515 42.039-3.1-3.602-5.975-7.164-8.648-10.681-32.079-37.452-39.973-70.19-41.408-89.379-100.63 166.33-132.43 255.07-142.49 294.69 21.46-54.682 90.003-188.18 114.77-228.98" fill="#7f4218" opacity=".2"/>
  <path transform="matrix(1.3333 0 0 -1.3333 641.58 295.22)" d="m0 0c-83.96-44.01-105.29-59.65-105.29-59.65-20.38-14.95-34.09-24.69-50.49-41.71-25.16-26.1-32.26-30.62-54.42-43.97-4.68-2.82-10.4-3.691-15.59-1.97-4.14 1.37-7.81 4.17-10.21 8.14-28.57 47.05-116.37 218.32-122.04 248.91-0.05 0.25-0.08 0.51-0.1 0.77-0.12 1.68-0.11 2.54-0.11 2.66v0.01c1.99 12.19 10.37 15.31 17.5 15.65 4.92 0.22 9.25-0.87 10.47-1.22 0.2-0.06 0.39-0.13 0.59-0.19l329.44-127.33z" fill="#fac977" stroke="#000" stroke-width="4.5"/>
  <path transform="matrix(1.3333 0 0 -1.3333 641.25 295.09)" d="m0 0c-79.73-40.53-100.29-55.15-100.29-55.15-20.6-14.65-34.44-24.19-51.1-40.97-25.53-25.73-35.624-36.425-57.964-49.455-4.73-2.75-10.45-3.54-15.61-1.74-1 0.34-1.96 0.78-2.89 1.28 17.86 10.52 28.844 22.645 51.934 45.915 16.66 16.78 30.5 26.32 51.1 40.97 0 0 16.42 11.67 76.85 43.11 11.42 5.94 10.62 22.54-1.31 27.35l-291.22 117.43c4.92 0.22 9.25-0.87 10.47-1.22 0.2-0.06 0.39-0.13 0.59-0.19z" fill="#7f4218" opacity=".3"/>
  <path transform="matrix(1.3333 0 0 -1.3333 347.39 487.16)" d="m0 0c-2.148 0-4.113 0.385-5.838 1.145-6.293 2.77-10.037 9.784-13.656 16.567-0.758 1.42-1.499 2.808-2.246 4.125-15.679 27.661-30.128 55.509-43.406 81.482-18.348 35.889-32.814 65.447-45.527 93.023-5.267 11.425-10.849 23.758-15.99 36.528-0.355 0.882-0.715 1.769-1.079 2.66-2.515 6.175-5.116 12.56-6.228 18.896-9e-3 0.05-0.014 0.1-0.018 0.151-0.078 1.066-0.102 1.753-0.109 2.103-3e-3 0.099 5e-3 0.198 0.022 0.295 1.474 8.305 6.493 12.343 15.343 12.343 0.829 0 1.5-0.672 1.5-1.5 0-0.829-0.671-1.5-1.5-1.5-9.329 0-11.527-5.161-12.362-9.72 0.01-0.344 0.034-0.912 0.093-1.728 1.063-5.997 3.591-12.204 6.037-18.207 0.365-0.896 0.728-1.787 1.085-2.673 5.115-12.709 10.68-25.002 15.93-36.392 12.696-27.538 27.145-57.062 45.474-92.913 13.263-25.944 27.693-53.757 43.345-81.369 0.759-1.337 1.513-2.749 2.281-4.189 3.381-6.336 6.876-12.885 12.219-15.236 4.396-1.934 11.267-0.584 18.225 3.403 0.717 0.413 1.634 0.163 2.047-0.556 0.412-0.719 0.163-1.635-0.556-2.048-5.28-3.024-10.637-4.69-15.086-4.69" fill="#ffffff" opacity=".39999"/>
  <g fill="#7f4218">
   <path transform="matrix(1.3333 0 0 -1.3333 223.07 152.53)" d="m0 0c0.08 0.01 0.17 0.01 0.25 0.01 1.94 0 3.85-0.94 5-2.68 7.39-11.11 6.13-21.99 5.22-29.93-0.36-3.1-0.51-5.08-0.47-6.37-0.34-0.03-0.66-0.04-0.99-0.04-1.03 0-2.03 0.14-2.94 0.49-1.66 0.62-2.22 0.84-1.25 9.19 0.9 7.81 2.13 18.43-4.82 29.33" opacity=".3"/>
   <path transform="matrix(1.3333 0 0 -1.3333 298.37 207.01)" d="m0 0c-11.72-3.27-19.46-6.39-29.93-10.77-4.23-1.77-8.21-2.66-11.88-2.66-2.54 0-4.94 0.42-7.18 1.27-2.17 0.82-3.87 1.88-5.18 3.1 2.11-0.73 4.35-1.1 6.71-1.1 3.68 0 7.65 0.89 11.88 2.66 10.47 4.38 18.22 7.5 29.93 10.77 3.87 1.08 9.31 1.83 14.24 1.83 4.69 0 8.91-0.68 10.89-2.38 0.27-0.23 0.66-0.57 0.82-1.38-1.79 0.33-3.89 0.48-6.07 0.48-4.93 0-10.37-0.74-14.23-1.82" opacity=".3"/>
   <path transform="matrix(1.3333 0 0 -1.3333 275.97 301.04)" d="m0 0c-1.52 5.24 1.26 12.63 4.49 17.28 4.86 7.01 11.27 12.74 18.06 18.82 1.83 1.64 3.66 3.28 5.46 4.94 1.27 1.18 2.68 2.39 4.18 3.67 6.89 5.89 15.47 13.22 16.82 23.96 0.88 6.98-2.13 11.25-4.84 13.61 2.09-0.79 3.99-1.85 5.59-3.23 2.73-2.35 5.79-6.63 4.9-13.65-1.36-10.74-9.93-18.07-16.82-23.97-1.5-1.27-2.91-2.48-4.19-3.66-1.79-1.66-3.62-3.3-5.45-4.94-6.79-6.08-13.2-11.82-18.06-18.82-3.23-4.65-6.02-12.04-4.49-17.28 0.25-0.88 0.63-1.65 1.13-2.33-0.65 0.1-1.3 0.26-1.92 0.52-2.63 1.1-4.17 2.72-4.86 5.08" opacity=".3"/>
   <path transform="matrix(1.3333 0 0 -1.3333 363.77 295.19)" d="m0 0c-13.98-10.08-28.45-20.5-45.38-24.59-2.19-0.53-4.33-0.79-6.4-0.79-2.93 0-5.7 0.53-8.2 1.57-2 0.84-3.78 1.9-5.34 3.16 2.42-0.97 5.08-1.46 7.89-1.46 2.07 0 4.22 0.26 6.41 0.79 16.93 4.09 31.39 14.51 45.38 24.59 6.16 4.45 11.98 8.64 17.91 12.25 11.44 6.95 20.07 10.44 31.84 12.88 5.94 1.24 10.61 1.7 14.27 1.7 4.95 0 8.05-0.85 9.971-1.79 0.92-0.46 1.909-1.12 1.949-1.62 0.011-0.13 0.011-0.28-0.01-0.43-1.649 0.34-3.71 0.57-6.26 0.57-3.66 0-8.33-0.46-14.28-1.7-11.76-2.44-20.39-5.93-31.83-12.88-5.93-3.61-11.75-7.8-17.92-12.25" opacity=".3"/>
   <path transform="matrix(1.3333 0 0 -1.3333 473.46 258.4)" d="m0 0c-0.2 2.63-1.261 6.07-4.75 8.99 0.609-0.24 1.21-0.5 1.779-0.78 6.651-3.27 8.361-8.05 8.62-11.48 0.88-11.69-14.559-23.41-19.309-26.72-6.151-4.28-12.151-8.25-17.95-12.09-13.68-9.06-26.59-17.62-39.56-28.91-19.78-17.21-27.911-32.93-26.36-50.96 0.08-0.97 0.199-1.81 0.34-2.53-1.411-0.47-2.371-0.6-3-0.6-0.54 0-0.82 0.1-0.9 0.13-0.6 0.25-1.71 1.84-2.09 6.269-1.54 18.031 6.59 33.751 26.36 50.971 12.969 11.29 25.89 19.84 39.559 28.9 5.811 3.84 11.811 7.82 17.95 12.09 4.75 3.32 20.191 15.03 19.311 26.72" opacity=".3"/>
   <path transform="matrix(1.3333 0 0 -1.3333 567.63 307.05)" d="m0 0c-22.19-7.27-45.25-19.3-70.49-36.79-18.87-13.07-36.941-28-54.41-42.45-2.25-1.86-4.5-3.72-6.76-5.58-0.54-0.44-1.13-0.94-1.78-1.48-10.37-8.67-21.96-17.57-31.79-17.57-1.89 0-3.72 0.33-5.46 1.06-1.57 0.65-2.95 1.57-4.14 2.75 1.28-0.36 2.6-0.53 3.96-0.53 9.83 0 21.41 8.89 31.79 17.56 0.64 0.54 1.24 1.04 1.77 1.48 2.26 1.86 4.51 3.72 6.76 5.59 17.48 14.44 35.54 29.37 54.409 42.45 25.25 17.48 48.311 29.52 70.5 36.78 3.151 1.03 4.861 4.42 3.83 7.57-0.099 0.3-0.21 0.58-0.349 0.85 0.099 0.01 0.2 0.01 0.3 0.01 2.52 0 4.87-1.61 5.7-4.14 1.03-3.15-0.691-6.53-3.84-7.56" opacity=".3"/>
   <path transform="matrix(1.3333 0 0 -1.3333 337.88 441.18)" d="m0 0c-1.894 0-3.72 0.33-5.461 1.055-5.524 2.299-8.696 7.79-9.428 16.321-2.445 28.49 14.981 47.589 30.436 61.045 13.562 11.808 26.799 20.575 40.813 29.857 5.745 3.805 11.686 7.739 17.712 11.938 7.798 5.432 14.436 12.892 14.203 15.964-0.038 0.506-1.032 1.169-1.949 1.621-1.921 0.946-5.023 1.795-9.972 1.795-3.659 0-8.327-0.465-14.274-1.698-11.765-2.439-20.392-5.931-31.834-12.885-5.931-3.604-11.753-7.801-17.917-12.244-13.987-10.081-28.449-20.506-45.381-24.593-2.188-0.528-4.336-0.791-6.404-0.791-2.929 0-5.698 0.527-8.199 1.575-5.972 2.503-10.033 6.927-11.742 12.792-2.821 9.678 1.551 20.852 6.151 27.479 5.664 8.16 12.909 14.644 19.914 20.915 1.784 1.597 3.565 3.191 5.314 4.809 1.446 1.336 3.015 2.678 4.531 3.975 5.872 5.022 11.943 10.214 12.719 16.352 0.267 2.113-0.422 2.708-0.834 3.063-1.97 1.701-6.199 2.375-10.889 2.375-4.93 0-10.37-0.744-14.237-1.824-11.713-3.268-19.455-6.386-29.927-10.77-4.232-1.771-8.206-2.658-11.882-2.658-2.538 0-4.933 0.422-7.176 1.268-10.976 4.141-9.797 14.348-8.936 21.801 0.821 7.106 1.67 14.454-3.285 21.909-1.834 2.76-1.083 6.484 1.677 8.318 1.021 0.678 2.174 1.003 3.315 1.003 1.942 0 3.847-0.941 5.003-2.68 7.384-11.111 6.128-21.986 5.21-29.927-0.965-8.36-0.407-8.571 1.251-9.196 0.915-0.345 1.913-0.489 2.939-0.489 2.507 0 5.186 0.857 7.25 1.721 10.889 4.557 18.953 7.804 31.335 11.259 3.464 0.966 10.24 2.258 17.313 2.258 6.959 0 14.206-1.249 18.881-5.285 2.724-2.352 5.785-6.629 4.897-13.651-1.358-10.739-9.933-18.073-16.824-23.966-1.496-1.28-2.909-2.488-4.183-3.666-1.796-1.662-3.626-3.3-5.458-4.94-6.788-6.076-13.2-11.815-18.06-18.816-3.231-4.655-6.013-12.048-4.489-17.28 0.69-2.366 2.234-3.981 4.861-5.082 1.132-0.474 2.358-0.646 3.542-0.646 1.319 0 2.584 0.213 3.607 0.46 14.641 3.534 28.132 13.259 41.179 22.662 6.081 4.384 12.369 8.916 18.701 12.765 12.569 7.639 22.558 11.67 35.632 14.38 6.281 1.303 11.841 1.955 16.731 1.955 6.089 0 11.138-1.011 15.251-3.037 6.65-3.274 8.355-8.051 8.614-11.482 0.884-11.69-14.556-23.403-19.309-26.714-6.143-4.28-12.143-8.254-17.946-12.097-13.675-9.057-26.593-17.612-39.559-28.902-19.778-17.22-27.907-32.939-26.36-50.97 0.379-4.422 1.488-6.02 2.083-6.268 0.079-0.032 0.358-0.129 0.908-0.129 1.305 0 4.134 0.544 9.428 3.773 5.385 3.286 10.933 7.925 14.604 10.995 0.671 0.561 1.288 1.077 1.842 1.534 2.251 1.855 4.5 3.715 6.749 5.573 17.664 14.603 35.929 29.704 55.218 43.066 26.215 18.159 50.288 30.694 73.598 38.322 0.62 0.202 1.249 0.298 1.867 0.298 2.525 0 4.874-1.606 5.701-4.135 1.032-3.149-0.686-6.538-3.836-7.569-22.19-7.261-45.25-19.292-70.496-36.78-18.87-13.072-36.935-28.007-54.407-42.451-2.252-1.861-4.505-3.725-6.761-5.584-0.535-0.441-1.13-0.939-1.777-1.48-10.371-8.671-21.959-17.565-31.788-17.566" stroke="#000" stroke-width="3.75" style="paint-order:markers fill stroke"/>
  </g>
 </g>
</svg>
