<?xml version="1.0" encoding="UTF-8" standalone="no"?>
<!-- Created with Inkscape (http://www.inkscape.org/) -->

<svg
   width="205.49474mm"
   height="176.17645mm"
   viewBox="0 0 205.49474 176.17645"
   version="1.1"
   id="svg1"
   inkscape:version="1.3.2 (091e20e, 2023-11-25, custom)"
   sodipodi:docname="roulette-tyglas7.svg"
   xmlns:inkscape="http://www.inkscape.org/namespaces/inkscape"
   xmlns:sodipodi="http://sodipodi.sourceforge.net/DTD/sodipodi-0.dtd"
   xmlns:xlink="http://www.w3.org/1999/xlink"
   xmlns="http://www.w3.org/2000/svg"
   xmlns:svg="http://www.w3.org/2000/svg">
  <sodipodi:namedview
     id="namedview1"
     pagecolor="#ffffff"
     bordercolor="#000000"
     borderopacity="0.25"
     inkscape:showpageshadow="2"
     inkscape:pageopacity="0.0"
     inkscape:pagecheckerboard="0"
     inkscape:deskcolor="#d1d1d1"
     inkscape:document-units="mm"
     inkscape:zoom="0.63299677"
     inkscape:cx="366.51056"
     inkscape:cy="356.24194"
     inkscape:window-width="1366"
     inkscape:window-height="705"
     inkscape:window-x="-8"
     inkscape:window-y="-8"
     inkscape:window-maximized="1"
     inkscape:current-layer="g72626" />
  <defs
     id="defs1">
    <filter
       style="color-interpolation-filters:sRGB"
       inkscape:label="Drop Shadow"
       id="filter54904"
       x="-0.33798638"
       y="-0.215863"
       width="1.6759431"
       height="1.4317273">
      <feFlood
         flood-opacity="1"
         flood-color="rgb(0,0,0)"
         result="flood"
         id="feFlood54894" />
      <feComposite
         in="flood"
         in2="SourceGraphic"
         operator="in"
         result="composite1"
         id="feComposite54896" />
      <feGaussianBlur
         in="composite1"
         stdDeviation="5"
         result="blur"
         id="feGaussianBlur54898" />
      <feOffset
         dx="0"
         dy="0"
         result="offset"
         id="feOffset54900" />
      <feComposite
         in="SourceGraphic"
         in2="offset"
         operator="over"
         result="composite2"
         id="feComposite54902" />
    </filter>
    <linearGradient
       inkscape:collect="always"
       xlink:href="#linearGradient54839"
       id="linearGradient54815"
       gradientUnits="userSpaceOnUse"
       x1="45.621326"
       y1="119.95429"
       x2="87.328255"
       y2="108.77895"
       spreadMethod="pad"
       gradientTransform="matrix(-1,0,0,1,213.75344,0)" />
    <linearGradient
       id="linearGradient54839"
       gradientUnits="userSpaceOnUse"
       x1="66.719704"
       y1="421.46439"
       x2="217.9312"
       y2="421.46439">
      <stop
         offset="0"
         style="stop-color:#E5DFD9"
         id="stop54817" />
      <stop
         offset="0"
         style="stop-color:#DAD2CA"
         id="stop54819" />
      <stop
         offset="0.0001"
         style="stop-color:#CCC2B8"
         id="stop54821" />
      <stop
         offset="0.0682"
         style="stop-color:#BDB4AC"
         id="stop54823" />
      <stop
         offset="0.1461"
         style="stop-color:#A79F99"
         id="stop54825" />
      <stop
         offset="0.5225"
         style="stop-color:#DEE0E2"
         id="stop54827" />
      <stop
         offset="0.6164"
         style="stop-color:#D3D3D3"
         id="stop54829" />
      <stop
         offset="0.7959"
         style="stop-color:#B6B0AC"
         id="stop54831" />
      <stop
         offset="0.8764"
         style="stop-color:#A79F99"
         id="stop54833" />
      <stop
         offset="1"
         style="stop-color:#CED2D4"
         id="stop54835" />
      <stop
         offset="1"
         style="stop-color:#A2A6AC"
         id="stop54837" />
    </linearGradient>
    <filter
       style="color-interpolation-filters:sRGB"
       inkscape:label="Drop Shadow"
       id="filter54916"
       x="-0.34332714"
       y="-0.21929311"
       width="1.686689"
       height="1.4385877">
      <feFlood
         flood-opacity="1"
         flood-color="rgb(0,0,0)"
         result="flood"
         id="feFlood54906" />
      <feComposite
         in="flood"
         in2="SourceGraphic"
         operator="in"
         result="composite1"
         id="feComposite54908" />
      <feGaussianBlur
         in="composite1"
         stdDeviation="5"
         result="blur"
         id="feGaussianBlur54910" />
      <feOffset
         dx="0"
         dy="0"
         result="offset"
         id="feOffset54912" />
      <feComposite
         in="SourceGraphic"
         in2="offset"
         operator="over"
         result="composite2"
         id="feComposite54914" />
    </filter>
    <linearGradient
       inkscape:collect="always"
       xlink:href="#linearGradient3638"
       id="linearGradient25377"
       x1="124.50461"
       y1="381.9783"
       x2="795.50928"
       y2="561.77344"
       gradientUnits="userSpaceOnUse"
       spreadMethod="reflect" />
    <linearGradient
       inkscape:collect="always"
       id="linearGradient3638">
      <stop
         style="stop-color:#bf953f;stop-opacity:1;"
         offset="0"
         id="stop3634" />
      <stop
         style="stop-color:#faef84;stop-opacity:1;"
         offset="0.25"
         id="stop3642" />
      <stop
         style="stop-color:#b38728;stop-opacity:1;"
         offset="0.5"
         id="stop3644" />
      <stop
         style="stop-color:#fff699;stop-opacity:1;"
         offset="0.755"
         id="stop8004" />
      <stop
         style="stop-color:#ab781c;stop-opacity:1;"
         offset="1"
         id="stop3636" />
    </linearGradient>
    <filter
       style="color-interpolation-filters:sRGB"
       inkscape:label="Drop Shadow"
       id="filter25491"
       x="-0.072714655"
       y="-0.11342212"
       width="1.1454093"
       height="1.2268442">
      <feFlood
         flood-opacity="1"
         flood-color="rgb(0,0,0)"
         result="flood"
         id="feFlood25481" />
      <feComposite
         in="flood"
         in2="SourceGraphic"
         operator="in"
         result="composite1"
         id="feComposite25483" />
      <feGaussianBlur
         in="composite1"
         stdDeviation="19.852887"
         result="blur"
         id="feGaussianBlur25485" />
      <feOffset
         dx="0"
         dy="0"
         result="offset"
         id="feOffset25487" />
      <feComposite
         in="SourceGraphic"
         in2="offset"
         operator="over"
         result="composite2"
         id="feComposite25489" />
    </filter>
    <filter
       style="color-interpolation-filters:sRGB"
       inkscape:label="Drop Shadow"
       id="filter50101"
       x="-0.020667744"
       y="-0.035668855"
       width="1.0413355"
       height="1.0713377">
      <feFlood
         flood-opacity="1"
         flood-color="rgb(0,0,0)"
         result="flood"
         id="feFlood50091" />
      <feComposite
         in="flood"
         in2="SourceGraphic"
         operator="in"
         result="composite1"
         id="feComposite50093" />
      <feGaussianBlur
         in="composite1"
         stdDeviation="5"
         result="blur"
         id="feGaussianBlur50095" />
      <feOffset
         dx="0"
         dy="0"
         result="offset"
         id="feOffset50097" />
      <feComposite
         in="SourceGraphic"
         in2="offset"
         operator="over"
         result="composite2"
         id="feComposite50099" />
    </filter>
    <linearGradient
       inkscape:collect="always"
       xlink:href="#linearGradient54839"
       id="linearGradient1"
       gradientUnits="userSpaceOnUse"
       gradientTransform="matrix(-1,0,0,1,213.75344,0)"
       x1="45.621326"
       y1="119.95429"
       x2="87.328255"
       y2="108.77895"
       spreadMethod="pad" />
  </defs>
  <g
     inkscape:label="Calque 1"
     inkscape:groupmode="layer"
     id="layer1"
     transform="translate(-2.2526474,-66.411792)">
    <g
       id="g72626"
       transform="matrix(0.23167647,0,0,0.23167647,-26.170749,60.548907)"
       style="display:inline">
      <g
         id="g54865"
         inkscape:label="cornes"
         style="display:inline"
         transform="matrix(4.3163642,0,0,4.3163642,126.41104,-309.11353)">
        <path
           d="m 166.75213,150.64471 c 1.13568,-17.82651 -5.11371,-43.54727 -23.48401,-61.380909 -2.41877,15.219239 -0.77384,28.484349 -15.59302,46.320549 6.57932,2.19244 14.03553,3.94213 20.23093,6.28542 6.1954,2.3433 12.32014,6.10214 18.8461,8.77494 z"
           style="display:inline;fill:url(#linearGradient54815);fill-opacity:1;fill-rule:nonzero;stroke:#000000;stroke-width:2.92113;stroke-linejoin:round;stroke-dasharray:none;stroke-opacity:1;paint-order:normal;filter:url(#filter54916)"
           id="path54813"
           inkscape:connector-curvature="0"
           inkscape:label="corne D"
           sodipodi:nodetypes="cccsc"
           transform="matrix(0.84447938,0,0,0.86733989,19.856111,11.841745)" />
        <path
           d="m 166.75213,150.64471 c 1.13568,-17.82651 -5.11371,-43.54727 -23.48401,-61.380909 -2.41877,15.219239 -0.77384,28.484349 -15.59302,46.320549 6.57932,2.19244 14.03553,3.94213 20.23093,6.28542 6.1954,2.3433 12.32014,6.10214 18.8461,8.77494 z"
           style="display:inline;fill:url(#linearGradient1);fill-opacity:1;fill-rule:nonzero;stroke:#000000;stroke-width:2.89025;stroke-linejoin:round;stroke-dasharray:none;stroke-opacity:1;paint-order:normal;filter:url(#filter54916)"
           id="path1"
           inkscape:connector-curvature="0"
           inkscape:label="corne G"
           sodipodi:nodetypes="cccsc"
           transform="matrix(-0.85443717,0,0,0.87564837,185.70831,11.100099)" />
      </g>
      <path
         id="path72680"
         style="display:inline;fill:url(#linearGradient25377);fill-opacity:1;stroke:#000000;stroke-width:17.2655;stroke-dasharray:none;stroke-opacity:1;filter:url(#filter25491)"
         d="m 270.3429,233.27178 c -12.13053,0.0869 -18.41999,0.25045 -19.84068,0.51748 -1.144,0.21502 -2.87076,0.53687 -3.83876,0.71601 -3.39755,0.62874 -7.75878,1.67453 -9.12069,2.18593 -0.352,0.13217 -1.2165,0.41176 -1.9205,0.62232 -1.16384,0.3481 -3.25564,1.14192 -6.71616,2.54728 -1.35662,0.55094 -6.92859,3.34711 -8.80396,4.41871 -9.50912,5.4336 -19.22979,14.3347 -25.79846,23.62145 -7.20889,10.19189 -11.90177,21.46717 -14.05242,33.75926 -1.3222,7.55733 -1.25541,-1.92842 -1.25579,179.67916 -3.5e-4,159.78036 0.036,171.45577 0.54648,175.03963 0.84639,5.94237 1.12679,7.44712 2.00526,10.71999 0.44878,1.672 0.90242,3.51231 1.0082,4.08859 0.10578,0.57626 0.31837,1.126 0.47065,1.2201 0.15228,0.0941 0.27658,0.43436 0.27658,0.75839 0,1.63594 5.61648,13.59355 8.39354,17.86888 8.38385,12.90716 19.54907,23.13654 32.17558,29.48332 3.39863,1.70831 6.74209,3.2209 7.12212,3.2209 0.17398,0 0.56654,0.13663 0.87215,0.30335 0.69366,0.37837 4.0714,1.60965 5.35553,1.95173 6.84183,1.82256 9.09939,2.30327 14.72158,3.13837 2.86101,0.42493 624.87293,0.45806 628.31942,0.0335 3.4978,-0.43098 5.43096,-0.78939 9.76086,-1.80897 6.51249,-1.53357 10.68562,-3.03042 17.11942,-6.14068 16.01418,-7.74176 29.56128,-21.11824 37.48427,-37.0114 1.6846,-3.37933 3.60617,-7.76213 4.13097,-9.42405 0.1389,-0.44 0.63821,-2.02603 1.11081,-3.52203 0.4726,-1.49599 0.97198,-3.22276 1.10858,-3.83876 0.6603,-2.97619 1.28842,-6.23749 1.82012,-9.43966 0.5604,-3.37794 0.5844,-10.50707 0.5844,-176.64116 0,-140.73817 -0.0784,-173.56812 -0.41711,-175.51919 -0.9917,-5.71266 -1.41582,-7.96534 -1.87142,-9.91923 -0.5572,-2.38967 -2.21155,-7.68353 -2.86625,-9.16976 -0.2443,-0.5546 -0.44388,-1.09494 -0.44388,-1.20226 0,-0.70573 -3.9305,-8.69886 -5.9154,-12.02932 -1.7603,-2.95351 -5.48353,-8.26079 -7.40763,-10.55939 -1.3748,-1.64228 -8.75135,-9.05597 -10.19805,-10.24935 -5.32129,-4.38937 -11.02745,-8.14479 -16.47925,-10.8449 -5.17249,-2.5617 -7.33936,-3.4001 -14.87995,-5.76149 -1.4855,-0.46518 -4.88829,-1.22071 -7.36079,-1.63499 -1.232,-0.20642 -2.8884,-0.5223 -3.6804,-0.70262 -0.8463,-0.19268 -8.92723,-0.3891 -19.59978,-0.4751 z m 49.31062,65.73187 h 493.24443 c 8.89342,0.0632 15.62904,0.20633 16.33426,0.34796 0.65997,0.13254 2.03814,0.36576 3.06477,0.51749 2.06033,0.30452 4.89612,0.86033 6.13399,1.20226 6.28356,1.73576 8.08935,2.3528 12.39959,4.2358 4.54297,1.98473 9.29923,4.74553 13.73345,7.97196 1.20554,0.8772 7.35052,6.32538 8.49614,7.53255 1.60335,1.6896 4.7073,5.59129 6.17414,7.76229 1.65402,2.44807 4.92727,8.32312 4.92727,8.84187 0,0.0788 0.1667,0.47563 0.37027,0.88329 0.54556,1.09247 1.92461,4.98417 2.38891,6.7407 0.37965,1.43621 0.73501,3.09252 1.56138,7.29165 0.28225,1.43415 0.34574,25.56632 0.34574,129.01683 0,122.11797 -0.0193,127.35692 -0.48626,129.83991 -0.44307,2.35378 -0.96654,4.75155 -1.51677,6.93922 -0.11383,0.4528 -0.52961,1.72198 -0.92344,2.82164 -0.39382,1.09964 -0.80993,2.26401 -0.92568,2.58743 -0.43732,1.2216 -2.04018,4.44408 -3.44396,6.92806 -6.60221,11.68238 -17.88969,21.51532 -31.23429,27.20594 -5.36128,2.28621 -8.8397,3.38737 -14.26655,4.51462 -3.60809,0.74945 -5.21786,1.0126 -8.13256,1.3294 -2.87196,0.31211 -521.19352,0.28785 -523.57759,-0.0245 -4.68496,-0.61384 -6.56669,-0.96893 -12.26798,-2.30861 -1.07007,-0.25145 -3.88306,-1.15389 -4.46109,-1.43201 -0.25466,-0.12255 -0.58218,-0.22305 -0.72716,-0.22305 -0.31668,0 -3.10339,-1.11312 -5.93547,-2.36884 -10.52165,-4.66523 -19.82488,-12.18446 -26.81113,-21.67195 -2.31412,-3.14261 -6.99498,-11.93093 -6.99498,-13.13344 0,-0.23818 -0.10509,-0.49068 -0.23198,-0.55987 -0.12689,-0.0691 -0.3022,-0.47087 -0.39034,-0.89445 -0.0881,-0.4236 -0.46695,-1.77775 -0.84092,-3.00677 -0.73203,-2.40573 -0.96538,-3.51031 -1.67067,-7.87827 -0.42536,-2.63435 -0.45755,-11.21679 -0.45726,-128.66442 3.2e-4,-133.49185 -0.0534,-126.51984 1.04835,-132.07491 1.79213,-9.03539 5.7032,-17.3254 11.71035,-24.81702 5.47367,-6.82628 13.57403,-13.3663 21.49797,-17.36031 1.56274,-0.78768 6.20357,-2.8427 7.33403,-3.24767 2.88366,-1.03302 4.62884,-1.61778 5.59866,-1.87366 0.58665,-0.15478 1.30598,-0.36012 1.5993,-0.45726 1.13487,-0.37592 4.7683,-1.14382 7.59946,-1.60599 0.80664,-0.13168 2.24755,-0.36836 3.20083,-0.52641 1.18387,-0.19628 6.42445,-0.31754 16.53279,-0.38142 z" />
      <path
         style="display:inline;fill:#4bc633;fill-opacity:1;stroke:#000000;stroke-width:4.31636;stroke-dasharray:none;stroke-opacity:1;filter:url(#filter50101)"
         d="m 249.22238,679.41301 c -7.85349,-1.51244 -14.45803,-5.70284 -19.43151,-12.32883 -1.65979,-2.21126 -3.75431,-6.34691 -4.52985,-8.94422 -0.18393,-0.616 -0.48851,-1.62279 -0.67684,-2.23731 -0.18833,-0.61453 -0.48833,-2.91853 -0.66667,-5.12 -0.21527,-2.65732 -0.29026,-60.63229 -0.22309,-172.4827 0.096,-159.81901 0.1302,-168.58693 0.66594,-170.56 2.3186,-8.53917 5.85822,-14.04016 12.06202,-18.74584 2.19121,-1.66206 6.90049,-4.16458 8.69704,-4.62162 0.58463,-0.14873 1.99896,-0.53189 3.14296,-0.85148 2.00324,-0.55962 13.7298,-0.58106 317.76,-0.58106 266.67618,0 315.97802,0.0683 317.60002,0.43991 8.0949,1.85475 15.395,6.70216 19.702,13.08263 1.5171,2.24743 3.7042,7.1004 4.5056,9.99746 l 0.7524,2.72 0.099,170.88 c 0.073,126.10474 0,171.46695 -0.2634,173.12001 -0.7278,4.50016 -2.7515,9.65449 -5.214,13.28 -1.4472,2.13088 -5.5698,6.29945 -7.5816,7.66624 -3.0554,2.07587 -6.801,3.91641 -9.28,4.56016 -4.8899,1.26979 10.1162,1.21497 -320.31997,1.17001 -250.55038,-0.0341 -315.1441,-0.12448 -316.8,-0.44336 z m 206.2472,-38.8847 c 0.11273,-0.1824 -0.58164,-1.9464 -1.54304,-3.92 -1.86774,-3.83414 -2.31553,-4.82656 -3.42389,-7.58835 -0.38848,-0.968 -0.82499,-2.048 -0.97002,-2.4 -1.23685,-3.00183 -4.10244,-11.24656 -4.83813,-13.92 -0.59703,-2.16954 -0.85728,-3.07018 -1.80313,-6.24 -0.52518,-1.76 -1.03076,-3.56 -1.12351,-4 -0.0928,-0.44 -0.69322,-2.816 -1.33435,-5.28 -0.64113,-2.464 -1.30818,-5.2 -1.48232,-6.08 -0.42599,-2.15261 -0.72705,-3.60007 -1.49752,-7.2 -0.35785,-1.672 -0.81917,-3.976 -1.02517,-5.12 -0.20599,-1.144 -0.50277,-2.728 -0.6595,-3.52 -0.55689,-2.81418 -2.18393,-13.33207 -2.84633,-18.4 -3.22063,-24.64036 -4.61377,-47.35866 -4.62125,-75.36001 -0.008,-28.97917 1.34874,-50.3528 4.94525,-77.92 0.54494,-4.17702 1.48654,-10.3857 1.91694,-12.64 0.18482,-0.968 0.47165,-2.516 0.6374,-3.44 0.70701,-3.94128 1.79373,-9.53712 2.2372,-11.52 0.16729,-0.748 0.43809,-1.972 0.60177,-2.72 0.54413,-2.48662 0.9516,-4.21392 1.64187,-6.96 0.37604,-1.496 0.79918,-3.224 0.9403,-3.84 0.37833,-1.65142 1.57971,-6.11776 1.89366,-7.04 0.14979,-0.44 0.43171,-1.376 0.6265,-2.08 0.66644,-2.40869 2.00311,-6.71947 2.28215,-7.36 0.15335,-0.352 0.71862,-1.96661 1.25615,-3.58801 0.83798,-2.52765 2.93877,-8.09367 3.83923,-10.17199 0.1525,-0.352 0.52618,-1.216 0.83039,-1.92 0.3042,-0.704 1.25489,-2.70103 2.11262,-4.43784 0.85774,-1.73681 1.55953,-3.28481 1.55953,-3.44 l -173.049,0.11784 c -0.85703,1.0472 -6.37831,11.7427 -7.8879,15.28 -0.338,0.792 -0.95434,2.232 -1.36965,3.2 -0.72854,1.6981 -0.90012,2.10491 -1.61952,3.84 -0.18244,0.44 -0.72252,1.808 -1.20019,3.04 -0.47767,1.232 -0.98413,2.528 -1.12546,2.88 -0.98242,2.44679 -4.96692,14.17146 -5.43742,16 -0.23056,0.89606 -1.85816,6.48381 -2.51666,8.64 -0.31674,1.03715 -2.44187,9.42666 -2.91811,11.52 -0.16016,0.704 -0.59774,2.576 -0.97239,4.16 -0.63404,2.6807 -0.86151,3.77158 -1.56805,7.52 -0.14929,0.792 -0.4244,2.232 -0.61136,3.2 -0.81666,4.22826 -2.03876,11.20819 -2.29714,13.12 -0.69996,5.17907 -0.95183,6.93533 -1.10142,7.68 -0.28286,1.40807 -1.31342,10.55367 -1.78492,15.84 -0.95425,10.69875 -1.30732,16.68375 -1.71785,29.12 -0.74291,22.50522 0.30729,46.64695 2.99292,68.8 0.19203,1.584 0.42123,3.24 0.50933,3.68 0.0881,0.44 0.31271,1.952 0.49911,3.36 0.75403,5.69549 1.71991,11.57268 2.86616,17.44001 0.15472,0.792 0.42719,2.232 0.60547,3.2 0.62373,3.38649 1.749,8.53283 2.58889,11.84 0.15644,0.616 0.66461,2.704 1.12927,4.64 0.46466,1.936 0.95887,3.88 1.09825,4.32 0.13937,0.44 0.41102,1.376 0.60366,2.08 1.90565,6.96412 4.9403,16.61884 6.83957,21.76 1.69137,4.57836 3.48157,9.25504 3.98106,10.4 0.26873,0.616 0.61006,1.408 0.7585,1.76 3.19706,7.58102 7.62653,16.4296 9.49108,18.96 l 0.76634,1.04 z m 201.95683,0.0867 c 0.42492,-0.27443 1.19337,-2.01046 2.08707,-4.7151 1.50576,-4.55693 2.92899,-9.12986 3.53558,-11.36 0.35901,-1.32 1.00903,-3.696 1.44448,-5.28 0.43543,-1.584 0.90733,-3.384 1.04867,-4 0.14135,-0.616 0.56464,-2.344 0.94068,-3.84 0.69027,-2.74608 1.09776,-4.47338 1.64188,-6.96 0.16368,-0.748 0.44436,-1.972 0.62368,-2.72 0.54679,-2.28032 1.60231,-7.33744 1.92026,-9.2 0.16522,-0.968 0.50237,-2.84 0.74918,-4.16 0.24685,-1.32 0.68784,-3.768 0.98,-5.44 0.29216,-1.672 0.66919,-3.65408 0.83783,-4.40461 0.16867,-0.7505 0.30665,-1.80275 0.30665,-2.33827 0,-0.53556 0.13767,-1.57748 0.30589,-2.31543 0.68794,-3.01734 2.77312,-19.12365 3.81943,-29.5017 0.17744,-1.76 0.47523,-4.64 0.66172,-6.4 0.18653,-1.76 0.33776,-3.98224 0.33604,-4.93833 -0.003,-0.95607 0.13555,-2.97207 0.30496,-4.48 0.72966,-6.49415 1.93443,-35.76887 1.93673,-47.06167 0.003,-14.42688 -1.35555,-43.63667 -2.57478,-55.36 -0.17389,-1.672 -0.31479,-3.66025 -0.31306,-4.41837 0.003,-0.75808 -0.1327,-2.34208 -0.29865,-3.52 -0.16599,-1.17788 -0.52896,-4.15763 -0.80669,-6.62163 -1.06506,-9.45008 -2.02938,-16.70096 -3.04282,-22.88 -0.15878,-0.968 -0.44969,-2.84 -0.64649,-4.16 -0.1968,-1.32 -0.49479,-3.12 -0.66221,-4 -0.27984,-1.47078 -1.14547,-6.0857 -1.95079,-10.4 -1.05654,-5.66035 -1.92323,-9.63312 -3.94425,-18.08 -1.28295,-5.36208 -1.40896,-5.85027 -2.56045,-9.92 -0.44819,-1.584 -0.97325,-3.456 -1.16685,-4.16 -0.37821,-1.37549 -0.39334,-1.4262 -1.71859,-5.76 -1.16243,-3.8014 -2.60314,-7.99085 -3.11574,-9.06039 l -0.412,-0.85961 H 476.58238 l -0.57917,1.18496 c -0.84588,1.73064 -3.61239,9.62886 -5.02114,14.33504 -0.39513,1.32 -0.89594,2.976 -1.11292,3.68 -0.21697,0.704 -0.55489,1.856 -0.75091,2.56 -0.19603,0.704 -0.70678,2.504 -1.13499,4 -0.42822,1.496 -1.30084,4.88 -1.93917,7.52 -0.63833,2.64 -1.29125,5.304 -1.45094,5.92 -0.47782,1.8431 -0.90767,3.78512 -1.77076,8 -0.45051,2.2 -0.94918,4.576 -1.10817,5.28 -0.15898,0.704 -0.45358,2.216 -0.65466,3.36 -0.20107,1.144 -0.49219,2.728 -0.64692,3.52 -1.64733,8.43187 -4.05062,24.73136 -4.95417,33.6 -0.0986,0.968 -0.3962,3.776 -0.66128,6.24 -2.46489,22.91155 -3.57073,55.08167 -2.68949,78.24 0.72789,19.12871 1.4332,29.93018 2.72681,41.76 0.28869,2.64 0.64414,5.952 0.7899,7.36 0.45165,4.36314 0.64577,6.0058 0.96428,8.16001 0.16915,1.144 0.516,3.52 0.77078,5.28 0.25479,1.76 0.55184,3.776 0.66011,4.48 0.10828,0.704 0.32689,2.144 0.48581,3.2 0.46009,3.0574 0.88383,5.55795 1.437,8.48 0.2832,1.496 0.6517,3.512 0.81889,4.48 0.52829,3.05878 1.86509,9.72732 2.5499,12.72 0.17117,0.748 0.44752,1.972 0.61413,2.72 0.46806,2.10137 1.92324,8.2606 2.2681,9.6 0.51981,2.01884 1.00822,3.85081 1.42898,5.36 0.22081,0.792 0.57984,2.088 0.79785,2.88 0.218,0.792 0.5089,1.8 0.64643,2.24 0.13752,0.44 0.49807,1.664 0.8012,2.72 1.38711,4.83209 3.163,10.2863 4.63654,14.24 0.55756,1.496 1.16361,3.152 1.34677,3.68 0.18317,0.528 0.55814,1.14 0.83328,1.36 z M 850.75124,638.855 c 1.20713,-1.91136 5.94396,-11.26791 7.24713,-14.31504 0.33872,-0.792 0.89642,-2.088 1.23936,-2.88 0.34298,-0.792 0.87187,-2.016 1.17539,-2.72 1.89994,-4.40698 6.80368,-18.06877 7.69565,-21.44 0.13968,-0.528 0.6408,-2.184 1.1136,-3.68 0.9216,-2.91616 1.32288,-4.3057 1.75584,-6.08 0.15031,-0.616 0.50464,-1.912 0.78736,-2.88 0.28273,-0.968 0.64163,-2.336 0.79743,-3.04 0.1559,-0.704 0.5048,-2.144 0.7753,-3.2 0.4556,-1.77856 1.793,-7.57594 2.4362,-10.56 0.7875,-3.65376 2.4204,-12.29028 2.8739,-15.20001 0.2057,-1.32 0.5055,-3.192 0.6661,-4.16 1.895,-11.42278 3.2564,-24.46361 4.5097,-43.2 0.4906,-7.33478 0.4894,-41.36563 0,-48.16 -0.2036,-2.816 -0.5192,-7.28 -0.7013,-9.92 -0.478,-6.92707 -1.5295,-17.24067 -2.512,-24.64 -0.1636,-1.232 -0.5311,-3.752 -0.8167,-5.6 -0.2856,-1.848 -0.6483,-4.224 -0.806,-5.28 -0.2942,-1.9703 -0.531,-3.31523 -1.4652,-8.32 -1.2297,-6.58806 -1.6747,-8.7551 -2.8589,-13.92 -0.8409,-3.66765 -1.1233,-4.85997 -1.44,-6.08 -0.1599,-0.616 -0.4245,-1.696 -0.5878,-2.4 -0.1635,-0.704 -0.5425,-2.144 -0.84241,-3.2 -0.63395,-2.23235 -0.88432,-3.13734 -1.59353,-5.76 -0.6457,-2.38774 -2.07975,-7.14317 -2.41248,-8 -0.13668,-0.352 -0.63386,-1.864 -1.10484,-3.36 -0.47094,-1.496 -1.12364,-3.44 -1.45043,-4.32 -0.32678,-0.88 -0.97792,-2.68 -1.44697,-4 -0.46909,-1.32 -0.97175,-2.688 -1.11706,-3.04 -0.14531,-0.352 -1.01549,-2.512 -1.93373,-4.8 -2.74038,-6.82828 -6.79763,-15.37198 -9.45968,-19.92 l -1.54521,-2.64 -172.75184,0.19266 c -0.10599,0.10596 0.36013,1.29396 1.03574,2.64 2.02871,4.04168 3.34544,7.0339 4.94938,11.24734 0.83747,2.2 1.64822,4.288 1.80166,4.64 0.35283,0.80944 2.85392,8.31834 3.1976,9.6 0.14157,0.528 0.63562,2.256 1.09789,3.84 0.72086,2.47011 1.45536,5.21386 3.08384,11.52 0.72403,2.80371 1.10378,4.44205 2.03987,8.8 0.28352,1.32 0.63984,2.976 0.79178,3.68 0.15193,0.704 0.42329,2.072 0.60304,3.04 0.17974,0.968 0.47808,2.552 0.66301,3.52 0.5407,2.83078 1.212,6.69683 1.61129,9.28 0.20403,1.32 0.50359,3.192 0.66563,4.16 0.2874,1.71664 1.60317,11.67827 2.21901,16.8 1.02538,8.52791 2.07904,21.75507 2.94413,36.96 0.52083,9.15415 0.52237,49.37175 0.003,58.56 -0.74333,13.13072 -1.39997,21.97927 -2.30352,31.04 -0.73494,7.37005 -1.90998,16.6521 -2.87626,22.72001 -0.15414,0.968 -0.4472,2.84 -0.65123,4.16 -0.20406,1.32 -0.57549,3.552 -0.82544,4.96 -0.24992,1.408 -0.60563,3.424 -0.79043,4.48 -0.1848,1.056 -0.45869,2.496 -0.60864,3.2 -0.14995,0.704 -0.44534,2.144 -0.65642,3.2 -0.21107,1.056 -0.59126,2.856 -0.84486,4 -0.2536,1.144 -0.60374,2.728 -0.77808,3.52 -0.17434,0.792 -0.7568,3.168 -1.2944,5.28 -0.53757,2.112 -1.09686,4.344 -1.24285,4.96 -0.14601,0.616 -0.41901,1.66 -0.60672,2.32 -0.18771,0.66 -0.46291,1.668 -0.61155,2.24 -1.06739,4.10758 -4.8879,15.52313 -6.79517,20.30377 -1.78259,4.46813 -2.36205,5.78871 -4.36457,9.94653 -0.78679,1.63367 -1.34944,3.18167 -1.25031,3.44 l 172.30294,0.4697 1.26624,-2.00496 z"
         id="path72575"
         sodipodi:nodetypes="sssssssssssssscscsssssscsssssssssssscssssssssssssssccsssssssssssssssssssssssssssscccssssssssssssssscssscsssssssssssccssssssssssssssssssssssssssssssscccssssssssssssscsssssssssssssssssccsssssssssssssscssssssssssssssscccc" />
      <path
         style="display:inline;fill:#4bc633;fill-opacity:1;stroke:#000000;stroke-width:4.31636;stroke-dasharray:none;stroke-opacity:1"
         d="m 251.94238,729.13263 c -5.6222,-0.8351 -7.87816,-1.31613 -14.72,-3.13869 -2.1381,-0.55518 -4.1629,-1.57568 -6.22765,-2.25398 -0.38003,0 -3.72498,-1.51226 -7.12361,-3.22058 -12.62652,-6.34678 -23.79094,-16.57785 -32.1748,-29.48502 -2.77706,-4.27533 -8.39395,-16.23155 -8.39395,-17.86749 0,-0.32403 -0.12459,-0.66614 -0.27687,-0.76026 -0.15228,-0.0941 -0.36342,-0.64262 -0.4692,-1.21888 -0.10578,-0.57628 -0.55951,-2.41577 -1.00829,-4.08777 -0.87847,-3.27287 -1.16012,-4.77763 -2.00651,-10.72 -0.51046,-3.58387 -0.54692,-15.25949 -0.54657,-175.04001 3.8e-4,-181.60776 -0.0659,-172.12267 1.2563,-179.68 2.15065,-12.29211 6.84456,-23.56811 14.05346,-33.76001 6.56867,-9.28675 16.28856,-18.186 25.79769,-23.61961 1.87537,-1.0716 7.44601,-3.86821 8.80263,-4.41915 3.46053,-1.40536 5.55353,-2.19898 6.71737,-2.54708 0.704,-0.21056 1.568,-0.49099 1.92,-0.62316 1.36191,-0.5114 5.72245,-1.55598 9.12,-2.18472 0.968,-0.17914 2.696,-0.50163 3.84,-0.71665 1.42069,-0.26703 7.70946,-0.43128 19.84,-0.51818 l 591.91926,5.2e-4 c 10.67256,0.086 18.75446,0.2815 19.60076,0.47418 0.792,0.18032 2.448,0.49674 3.68,0.70316 2.4725,0.41428 5.8745,1.17018 7.36,1.63536 7.5406,2.36139 9.7075,3.20049 14.88,5.7622 5.4518,2.70011 11.1587,6.45563 16.48,10.84501 1.4467,1.19338 8.8221,8.60584 10.1969,10.24812 1.9241,2.2986 5.6476,7.6065 7.4079,10.56001 1.9849,3.33046 5.9152,11.32242 5.9152,12.02815 0,0.10732 0.1998,0.64889 0.4441,1.20349 0.6547,1.48623 2.3094,6.77869 2.8666,9.16836 0.4556,1.95389 0.8809,4.20734 1.8726,9.92 0.3387,1.95108 0.4167,34.78169 0.4167,175.52 0,166.13425 -0.024,173.26206 -0.5844,176.64001 -0.5317,3.20217 -1.1609,6.46381 -1.8212,9.44 -0.1366,0.616 -0.6351,2.344 -1.1077,3.84 -0.4726,1.496 -0.9729,3.08 -1.1118,3.52 -0.5248,1.66192 -2.4462,6.04595 -4.1308,9.42528 -7.923,15.89318 -21.4699,29.26906 -37.4841,37.01082 -6.4338,3.11027 -10.6075,4.60739 -17.12,6.14096 -4.3299,1.01958 -6.2622,1.37766 -9.76,1.80864 -3.4465,0.4246 -625.45901,0.39193 -628.32002,-0.033 z M 886.6624,699.51705 c 2.514,-0.62189 3.2772,-0.81674 6.4,-1.63379 2.0391,-0.53351 6.6883,-2.59953 9.6746,-4.29914 9.1324,-5.19773 17.013,-13.74304 21.4896,-23.30231 1.3166,-2.81148 3.3293,-8.73459 3.7452,-11.02185 1.2682,-6.97392 1.237,-2.50909 1.2433,-177.92001 0.01,-145.5835 -0.056,-168.24928 -0.4655,-172 -0.2594,-2.376 -0.556,-4.68 -0.6591,-5.12 -0.1032,-0.44 -0.3368,-1.448 -0.5193,-2.24 -0.4082,-1.77212 -1.7478,-5.84886 -2.4184,-7.36 -2.962,-6.67445 -5.9866,-11.28145 -10.4603,-15.93339 -3.7147,-3.86279 -6.2679,-5.98102 -10.1089,-8.38678 -2.384,-1.49325 -7.6315,-4.15984 -8.1859,-4.15984 -0.1093,0 -0.6524,-0.19912 -1.207,-0.44249 -2.8266,-1.24037 -7.2771,-2.29823 -12.3103,-2.92609 -5.413,-0.67526 -627.68068,-0.67889 -633.17802,-0.004 -5.79272,0.71147 -9.48622,1.66939 -14.55116,3.77386 -8.73154,3.62796 -16.71019,10.09798 -22.28596,18.07206 -2.03982,2.91719 -5.88289,10.11186 -5.88289,11.01343 0,0.2557 -0.11896,0.60172 -0.26436,0.76892 -0.14539,0.1672 -0.45009,0.952 -0.67711,1.744 -0.22701,0.792 -0.52849,1.8 -0.66995,2.24 -0.34905,1.08569 -1.13612,4.81659 -1.56046,7.39689 -0.482,2.93099 -0.49446,344.08577 -0.0127,347.12622 1.96554,12.40416 6.58996,21.68573 15.01592,30.13815 4.76055,4.77548 7.85372,7.03718 13.44865,9.8335 5.8276,2.91261 12.05417,4.6768 18.24,5.16797 1.672,0.13277 144.88001,0.22019 318.24001,0.1943 l 315.20002,-0.0471 z"
         id="path130"
         sodipodi:nodetypes="sccssssssssssssssssccsssssssssssscssssssssscsssscssssssssscsssssssssssscc" />
    </g>
  </g>
</svg>
