<?xml version="1.0" encoding="UTF-8" standalone="no"?>
<!-- Svg Vector Icons : http://www.onlinewebfonts.com/icon -->

<svg
   version="1.1"
   x="0px"
   y="0px"
   viewBox="0 0 721.77081 827.21747"
   enable-background="new 0 0 1000 1000"
   xml:space="preserve"
   id="svg7804"
   sodipodi:docname="volant-blanc.svg"
   inkscape:version="1.3.2 (091e20e, 2023-11-25, custom)"
   width="721.77081"
   height="827.21747"
   xmlns:inkscape="http://www.inkscape.org/namespaces/inkscape"
   xmlns:sodipodi="http://sodipodi.sourceforge.net/DTD/sodipodi-0.dtd"
   xmlns="http://www.w3.org/2000/svg"
   xmlns:svg="http://www.w3.org/2000/svg"><defs
   id="defs7808" /><sodipodi:namedview
   id="namedview7806"
   pagecolor="#ffffff"
   bordercolor="#666666"
   borderopacity="1.0"
   inkscape:showpageshadow="2"
   inkscape:pageopacity="0.0"
   inkscape:pagecheckerboard="0"
   inkscape:deskcolor="#d1d1d1"
   showgrid="false"
   inkscape:zoom="0.233"
   inkscape:cx="622.3176"
   inkscape:cy="276.82403"
   inkscape:window-width="1366"
   inkscape:window-height="705"
   inkscape:window-x="-8"
   inkscape:window-y="-8"
   inkscape:window-maximized="1"
   inkscape:current-layer="svg7804" />
<metadata
   id="metadata7794"> Svg Vector Icons : http://www.onlinewebfonts.com/icon </metadata>
<g
   id="g7802"
   inkscape:label="modèle"
   transform="rotate(150,393.19296,374.52753)"><path
     d="m 380.04211,706.26892 c 0.18904,13.28217 1.14425,28.35533 2.19399,33.60919 11.05461,55.12675 57.27295,96.2777 110.92405,98.75194 51.55659,2.28272 96.73018,-27.06646 117.31203,-76.24573 6.57206,-15.56489 9.24367,-31.62672 9.52724,-57.10924 l 4.1e-4,-23.49969 -239.95814,-3.5e-4 c 0,0 -0.0941,11.29968 4.2e-4,24.49388 z"
     id="path7798"
     style="fill:#ffffff;stroke:#000000;stroke-width:20;stroke-dasharray:none"
     sodipodi:nodetypes="cccccccc" /><rect
     style="fill:#000000;stroke:#000000;stroke-width:10;stroke-dasharray:none;stroke-opacity:1;paint-order:normal"
     id="rect7983"
     width="250.00002"
     height="32.953678"
     x="375"
     y="635.82135" /><g
     id="g8373"
     transform="matrix(0.07092601,-0.05542222,-0.03991843,-0.05542222,311.3345,797.17548)"><path
       id="path8371"
       style="fill:#ffffff;fill-rule:evenodd;stroke:#000000;stroke-width:255.171;stroke-linecap:butt;stroke-linejoin:miter;stroke-dasharray:none;stroke-opacity:1"
       d="m 8735.8974,4004.112 c 0,0 -258.8686,176.812 -406.7497,220.7133 -196.1059,58.2176 -423.003,127.9661 -611.7279,49.0376 -383.4202,-160.354 -1720.4392,-1910.6128 -2122.1851,-2618.3055 -109.7917,-193.4029 29.8842,-762.22394 29.8842,-762.22394 0,0 568.8386,-139.69354 762.2415,-29.90185 707.6928,401.74589 2457.9516,1738.76489 2618.3055,2122.18509 78.9286,188.725 9.1801,415.6221 -49.0376,611.728 -43.9012,147.881 -220.7309,406.7673 -220.7309,406.7673 z" /><path
       style="fill:none;fill-rule:evenodd;stroke:#000000;stroke-width:255.171;stroke-linecap:round;stroke-linejoin:miter;stroke-dasharray:none;stroke-opacity:1"
       d="M 3709.02,-1022.782 8645.6892,3913.8871"
       id="path8369" /></g><g
     id="g8367"
     transform="matrix(0.06414181,-0.05542222,-0.04670263,-0.05542222,271.10858,797.17548)"><path
       id="path8365"
       style="fill:#ffffff;fill-rule:evenodd;stroke:#000000;stroke-width:255.171;stroke-linecap:butt;stroke-linejoin:miter;stroke-dasharray:none;stroke-opacity:1"
       d="m 8735.8974,4004.112 c 0,0 -258.8686,176.812 -406.7497,220.7133 -196.1059,58.2176 -423.003,127.9661 -611.7279,49.0376 -383.4202,-160.354 -1720.4392,-1910.6128 -2122.1851,-2618.3055 -109.7917,-193.4029 29.8842,-762.22394 29.8842,-762.22394 0,0 568.8386,-139.69354 762.2415,-29.90185 707.6928,401.74589 2457.9516,1738.76489 2618.3055,2122.18509 78.9286,188.725 9.1801,415.6221 -49.0376,611.728 -43.9012,147.881 -220.7309,406.7673 -220.7309,406.7673 z" /><path
       style="fill:none;fill-rule:evenodd;stroke:#000000;stroke-width:255.171;stroke-linecap:round;stroke-linejoin:miter;stroke-dasharray:none;stroke-opacity:1"
       d="M 3709.02,-1022.782 8645.6892,3913.8871"
       id="path8363" /></g><g
     id="g8361"
     transform="matrix(0.05542222,-0.05542222,-0.05542222,-0.05542222,237.97014,797.17548)"><path
       id="path8352"
       style="fill:#ffffff;fill-rule:evenodd;stroke:#000000;stroke-width:255.171;stroke-linecap:butt;stroke-linejoin:miter;stroke-dasharray:none;stroke-opacity:1"
       d="m 8735.8974,4004.112 c 0,0 -258.8686,176.812 -406.7497,220.7133 -196.1059,58.2176 -423.003,127.9661 -611.7279,49.0376 -383.4202,-160.354 -1720.4392,-1910.6128 -2122.1851,-2618.3055 -109.7917,-193.4029 29.8842,-762.22394 29.8842,-762.22394 0,0 568.8386,-139.69354 762.2415,-29.90185 707.6928,401.74589 2457.9516,1738.76489 2618.3055,2122.18509 78.9286,188.725 9.1801,415.6221 -49.0376,611.728 -43.9012,147.881 -220.7309,406.7673 -220.7309,406.7673 z" /><path
       style="fill:none;fill-rule:evenodd;stroke:#000000;stroke-width:255.171;stroke-linecap:round;stroke-linejoin:miter;stroke-dasharray:none;stroke-opacity:1"
       d="M 3709.02,-1022.782 8645.6892,3913.8871"
       id="path8350" /></g><g
     id="g8379"
     transform="matrix(0.04670263,-0.05542222,-0.06414181,-0.05542222,204.83171,797.17548)"><path
       id="path8377"
       style="fill:#ffffff;fill-rule:evenodd;stroke:#000000;stroke-width:255.171;stroke-linecap:butt;stroke-linejoin:miter;stroke-dasharray:none;stroke-opacity:1"
       d="m 8735.8974,4004.112 c 0,0 -258.8686,176.812 -406.7497,220.7133 -196.1059,58.2176 -423.003,127.9661 -611.7279,49.0376 -383.4202,-160.354 -1720.4392,-1910.6128 -2122.1851,-2618.3055 -109.7917,-193.4029 29.8842,-762.22394 29.8842,-762.22394 0,0 568.8386,-139.69354 762.2415,-29.90185 707.6928,401.74589 2457.9516,1738.76489 2618.3055,2122.18509 78.9286,188.725 9.1801,415.6221 -49.0376,611.728 -43.9012,147.881 -220.7309,406.7673 -220.7309,406.7673 z" /><path
       style="fill:none;fill-rule:evenodd;stroke:#000000;stroke-width:255.171;stroke-linecap:round;stroke-linejoin:miter;stroke-dasharray:none;stroke-opacity:1"
       d="M 3709.02,-1022.782 8645.6892,3913.8871"
       id="path8375" /></g><g
     id="g8385"
     transform="matrix(0.03991843,-0.05542222,-0.07092601,-0.05542222,164.17144,797.17548)"><path
       id="path8383"
       style="fill:#ffffff;fill-rule:evenodd;stroke:#000000;stroke-width:255.171;stroke-linecap:butt;stroke-linejoin:miter;stroke-dasharray:none;stroke-opacity:1"
       d="m 8735.8974,4004.112 c 0,0 -258.8686,176.812 -406.7497,220.7133 -196.1059,58.2176 -423.003,127.9661 -611.7279,49.0376 -383.4202,-160.354 -1720.4392,-1910.6128 -2122.1851,-2618.3055 -109.7917,-193.4029 29.8842,-762.22394 29.8842,-762.22394 0,0 568.8386,-139.69354 762.2415,-29.90185 707.6928,401.74589 2457.9516,1738.76489 2618.3055,2122.18509 78.9286,188.725 9.1801,415.6221 -49.0376,611.728 -43.9012,147.881 -220.7309,406.7673 -220.7309,406.7673 z" /><path
       style="fill:none;fill-rule:evenodd;stroke:#000000;stroke-width:255.171;stroke-linecap:round;stroke-linejoin:miter;stroke-dasharray:none;stroke-opacity:1"
       d="M 3709.02,-1022.782 8645.6892,3913.8871"
       id="path8381" /></g><path
     id="rect8387"
     style="fill:#000000;stroke:#000000;stroke-width:10;stroke-dasharray:none;paint-order:normal"
     d="m 351.74905,530.25078 h 296.50189 l -5.5948,20 -285.3123,-10e-6 z"
     sodipodi:nodetypes="ccccc" /></g>
</svg>
