<?xml version="1.0" encoding="UTF-8" standalone="no"?>
<!-- Created with Inkscape (http://www.inkscape.org/) -->

<svg
   width="150mm"
   height="60mm"
   viewBox="0 0 150 60"
   version="1.1"
   id="svg1"
   inkscape:version="1.3.2 (091e20e, 2023-11-25, custom)"
   sodipodi:docname="win-perdu.svg"
   xmlns:inkscape="http://www.inkscape.org/namespaces/inkscape"
   xmlns:sodipodi="http://sodipodi.sourceforge.net/DTD/sodipodi-0.dtd"
   xmlns:xlink="http://www.w3.org/1999/xlink"
   xmlns="http://www.w3.org/2000/svg"
   xmlns:svg="http://www.w3.org/2000/svg">
  <sodipodi:namedview
     id="namedview1"
     pagecolor="#ffffff"
     bordercolor="#000000"
     borderopacity="0.25"
     inkscape:showpageshadow="2"
     inkscape:pageopacity="0.0"
     inkscape:pagecheckerboard="0"
     inkscape:deskcolor="#d1d1d1"
     inkscape:document-units="mm"
     inkscape:zoom="1.285875"
     inkscape:cx="283.85341"
     inkscape:cy="113.15252"
     inkscape:window-width="1366"
     inkscape:window-height="705"
     inkscape:window-x="-8"
     inkscape:window-y="-8"
     inkscape:window-maximized="1"
     inkscape:current-layer="layer1" />
  <defs
     id="defs1">
    <linearGradient
       inkscape:collect="always"
       id="linearGradient3638">
      <stop
         style="stop-color:#bf953f;stop-opacity:1;"
         offset="0"
         id="stop3634" />
      <stop
         style="stop-color:#faef84;stop-opacity:1;"
         offset="0.25"
         id="stop3642" />
      <stop
         style="stop-color:#b38728;stop-opacity:1;"
         offset="0.5"
         id="stop3644" />
      <stop
         style="stop-color:#fff699;stop-opacity:1;"
         offset="0.755"
         id="stop8004" />
      <stop
         style="stop-color:#ab781c;stop-opacity:1;"
         offset="1"
         id="stop3636" />
    </linearGradient>
    <linearGradient
       inkscape:collect="always"
       xlink:href="#linearGradient3638"
       id="linearGradient2"
       x1="22.144989"
       y1="86.480164"
       x2="82.082001"
       y2="97.542664"
       gradientUnits="userSpaceOnUse"
       gradientTransform="matrix(2.4525743,0,0,2.576271,-41.944504,-64.753675)" />
  </defs>
  <g
     inkscape:label="Calque 1"
     inkscape:groupmode="layer"
     id="layer1"
     transform="translate(-10.867731,-128.04266)">
    <rect
       style="fill:url(#linearGradient2);stroke:#000000;stroke-width:3;stroke-dasharray:none;stroke-opacity:1"
       id="rect1"
       width="147"
       height="57"
       x="12.367731"
       y="129.54266"
       rx="9.999999"
       ry="10" />
    <g
       id="text1"
       style="font-size:10.5833px;line-height:125%;font-family:'Futura Extra';-inkscape-font-specification:'Futura Extra';text-align:center;text-anchor:middle;stroke-width:4"
       aria-label="PERDU !&#10;Tente à nouveau ta chance&#10;sur nos autres jeux !">
      <path
         style="font-size:17.6389px"
         d="m 46.319239,150.68845 h 4.65667 v -4.00403 h 2.469446 c 2.698752,0 4.392086,-1.69334 4.392086,-4.40973 0,-3.29847 -2.293057,-4.88598 -5.397503,-4.88598 h -6.120699 z m 4.65667,-9.66612 h 0.458611 c 0.793751,0 1.781529,0.0529 1.781529,1.09361 0,1.07597 -0.917223,1.21708 -1.76389,1.21708 h -0.47625 z m 8.113906,9.66612 h 9.084033 v -3.63362 h -4.215697 v -1.30528 h 3.721808 v -3.45722 h -3.721808 v -1.27 h 4.074586 v -3.63362 h -8.942922 z m 11.077239,0 h 4.727225 v -4.26862 h 0.08819 l 2.116669,4.26862 h 5.573892 l -2.89278,-4.32153 c -0.264583,-0.38806 -0.564444,-0.59973 -0.811389,-0.79376 v -0.10583 c 1.799168,-0.59972 2.575279,-1.44639 2.575279,-3.45722 0,-3.35139 -2.540001,-4.6214 -5.538614,-4.6214 h -5.838476 z m 4.727225,-9.66612 h 0.370417 c 0.829028,0 1.552223,0.12347 1.552223,1.14653 0,0.98778 -0.79375,1.11125 -1.587501,1.11125 h -0.335139 z m 8.6607,9.66612 h 6.120699 c 3.898197,0 6.685143,-2.50473 6.685143,-6.45584 0,-4.88598 -3.421947,-6.8439 -7.884589,-6.8439 h -4.921253 z m 4.833059,-9.13695 h 0.299861 c 1.76389,0 2.839863,0.79375 2.839863,2.66347 0,1.74625 -1.234723,2.48708 -2.839863,2.48708 h -0.299861 z m 17.127362,-4.16279 v 7.40834 c 0,1.0407 -0.0353,1.95792 -1.32291,1.95792 -1.28764,0 -1.32292,-0.91722 -1.32292,-1.95792 v -7.40834 h -4.83306 v 7.86695 c 0,3.88056 2.43417,5.64445 6.15598,5.64445 3.7218,0 6.15597,-1.76389 6.15597,-5.64445 v -7.86695 z m 19.29348,8.21973 v -9.08403 h -4.65667 v 9.08403 z m -2.32833,0.86431 c -1.28764,0 -2.6282,0.82903 -2.6282,2.24014 0,1.39347 1.34056,2.18722 2.6282,2.18722 1.28764,0 2.6282,-0.79375 2.6282,-2.18722 0,-1.41111 -1.34056,-2.24014 -2.6282,-2.24014 z"
         id="path1" />
      <path
         style="font-size:9.17222px;letter-spacing:-0.132292px"
         d="m 17.3575,159.24891 1.385006,-0.0642 v 4.73287 h 2.513188 v -4.73287 l 1.385005,0.0642 v -2.24719 H 17.3575 Z m 10.415764,2.63243 c 0.119239,-1.82527 -1.247422,-2.94428 -2.980971,-2.94428 -1.550105,0 -2.797527,1.00894 -2.797527,2.62325 0,1.67852 1.403349,2.46733 2.93511,2.46733 1.119011,0 2.430638,-0.54116 2.742494,-1.71521 h -2.302227 c -0.04586,0.22931 -0.229306,0.40358 -0.476956,0.40358 -0.4953,0 -0.559505,-0.44027 -0.559505,-0.83467 z m -3.439582,-1.00895 c 0,-0.33937 0.174272,-0.63288 0.531989,-0.63288 0.339372,0 0.577849,0.30268 0.577849,0.63288 z m 6.389156,-1.82527 h -2.3114 v 4.87045 h 2.366433 v -2.3756 c 0,-0.28434 0,-0.68792 0.394405,-0.68792 0.403578,0 0.403578,0.40358 0.403578,0.68792 v 2.3756 h 2.366433 v -2.99932 c 0,-1.07315 -0.476955,-1.98119 -1.687689,-1.98119 -0.761294,0 -1.109838,0.35771 -1.568449,0.8897 h -0.05503 z m 6.701003,-1.56845 h -2.384777 v 1.63266 l -0.57785,-0.0367 v 1.86196 l 0.57785,-0.0459 v 3.02683 h 2.384777 v -3.02683 l 0.788811,0.0459 v -1.86196 l -0.788811,0.0367 z m 6.774395,4.40267 c 0.119239,-1.82527 -1.247421,-2.94428 -2.980971,-2.94428 -1.550105,0 -2.797527,1.00894 -2.797527,2.62325 0,1.67852 1.403349,2.46733 2.93511,2.46733 1.119011,0 2.430639,-0.54116 2.742494,-1.71521 h -2.302227 c -0.04586,0.22931 -0.229306,0.40358 -0.476956,0.40358 -0.4953,0 -0.559505,-0.44027 -0.559505,-0.83467 z m -3.439582,-1.00895 c 0,-0.33937 0.174272,-0.63288 0.531989,-0.63288 0.339372,0 0.57785,0.30268 0.57785,0.63288 z m 9.9441,0.58703 c 0,-0.35772 0.238477,-0.66958 0.614538,-0.66958 0.376061,0 0.632883,0.27517 0.632883,0.65123 0,0.37606 -0.183444,0.73378 -0.632883,0.73378 -0.431094,0 -0.614538,-0.3302 -0.614538,-0.71543 z m 1.174044,2.45815 h 2.320571 v -4.87045 h -2.320571 l 0.07338,0.57785 h -0.05503 c -0.348544,-0.47695 -0.834672,-0.68791 -1.421694,-0.68791 -1.375833,0 -2.118783,1.33914 -2.118783,2.56822 0,1.18321 0.733778,2.52236 2.054577,2.52236 0.669573,0 1.054806,-0.29351 1.4859,-0.75212 h 0.05503 z m -1.687689,-6.26463 1.513417,1.3208 0.834672,-0.56867 -1.201561,-1.51342 z m 10.797112,1.39418 h -2.3114 v 4.87045 h 2.366433 v -2.3756 c 0,-0.28434 0,-0.68792 0.394405,-0.68792 0.403578,0 0.403578,0.40358 0.403578,0.68792 v 2.3756 h 2.366433 v -2.99932 c 0,-1.07315 -0.476956,-1.98119 -1.687689,-1.98119 -0.761294,0 -1.109838,0.35771 -1.568449,0.8897 h -0.05503 z m 6.820241,-0.11006 c -1.605139,0 -2.953455,0.89887 -2.953455,2.60491 0,1.61431 1.430866,2.48567 2.953455,2.48567 1.522588,0 2.953455,-0.87136 2.953455,-2.48567 0,-1.70604 -1.348317,-2.60491 -2.953455,-2.60491 z m 0,1.85278 c 0.394405,0 0.6604,0.32103 0.6604,0.71544 0,0.38523 -0.293511,0.66957 -0.6604,0.66957 -0.366889,0 -0.6604,-0.28434 -0.6604,-0.66957 0,-0.39441 0.265994,-0.71544 0.6604,-0.71544 z m 3.591639,-1.74272 v 2.75167 c 0,1.54093 1.339144,2.22885 2.751666,2.22885 1.412522,0 2.751666,-0.68792 2.751666,-2.22885 v -2.75167 h -2.348088 v 2.51319 c 0,0.28434 -0.01834,0.58702 -0.403578,0.58702 -0.385233,0 -0.403577,-0.30268 -0.403577,-0.58702 v -2.51319 z m 5.756278,0 2.137127,4.87045 h 2.1463 l 2.118783,-4.87045 h -2.540705 l -0.504472,1.70603 -0.119239,0.5962 h -0.06421 l -0.632883,-2.30223 z m 12.305246,2.83422 c 0.119239,-1.82527 -1.247422,-2.94428 -2.980971,-2.94428 -1.550106,0 -2.797528,1.00894 -2.797528,2.62325 0,1.67852 1.40335,2.46733 2.935111,2.46733 1.119011,0 2.430638,-0.54116 2.742494,-1.71521 h -2.302227 c -0.04586,0.22931 -0.229306,0.40358 -0.476956,0.40358 -0.4953,0 -0.559505,-0.44027 -0.559505,-0.83467 z m -3.439582,-1.00895 c 0,-0.33937 0.174272,-0.63288 0.531988,-0.63288 0.339373,0 0.57785,0.30268 0.57785,0.63288 z m 6.26074,0.58703 c 0,-0.35772 0.238478,-0.66958 0.614539,-0.66958 0.376061,0 0.632883,0.27517 0.632883,0.65123 0,0.37606 -0.183444,0.73378 -0.632883,0.73378 -0.431094,0 -0.614539,-0.3302 -0.614539,-0.71543 z m 1.174044,2.45815 h 2.320572 v -4.87045 h -2.320572 l 0.07338,0.57785 h -0.05503 c -0.348545,-0.47695 -0.834672,-0.68791 -1.421694,-0.68791 -1.375833,0 -2.118783,1.33914 -2.118783,2.56822 0,1.18321 0.733777,2.52236 2.054577,2.52236 0.669572,0 1.054805,-0.29351 1.4859,-0.75212 h 0.05503 z m 3.105498,-4.87045 v 2.75167 c 0,1.54093 1.339144,2.22885 2.751666,2.22885 1.412519,0 2.751669,-0.68792 2.751669,-2.22885 v -2.75167 h -2.348091 v 2.51319 c 0,0.28434 -0.01834,0.58702 -0.403578,0.58702 -0.385233,0 -0.403578,-0.30268 -0.403578,-0.58702 v -2.51319 z m 12.649915,-1.56845 h -2.38478 v 1.63266 l -0.57785,-0.0367 v 1.86196 l 0.57785,-0.0459 v 3.02683 h 2.38478 v -3.02683 l 0.78881,0.0459 v -1.86196 l -0.78881,0.0367 z m 3.32564,3.98075 c 0,-0.35772 0.23848,-0.66958 0.61454,-0.66958 0.37606,0 0.63288,0.27517 0.63288,0.65123 0,0.37606 -0.18344,0.73378 -0.63288,0.73378 -0.4311,0 -0.61454,-0.3302 -0.61454,-0.71543 z m 1.17404,2.45815 h 2.32058 v -4.87045 h -2.32058 l 0.0734,0.57785 h -0.055 c -0.34855,-0.47695 -0.83467,-0.68791 -1.4217,-0.68791 -1.37583,0 -2.11878,1.33914 -2.11878,2.56822 0,1.18321 0.73378,2.52236 2.05458,2.52236 0.66957,0 1.0548,-0.29351 1.4859,-0.75212 h 0.055 z m 10.61367,-4.73287 c -0.47696,-0.15592 -0.9906,-0.24764 -1.4859,-0.24764 -1.45839,0 -2.51319,1.12818 -2.51319,2.56822 0,1.63265 1.12818,2.52236 2.7058,2.52236 0.41275,0 0.8255,-0.11007 1.19239,-0.22931 l 0.1009,-1.99954 c -0.27517,0.19261 -0.55034,0.37606 -0.91723,0.37606 -0.38523,0 -0.69708,-0.31186 -0.69708,-0.69709 0,-0.44027 0.31185,-0.72461 0.74295,-0.72461 0.33937,0 0.62371,0.19262 0.87136,0.40358 z m 0.76658,4.73287 h 2.36644 v -2.51319 c 0,-0.30268 0.0825,-0.57785 0.44943,-0.57785 0.33938,0 0.37607,0.32103 0.37607,0.57785 v 2.51319 h 2.3114 v -2.99014 c 0,-1.07315 -0.4311,-1.99037 -1.64183,-1.99037 -0.67875,0 -1.12819,0.42192 -1.56845,0.94473 h -0.0367 l 0.11007,-1.34831 v -2.05458 h -2.36644 z m 8.46207,-2.45815 c 0,-0.35772 0.23848,-0.66958 0.61454,-0.66958 0.37606,0 0.63289,0.27517 0.63289,0.65123 0,0.37606 -0.18345,0.73378 -0.63289,0.73378 -0.43109,0 -0.61454,-0.3302 -0.61454,-0.71543 z m 1.17405,2.45815 h 2.32057 v -4.87045 h -2.32057 l 0.0734,0.57785 h -0.055 c -0.34854,-0.47695 -0.83467,-0.68791 -1.42169,-0.68791 -1.37583,0 -2.11878,1.33914 -2.11878,2.56822 0,1.18321 0.73377,2.52236 2.05457,2.52236 0.66958,0 1.05481,-0.29351 1.4859,-0.75212 h 0.055 z m 5.42607,-4.87045 h -2.3114 v 4.87045 h 2.36643 v -2.3756 c 0,-0.28434 0,-0.68792 0.39441,-0.68792 0.40357,0 0.40357,0.40358 0.40357,0.68792 v 2.3756 h 2.36644 v -2.99932 c 0,-1.07315 -0.47696,-1.98119 -1.68769,-1.98119 -0.7613,0 -1.10984,0.35771 -1.56845,0.8897 h -0.055 z m 7.82001,0.13758 c -0.47696,-0.15592 -0.9906,-0.24764 -1.4859,-0.24764 -1.45838,0 -2.51319,1.12818 -2.51319,2.56822 0,1.63265 1.12818,2.52236 2.7058,2.52236 0.41275,0 0.8255,-0.11007 1.19239,-0.22931 l 0.1009,-1.99954 c -0.27517,0.19261 -0.55034,0.37606 -0.91722,0.37606 -0.38524,0 -0.69709,-0.31186 -0.69709,-0.69709 0,-0.44027 0.31185,-0.72461 0.74295,-0.72461 0.33937,0 0.62371,0.19262 0.87136,0.40358 z m 6.39833,2.69664 c 0.11924,-1.82527 -1.24742,-2.94428 -2.98097,-2.94428 -1.5501,0 -2.79752,1.00894 -2.79752,2.62325 0,1.67852 1.40335,2.46733 2.93511,2.46733 1.11901,0 2.43063,-0.54116 2.74249,-1.71521 h -2.30223 c -0.0459,0.22931 -0.2293,0.40358 -0.47695,0.40358 -0.4953,0 -0.55951,-0.44027 -0.55951,-0.83467 z m -3.43958,-1.00895 c 0,-0.33937 0.17427,-0.63288 0.53199,-0.63288 0.33937,0 0.57785,0.30268 0.57785,0.63288 z"
         id="path2" />
      <path
         style="font-size:9.17222px;letter-spacing:-0.132292px"
         d="m 32.734163,177.12111 c 0.706261,0.30269 1.458383,0.54117 2.228849,0.54117 1.100667,0 2.357261,-0.52282 2.357261,-1.78859 0,-0.98142 -0.687917,-1.27494 -1.531761,-1.41252 -0.3302,-0.055 -0.587022,-0.0734 -0.587022,-0.31185 0,-0.17428 0.192617,-0.22014 0.339372,-0.22014 0.385233,0 0.788811,0.18345 1.091494,0.40358 l 0.57785,-1.34832 c -0.531988,-0.29351 -1.284111,-0.41275 -1.889477,-0.41275 -1.045633,0 -2.274711,0.48613 -2.274711,1.70604 0,0.91722 0.733778,1.23825 1.522589,1.34831 0.192616,0.0275 0.476955,0.0367 0.476955,0.30269 0,0.18344 -0.192616,0.26599 -0.348544,0.26599 -0.403578,0 -0.880533,-0.24765 -1.210733,-0.44944 l -0.146756,-0.0917 z m 5.123399,-4.43935 v 2.75167 c 0,1.54093 1.339144,2.22885 2.751666,2.22885 1.412522,0 2.751666,-0.68792 2.751666,-2.22885 v -2.75167 h -2.348088 v 2.51319 c 0,0.28434 -0.01834,0.58702 -0.403578,0.58702 -0.385233,0 -0.403578,-0.30268 -0.403578,-0.58702 v -2.51319 z m 10.278183,-0.11007 c -0.797984,-0.0183 -1.229078,0.11924 -1.651,0.7613 h -0.05503 l 0.05503,-0.65123 h -2.366433 v 4.87045 h 2.366433 v -1.87113 c 0,-0.60537 0.311855,-0.97226 0.926394,-0.97226 0.302684,0 0.476956,0.11924 0.724606,0.266 z m 6.394458,0.11007 h -2.3114 v 4.87045 h 2.366433 v -2.37561 c 0,-0.28433 0,-0.68791 0.394406,-0.68791 0.403577,0 0.403577,0.40358 0.403577,0.68791 v 2.37561 h 2.366433 v -2.99932 c 0,-1.07315 -0.476955,-1.9812 -1.687688,-1.9812 -0.761295,0 -1.109839,0.35772 -1.56845,0.88971 h -0.05503 z m 6.820243,-0.11007 c -1.605138,0 -2.953455,0.89888 -2.953455,2.60491 0,1.61431 1.430867,2.48568 2.953455,2.48568 1.522589,0 2.953455,-0.87137 2.953455,-2.48568 0,-1.70603 -1.348316,-2.60491 -2.953455,-2.60491 z m 0,1.85279 c 0.394406,0 0.6604,0.32103 0.6604,0.71544 0,0.38523 -0.293511,0.66957 -0.6604,0.66957 -0.366889,0 -0.6604,-0.28434 -0.6604,-0.66957 0,-0.39441 0.265995,-0.71544 0.6604,-0.71544 z m 3.224747,2.69663 c 0.706261,0.30269 1.458383,0.54117 2.228849,0.54117 1.100667,0 2.357261,-0.52282 2.357261,-1.78859 0,-0.98142 -0.687916,-1.27494 -1.531761,-1.41252 -0.3302,-0.055 -0.587022,-0.0734 -0.587022,-0.31185 0,-0.17428 0.192617,-0.22014 0.339372,-0.22014 0.385234,0 0.788811,0.18345 1.091495,0.40358 l 0.577849,-1.34832 c -0.531988,-0.29351 -1.28411,-0.41275 -1.889477,-0.41275 -1.045633,0 -2.274711,0.48613 -2.274711,1.70604 0,0.91722 0.733778,1.23825 1.522589,1.34831 0.192617,0.0275 0.476955,0.0367 0.476955,0.30269 0,0.18344 -0.192616,0.26599 -0.348544,0.26599 -0.403578,0 -0.880533,-0.24765 -1.210733,-0.44944 l -0.146756,-0.0917 z m 10.998915,-2.02706 c 0,-0.35771 0.238477,-0.66957 0.614538,-0.66957 0.376061,0 0.632883,0.27517 0.632883,0.65123 0,0.37606 -0.183444,0.73378 -0.632883,0.73378 -0.431094,0 -0.614538,-0.3302 -0.614538,-0.71544 z m 1.174044,2.45816 h 2.320571 v -4.87045 h -2.320571 l 0.07338,0.57785 h -0.05503 c -0.348544,-0.47696 -0.834672,-0.68792 -1.421694,-0.68792 -1.375833,0 -2.118783,1.33915 -2.118783,2.56823 0,1.18321 0.733778,2.52236 2.054577,2.52236 0.669573,0 1.054806,-0.29352 1.4859,-0.75213 h 0.05503 z m 3.105494,-4.87045 v 2.75167 c 0,1.54093 1.339144,2.22885 2.751666,2.22885 1.412522,0 2.751666,-0.68792 2.751666,-2.22885 v -2.75167 h -2.348089 v 2.51319 c 0,0.28434 -0.01834,0.58702 -0.403577,0.58702 -0.385234,0 -0.403578,-0.30268 -0.403578,-0.58702 v -2.51319 z m 8.966554,-1.56845 h -2.384777 v 1.63266 l -0.57785,-0.0367 v 1.86196 l 0.57785,-0.0459 v 3.02683 H 88.8202 v -3.02683 l 0.788811,0.0459 v -1.86196 l -0.788811,0.0367 z m 5.150915,1.45838 c -0.797983,-0.0183 -1.229078,0.11924 -1.651,0.7613 h -0.05503 l 0.05503,-0.65123 h -2.366433 v 4.87045 h 2.366433 v -1.87113 c 0,-0.60537 0.311856,-0.97226 0.926394,-0.97226 0.302684,0 0.476956,0.11924 0.724606,0.266 z m 6.031445,2.94429 c 0.11924,-1.82528 -1.247421,-2.94429 -2.980971,-2.94429 -1.550105,0 -2.797527,1.00895 -2.797527,2.62326 0,1.67851 1.403349,2.46733 2.93511,2.46733 1.119011,0 2.430639,-0.54117 2.742494,-1.71521 h -2.302227 c -0.04586,0.22931 -0.229306,0.40358 -0.476956,0.40358 -0.4953,0 -0.559505,-0.44027 -0.559505,-0.83467 z m -3.439582,-1.00895 c 0,-0.33937 0.174272,-0.63288 0.531989,-0.63288 0.339372,0 0.57785,0.30268 0.57785,0.63288 z m 3.701692,2.61408 c 0.70626,0.30269 1.45839,0.54117 2.22885,0.54117 1.10067,0 2.35726,-0.52282 2.35726,-1.78859 0,-0.98142 -0.68791,-1.27494 -1.53176,-1.41252 -0.3302,-0.055 -0.58702,-0.0734 -0.58702,-0.31185 0,-0.17428 0.19262,-0.22014 0.33937,-0.22014 0.38524,0 0.78881,0.18345 1.0915,0.40358 l 0.57785,-1.34832 c -0.53199,-0.29351 -1.28411,-0.41275 -1.88948,-0.41275 -1.04563,0 -2.27471,0.48613 -2.27471,1.70604 0,0.91722 0.73378,1.23825 1.52259,1.34831 0.19261,0.0275 0.47695,0.0367 0.47695,0.30269 0,0.18344 -0.19261,0.26599 -0.34854,0.26599 -0.40358,0 -0.88054,-0.24765 -1.21074,-0.44944 l -0.14675,-0.0917 z m 8.97186,2.43982 h 2.36643 v -6.87917 h -2.36643 z m 1.18321,-9.52077 c -0.74295,0 -1.30245,0.4311 -1.30245,1.13736 0,0.79798 0.62371,1.14652 1.30245,1.14652 0.67875,0 1.30246,-0.34854 1.30246,-1.14652 0,-0.70626 -0.55951,-1.13736 -1.30246,-1.13736 z m 7.75582,5.47582 c 0.11924,-1.82528 -1.24742,-2.94429 -2.98097,-2.94429 -1.55011,0 -2.79753,1.00895 -2.79753,2.62326 0,1.67851 1.40335,2.46733 2.93511,2.46733 1.11901,0 2.43064,-0.54117 2.7425,-1.71521 h -2.30223 c -0.0459,0.22931 -0.22931,0.40358 -0.47696,0.40358 -0.4953,0 -0.5595,-0.44027 -0.5595,-0.83467 z m -3.43958,-1.00895 c 0,-0.33937 0.17427,-0.63288 0.53199,-0.63288 0.33937,0 0.57785,0.30268 0.57785,0.63288 z m 4.06859,-1.82527 v 2.75167 c 0,1.54093 1.33914,2.22885 2.75166,2.22885 1.41252,0 2.75167,-0.68792 2.75167,-2.22885 v -2.75167 h -2.34809 v 2.51319 c 0,0.28434 -0.0183,0.58702 -0.40358,0.58702 -0.38523,0 -0.40358,-0.30268 -0.40358,-0.58702 v -2.51319 z m 6.0131,0 1.84361,2.33892 -2.0454,2.53153 h 2.85256 l 0.37606,-0.68792 0.14675,-0.38523 h 0.0459 l 0.1651,0.38523 0.38524,0.68792 h 2.77918 l -1.9812,-2.53153 1.84362,-2.33892 h -2.71498 l -0.29351,0.60537 -0.18345,0.41275 h -0.0459 l -0.15592,-0.41275 -0.30269,-0.60537 z m 13.42036,2.22885 v -4.72369 h -2.42147 v 4.72369 z m -1.21073,0.44944 c -0.66958,0 -1.36666,0.43109 -1.36666,1.16487 0,0.72461 0.69708,1.13736 1.36666,1.13736 0.66957,0 1.36666,-0.41275 1.36666,-1.13736 0,-0.73378 -0.69709,-1.16487 -1.36666,-1.16487 z"
         id="path3" />
    </g>
  </g>
</svg>
