<?xml version="1.0" encoding="UTF-8" standalone="no"?>
<!-- Created with Inkscape (http://www.inkscape.org/) -->

<svg
   width="116.44965mm"
   height="47.556747mm"
   viewBox="0 0 116.44965 47.556747"
   version="1.1"
   id="svg1"
   inkscape:version="1.3.2 (091e20e, 2023-11-25, custom)"
   sodipodi:docname="win-perdu.svg"
   xml:space="preserve"
   xmlns:inkscape="http://www.inkscape.org/namespaces/inkscape"
   xmlns:sodipodi="http://sodipodi.sourceforge.net/DTD/sodipodi-0.dtd"
   xmlns="http://www.w3.org/2000/svg"
   xmlns:svg="http://www.w3.org/2000/svg"><sodipodi:namedview
     id="namedview1"
     pagecolor="#ffffff"
     bordercolor="#000000"
     borderopacity="0.25"
     inkscape:showpageshadow="2"
     inkscape:pageopacity="0.0"
     inkscape:pagecheckerboard="0"
     inkscape:deskcolor="#d1d1d1"
     inkscape:document-units="mm"
     inkscape:zoom="0.93544337"
     inkscape:cx="202.04323"
     inkscape:cy="63.606202"
     inkscape:window-width="1366"
     inkscape:window-height="705"
     inkscape:window-x="-8"
     inkscape:window-y="-8"
     inkscape:window-maximized="1"
     inkscape:current-layer="layer1" /><defs
     id="defs1"><filter
       style="color-interpolation-filters:sRGB"
       inkscape:label="Drop Shadow"
       id="filter4"
       x="-0.042916396"
       y="-0.2379622"
       width="1.0940222"
       height="1.5213333"><feFlood
         result="flood"
         in="SourceGraphic"
         flood-opacity="1.000000"
         flood-color="rgb(255,255,255)"
         id="feFlood2" /><feGaussianBlur
         result="blur"
         in="SourceGraphic"
         stdDeviation="2.000000"
         id="feGaussianBlur2" /><feOffset
         result="offset"
         in="blur"
         dx="1.000000"
         dy="1.000000"
         id="feOffset2" /><feComposite
         result="comp1"
         operator="in"
         in="flood"
         in2="offset"
         id="feComposite3" /><feComposite
         result="comp2"
         operator="over"
         in="SourceGraphic"
         in2="comp1"
         id="feComposite4" /></filter><filter
       style="color-interpolation-filters:sRGB"
       inkscape:label="Drop Shadow"
       id="filter6"
       x="-0.015083312"
       y="-0.083867116"
       width="1.0329402"
       height="1.1831557"><feFlood
         result="flood"
         in="SourceGraphic"
         flood-opacity="1.000000"
         flood-color="rgb(255,255,255)"
         id="feFlood4" /><feGaussianBlur
         result="blur"
         in="SourceGraphic"
         stdDeviation="2.000000"
         id="feGaussianBlur4" /><feOffset
         result="offset"
         in="blur"
         dx="1.000000"
         dy="1.000000"
         id="feOffset4" /><feComposite
         result="comp1"
         operator="in"
         in="flood"
         in2="offset"
         id="feComposite5" /><feComposite
         result="comp2"
         operator="over"
         in="SourceGraphic"
         in2="comp1"
         id="feComposite6" /></filter></defs><g
     inkscape:label="Calque 1"
     inkscape:groupmode="layer"
     id="layer1"
     transform="translate(-27.523553,-134.03668)"><path
       style="font-size:34.6667px;line-height:125%;font-family:'New Super Mario Font U';-inkscape-font-specification:'New Super Mario Font U';text-align:center;letter-spacing:-0.5px;white-space:pre;fill:#4bc633;stroke:#000000;stroke-width:0.880886;stroke-linejoin:round;filter:url(#filter4)"
       d="m 234.95926,-92.643 7.38022,5.450525 q -1.52344,6.957038 -1.92969,6.957038 -0.0846,0 -4.0625,3.419274 -2.47136,-0.11849 -5.65366,-0.321615 l -0.22005,6.093756 q -0.69401,0.203125 -5.99219,0.423177 -0.64323,0 -0.64323,-3.639326 -1.16797,-15.065118 -1.16797,-16.250015 1.98047,-0.423177 12.28907,-2.132814 z m -4.58724,4.807296 v 7.0586 q 4.16407,-0.744792 4.16407,-0.863282 l 0.96484,-4.164066 q -2.04818,-0.846355 -5.12891,-2.031252 z M 246.90068,-92.643 q 16.77476,1.98047 16.77476,2.21745 l -1.62501,5.941411 q -7.92188,-2.09896 -8.51433,-2.335939 0,0.152344 -1.74349,3.842451 h 0.11849 q 3.53776,-0.220052 7.6849,-0.694011 l 0.11849,0.236979 q -0.69401,3.927087 -1.04948,5.348964 l -6.51693,-0.930991 q 0.10156,1.929689 0.10156,2.911461 v 0.592449 l 0.11849,0.236979 q 2.16667,-0.236979 8.75131,-0.710938 0.22006,1.04948 0.8125,5.247401 -0.11849,0 -0.11849,0.118489 -15.35287,-0.812501 -15.60678,-1.04948 l -2.45443,-6.990892 q 2.79297,-13.016939 3.14844,-13.981783 z m 29.68102,0 q 0.3724,0.40625 7.26172,5.315109 v 0.101562 q -1.40494,5.789068 -1.84505,6.618496 l -3.57162,2.065106 q 6.34767,4.587244 6.39845,4.773442 -2.25131,1.083334 -6.94011,3.14844 -5.4336,-7.430996 -5.4336,-7.600267 h -0.20313 q -0.11849,4.350264 -0.11849,5.975266 -0.0677,0.761719 -0.32161,0.761719 h -5.09506 q -0.35547,0 -1.08333,-9.445321 -0.33855,-2.065106 -0.98178,-9.546884 1.96355,-0.423177 11.93361,-2.166668 z m -4.67188,4.773441 v 0.101563 q 0,1.032553 0.11849,7.380215 h 0.10156 q 4.13021,-0.964844 4.13021,-1.303386 l 0.96485,-4.333338 z M 296.91896,-92.643 q 9.59766,5.450525 10.25782,5.873703 -0.57552,8.971362 -0.86328,9.733082 -5.48438,5.552088 -5.65365,5.552088 l -11.54428,0.863282 q -0.22006,-0.744792 -2.9961,-19.449236 1.625,-0.541668 10.79949,-2.572919 z m -2.77605,6.516933 v 0.118489 l 0.84636,10.03777 q 4.70573,-1.117189 4.70573,-1.388022 0,-0.40625 1.06641,-6.296881 -6.41537,-2.471356 -6.6185,-2.471356 z M 308.72496,-92.643 q 7.00782,1.472657 7.00782,1.692709 -0.45703,8.378914 -0.89714,14.337253 0.67709,0 5.07813,0.457032 1.69271,-15.014337 1.91276,-15.014337 6.21225,1.015626 6.21225,1.235678 -1.91276,16.216161 -2.14974,16.486995 -0.94792,0.778646 -3.14844,2.826825 -10.0547,-0.304688 -10.0547,-0.677084 l -4.18099,-4.858077 v -5.992193 q 0,-3.470055 0.11849,-10.376312 0.10156,0 0.10156,-0.118489 z m 35.98571,0.626302 0.0677,0.135417 q -1.69271,14.946628 -1.89583,15.708348 -3.58855,-0.338542 -4.53647,-0.473959 v -0.06771 l -1.08333,-14.151055 q 0.40625,-0.135417 7.44792,-1.151043 z m -6.70313,16.182307 q 0.11849,0.06771 5.28126,0.40625 l 0.0677,0.135417 q -0.79557,4.671879 -1.01562,4.671879 h -3.92709 q -0.20312,0 -0.54167,-4.671879 -0.0677,0 -0.0677,-0.40625 0.20312,-0.06771 0.20312,-0.135417 z"
       id="text2"
       transform="matrix(0.68113223,0,0,0.68113223,-107.65911,200.70825)"
       aria-label="PERDU !" /><path
       style="font-size:34.6667px;line-height:110%;font-family:'New Super Mario Font U';-inkscape-font-specification:'New Super Mario Font U';text-align:center;letter-spacing:-0.5px;white-space:pre;fill:#4bc633;stroke:#000000;stroke-width:1.27661;stroke-linejoin:round;filter:url(#filter6)"
       d="m 150.63561,-141.13665 q 0.3724,0.40625 7.26173,5.31511 v 0.10156 q -1.40495,5.78907 -1.84506,6.6185 l -3.57162,2.0651 q 6.34767,4.58725 6.39845,4.77344 -2.25131,1.08334 -6.94011,3.14844 -5.4336,-7.43099 -5.4336,-7.60026 h -0.20313 q -0.11849,4.35026 -0.11849,5.97526 -0.0677,0.76172 -0.32161,0.76172 h -5.09506 q -0.35547,0 -1.08333,-9.44532 -0.33855,-2.0651 -0.98177,-9.54688 1.96354,-0.42318 11.9336,-2.16667 z m -4.67188,4.77344 v 0.10156 q 0,1.03256 0.11849,7.38022 h 0.10156 q 4.13021,-0.96485 4.13021,-1.30339 l 0.96485,-4.33334 z m 23.80731,0.35547 q 7.66798,3.94401 8.49741,4.60417 -1.10026,5.14584 -1.30339,5.29818 h -10.69792 v 0.1862 l 2.99609,3.70704 4.70574,-2.40365 q 0.69401,1.20182 1.99739,4.19792 -0.60937,0.20312 -8.88672,1.30338 -6.85548,-4.51953 -6.90626,-4.70573 1.10026,-8.78516 1.30339,-8.78516 7.16016,-3.04688 8.29427,-3.40235 z m -1.10026,4.09636 q -0.13541,0.33854 -1.79427,2.69141 0,0.71093 1.9974,0.71093 0,0.10157 2.89453,0.49089 0.79558,-1.10026 0.79558,-1.28646 -0.25391,-1.50651 -1.10027,-1.50651 z m 15.69924,-9.22527 7.44792,1.32031 -0.71094,5.65365 q 2.21745,-0.11849 3.25001,-0.11849 h 1.08333 l 0.23698,-0.11849 0.11849,0.23698 q -0.35547,5.14584 -0.60937,5.78907 l -0.23698,-0.13542 q -0.25391,0 -4.57032,-0.23697 -0.23698,3.97786 -0.35547,9.51302 l -0.23698,0.11849 q -5.45053,-0.35546 -6.50001,-0.60937 l 0.11849,-0.47396 q 0,-1.47266 0.47396,-9.14063 -4.57031,-0.25391 -4.57031,-0.60938 0.23698,-5.65365 0.60937,-5.65365 l 4.45183,0.84636 v -1.45574 q 0,-1.77734 -0.13542,-4.80729 0.13542,0 0.13542,-0.11849 z m 22.28387,5.12891 q 7.66798,3.94401 8.49741,4.60417 -1.10027,5.14584 -1.30339,5.29818 h -10.69793 v 0.1862 l 2.9961,3.70704 4.70573,-2.40365 q 0.69401,1.20182 1.9974,4.19792 -0.60938,0.20312 -8.88673,1.30338 -6.85547,-4.51953 -6.90625,-4.70573 1.10026,-8.78516 1.30338,-8.78516 7.16017,-3.04688 8.29428,-3.40235 z m -1.10026,4.09636 q -0.13542,0.33854 -1.79427,2.69141 0,0.71093 1.9974,0.71093 0,0.10157 2.89453,0.49089 0.79557,-1.10026 0.79557,-1.28646 -0.2539,-1.50651 -1.10026,-1.50651 z m 25.66929,-4.11329 5.63673,3.87631 q -0.59245,9.64844 -0.82943,11.27345 -0.98177,0.11849 -5.97527,0.35547 l -0.11849,-0.23698 -0.59244,-9.03907 -0.23698,-0.11849 q -3.23308,0.69401 -4.45183,1.04948 0.33854,5.77214 0.33854,8.34506 -5.04427,1.40494 -5.51823,1.40494 -3.28386,-14.45574 -3.28386,-15.26824 7.14324,-0.93099 7.75261,-0.93099 v 0.11849 q 0.11849,0.0846 0.35547,3.52084 6.55079,-4.35027 6.92318,-4.35027 z m 11.89064,-5.11198 7.44793,1.32031 -0.71094,5.65365 q 2.21745,-0.11849 3.25,-0.11849 h 1.08334 l 0.23698,-0.11849 0.11849,0.23698 q -0.35547,5.14584 -0.60938,5.78907 l -0.23698,-0.13542 q -0.25391,0 -4.57032,-0.23697 -0.23697,3.97786 -0.35546,9.51302 l -0.23698,0.11849 q -5.45053,-0.35546 -6.50001,-0.60937 l 0.11849,-0.47396 q 0,-1.47266 0.47396,-9.14063 -4.57032,-0.25391 -4.57032,-0.60938 0.23698,-5.65365 0.60938,-5.65365 l 4.45182,0.84636 v -1.45574 q 0,-1.77734 -0.13541,-4.80729 0.13541,0 0.13541,-0.11849 z m 22.28387,5.12891 q 7.66798,3.94401 8.49741,4.60417 -1.10026,5.14584 -1.30339,5.29818 h -10.69793 v 0.1862 l 2.9961,3.70704 4.70573,-2.40365 q 0.69401,1.20182 1.9974,4.19792 -0.60937,0.20312 -8.88673,1.30338 -6.85547,-4.51953 -6.90625,-4.70573 1.10026,-8.78516 1.30338,-8.78516 7.16017,-3.04688 8.29428,-3.40235 z m -1.10026,4.09636 q -0.13542,0.33854 -1.79427,2.69141 0,0.71093 1.9974,0.71093 0,0.10157 2.89453,0.49089 0.79557,-1.10026 0.79557,-1.28646 -0.2539,-1.50651 -1.10026,-1.50651 z m 23.79821,-9.22527 7.44792,1.32031 -0.71094,5.65365 q 2.21745,-0.11849 3.25,-0.11849 h 1.08334 l 0.23698,-0.11849 0.11849,0.23698 q -0.35547,5.14584 -0.60938,5.78907 l -0.23698,-0.13542 q -0.2539,0 -4.57031,-0.23697 -0.23698,3.97786 -0.35547,9.51302 l -0.23698,0.11849 q -5.45053,-0.35546 -6.50001,-0.60937 l 0.11849,-0.47396 q 0,-1.47266 0.47396,-9.14063 -4.57032,-0.25391 -4.57032,-0.60938 0.23698,-5.65365 0.60938,-5.65365 l 4.45183,0.84636 v -1.45574 q 0,-1.77734 -0.13542,-4.80729 0.13542,0 0.13542,-0.11849 z m 15.25912,5.11198 q 10.0547,1.38803 10.0547,1.70964 3.96094,3.40235 3.96094,3.63933 -1.60808,5.02734 -1.82813,6.11068 1.60807,3.57162 1.82813,4.26563 0,0.20312 -5.2474,1.08333 -0.0677,-0.28776 -0.96485,-1.28646 -7.2448,1.38802 -7.80339,1.38802 l -2.57292,-6.95703 5.67058,-2.9961 q 1.37109,0.22005 4.28255,0.22005 0,-0.37239 0.10157,-2.2513 -0.49089,0 -8.76824,0.64323 l -0.10156,-0.22005 q 1.15104,-5.34897 1.38802,-5.34897 z m 3.52084,9.95314 q 0,0.1862 1.08333,3.96094 h 0.10156 q 2.13282,-1.38802 2.13282,-1.82813 l 0.22005,-1.8112 q -0.40625,0 -3.53776,-0.32161 z m 26.3542,-9.93621 q 7.63412,1.4388 7.98959,1.64193 v 0.20312 q -1.64193,4.63803 -1.64193,4.8073 h -0.10156 q -0.42318,0 -4.09636,-1.32031 -2.04818,3.4362 -2.04818,3.67318 l 3.38542,3.28385 q 3.92709,-3.6901 3.9948,-3.6901 3.0638,4.01172 3.0638,4.5026 -1.67578,0.96485 -5.83985,3.79167 -8.0573,-1.74349 -8.70053,-1.94661 l -2.65755,-8.59897 z m 19.30469,-5.12891 q 0.10156,0.15234 0.94792,9.27605 6.53386,-1.9974 6.95704,-1.9974 l 4.31641,2.94532 q -1.04948,9.64844 -1.3711,11.27344 l -5.99219,0.20313 q 0,-0.10156 -0.11849,-0.10156 l 0.11849,-0.42318 q 0,-1.3711 0.40625,-8.32813 -2.47136,-0.10157 -3.67318,-0.10157 h -0.42318 q 0.72787,7.73569 0.72787,8.4297 l -5.68751,0.84635 q -0.32161,-1.08333 -3.79167,-20.22788 0,-0.54167 2.64063,-0.84635 3.33464,-0.94792 4.94271,-0.94792 z m 15.88544,5.11198 q 10.0547,1.38803 10.0547,1.70964 3.96094,3.40235 3.96094,3.63933 -1.60808,5.02734 -1.82813,6.11068 1.60807,3.57162 1.82813,4.26563 0,0.20312 -5.2474,1.08333 -0.0677,-0.28776 -0.96485,-1.28646 -7.2448,1.38802 -7.80339,1.38802 l -2.57292,-6.95703 5.67058,-2.9961 q 1.37109,0.22005 4.28255,0.22005 0,-0.37239 0.10157,-2.2513 -0.49089,0 -8.76824,0.64323 l -0.10156,-0.22005 q 1.15104,-5.34897 1.38802,-5.34897 z m 3.52084,9.95314 q 0,0.1862 1.08333,3.96094 h 0.10156 q 2.13282,-1.38802 2.13282,-1.82813 l 0.22005,-1.8112 q -0.40625,0 -3.53776,-0.32161 z m 26.63413,-9.95314 5.63672,3.87631 q -0.59245,9.64844 -0.82943,11.27345 -0.98177,0.11849 -5.97526,0.35547 l -0.11849,-0.23698 -0.59245,-9.03907 -0.23698,-0.11849 q -3.23307,0.69401 -4.45183,1.04948 0.33855,5.77214 0.33855,8.34506 -5.04428,1.40494 -5.51824,1.40494 -3.28386,-14.45574 -3.28386,-15.26824 7.14324,-0.93099 7.75262,-0.93099 v 0.11849 q 0.11849,0.0846 0.35547,3.52084 6.55078,-4.35027 6.92318,-4.35027 z m 13.48177,0.0169 q 7.63412,1.4388 7.98959,1.64193 v 0.20312 q -1.64193,4.63803 -1.64193,4.8073 h -0.10156 q -0.42318,0 -4.09636,-1.32031 -2.04818,3.4362 -2.04818,3.67318 l 3.38542,3.28385 q 3.92709,-3.6901 3.9948,-3.6901 3.0638,4.01172 3.0638,4.5026 -1.67578,0.96485 -5.83984,3.79167 -8.0573,-1.74349 -8.70053,-1.94661 l -2.65756,-8.59897 z m 21.31904,0 q 7.66797,3.94401 8.4974,4.60417 -1.10026,5.14584 -1.30339,5.29818 h -10.69792 v 0.1862 l 2.99609,3.70704 4.70574,-2.40365 q 0.69401,1.20182 1.99739,4.19792 -0.60937,0.20312 -8.88672,1.30338 -6.85548,-4.51953 -6.90626,-4.70573 1.10026,-8.78516 1.30339,-8.78516 7.16016,-3.04688 8.29428,-3.40235 z m -1.10027,4.09636 q -0.13541,0.33854 -1.79427,2.69141 0,0.71093 1.9974,0.71093 0,0.10157 2.89453,0.49089 0.79558,-1.10026 0.79558,-1.28646 -0.25391,-1.50651 -1.10026,-1.50651 z m -308.58621,34.020082 q 4.875,3.114587 5.38282,3.588545 -1.76042,3.91016 -2.01433,3.91016 l -6.16146,-3.571618 h -0.22005 q 0,0.169271 -0.79558,1.895835 8.51433,4.587244 8.51433,4.705734 -2.38672,5.518234 -2.69141,5.822922 l -9.63151,0.558594 q -5.6198,-3.723962 -6.04298,-3.927087 v -0.101562 q 0,-0.423178 1.67578,-3.808598 l 7.51564,3.91016 0.55859,-2.234377 q -6.97397,-3.131513 -8.29428,-3.91016 v -0.236979 q 0,-0.64323 2.69141,-5.704432 z m 15.71616,0 0.11849,0.220053 -2.28516,12.119802 h 0.11849 l 5.82292,-1.709637 v -6.855475 q 0.0339,-0.236979 0.22006,-0.236979 6.56771,0.457032 7.3125,0.457032 0,0.118489 0.11849,0.118489 0,2.894534 -1.82812,12.001313 0,0.524741 -5.2474,0.795574 -0.27084,-0.321615 -0.45704,-1.371095 -6.72005,1.371095 -7.66797,1.371095 -5.36589,-3.994795 -5.36589,-4.113285 0.91406,-12.001313 1.15104,-12.458345 h 0.10156 q 4.28256,-0.118489 7.88803,-0.338542 z m 24.77216,0 q 3.35156,1.878908 4.11328,2.437503 -2.74219,5.704432 -2.94531,5.805995 h -0.11849 l -2.42058,-2.115888 -2.86068,3.486983 0.32162,6.347662 q -0.22005,0.203125 -5.60287,0.947917 -0.20313,-1.45573 -2.64063,-14.269544 0,-0.203125 7.07553,-1.04948 0.11849,0.135416 0.64323,3.165367 4.23177,-4.756515 4.4349,-4.756515 z m 28.09768,0 5.63672,3.876306 q -0.59245,9.648446 -0.82942,11.273448 -0.98178,0.11849 -5.97527,0.355469 l -0.11849,-0.236979 -0.59245,-9.039071 -0.23698,-0.11849 q -3.23307,0.694011 -4.45183,1.04948 0.33855,5.772141 0.33855,8.34506 -5.04428,1.404949 -5.51824,1.404949 -3.28385,-14.455742 -3.28385,-15.268243 7.14323,-0.93099 7.75261,-0.93099 v 0.118489 q 0.11849,0.08464 0.35547,3.520837 6.55078,-4.350265 6.92318,-4.350265 z m 13.65106,0.01693 q 6.4323,1.726565 6.82162,2.098961 3.53776,5.010421 3.97787,5.77214 -2.28516,7.244799 -2.6237,7.244799 -7.6172,1.777345 -7.97267,1.777345 -6.29688,-3.67318 -6.70313,-4.096358 -0.22005,-6.838548 -0.22005,-7.549486 -0.10156,-0.203125 -0.10156,-0.304688 6.5,-4.942713 6.72006,-4.942713 z m -0.32162,6.195319 q -0.10156,0.677084 -0.30468,4.925785 l 3.77474,0.846355 q 1.35417,-4.231774 1.35417,-4.519535 -4.50261,-1.354168 -4.82423,-1.354168 z m 25.82164,-6.212246 q 4.875,3.114587 5.38281,3.588545 -1.76042,3.91016 -2.01432,3.91016 l -6.16147,-3.571618 h -0.22005 q 0,0.169271 -0.79557,1.895835 8.51433,4.587244 8.51433,4.705734 -2.38672,5.518234 -2.69141,5.822922 l -9.63152,0.558594 q -5.6198,-3.723962 -6.04297,-3.927087 v -0.101562 q 0,-0.423178 1.67578,-3.808598 l 7.51563,3.91016 0.5586,-2.234377 q -6.97397,-3.131513 -8.29428,-3.91016 v -0.236979 q 0,-0.64323 2.69141,-5.704432 z m 17.24742,0 q 10.05469,1.388022 10.05469,1.709637 3.96094,3.402347 3.96094,3.639327 -1.60807,5.027348 -1.82812,6.110682 1.60807,3.571618 1.82812,4.265629 0,0.203125 -5.2474,1.083335 -0.0677,-0.287761 -0.96484,-1.28646 -7.2448,1.388022 -7.80339,1.388022 l -2.57292,-6.957038 5.67058,-2.996096 q 1.37109,0.220052 4.28255,0.220052 0,-0.372396 0.10156,-2.251304 -0.49088,0 -8.76823,0.64323 l -0.10157,-0.220052 q 1.15105,-5.348964 1.38803,-5.348964 z m 3.52083,9.953134 q 0,0.186199 1.08334,3.960942 h 0.10156 q 2.13281,-1.388022 2.13281,-1.828127 l 0.22006,-1.8112 q -0.40625,0 -3.53777,-0.321615 z m 20.74351,-9.953134 0.11849,0.220053 -2.28516,12.119802 h 0.11849 l 5.82292,-1.709637 v -6.855475 q 0.0338,-0.236979 0.22005,-0.236979 6.56772,0.457032 7.31251,0.457032 0,0.118489 0.11849,0.118489 0,2.894534 -1.82813,12.001313 0,0.524741 -5.2474,0.795574 -0.27083,-0.321615 -0.45703,-1.371095 -6.72006,1.371095 -7.66798,1.371095 -5.36589,-3.994795 -5.36589,-4.113285 0.91407,-12.001313 1.15105,-12.458345 h 0.10156 q 4.28255,-0.118489 7.88803,-0.338542 z m 17.6797,-5.111985 7.44793,1.32031 -0.71094,5.653656 q 2.21745,-0.118489 3.25,-0.118489 h 1.08334 l 0.23698,-0.11849 0.11849,0.236979 q -0.35547,5.145838 -0.60938,5.789068 l -0.23698,-0.135417 q -0.2539,0 -4.57031,-0.236979 -0.23698,3.977868 -0.35547,9.513029 l -0.23698,0.11849 q -5.45053,-0.355469 -6.50001,-0.609375 l 0.11849,-0.473959 q 0,-1.472658 0.47396,-9.140634 -4.57032,-0.253906 -4.57032,-0.609375 0.23698,-5.653651 0.60938,-5.653651 l 4.45182,0.846355 v -1.455731 q 0,-1.777345 -0.13541,-4.807297 0.13541,0 0.13541,-0.11849 z m 24.83987,5.111985 q 3.35156,1.878908 4.11328,2.437503 -2.74219,5.704432 -2.94531,5.805995 h -0.11849 l -2.42058,-2.115888 -2.86068,3.486983 0.32162,6.347662 q -0.22006,0.203125 -5.60287,0.947917 -0.20313,-1.45573 -2.64063,-14.269544 0,-0.203125 7.07553,-1.04948 0.11849,0.135416 0.64323,3.165367 4.23177,-4.756515 4.4349,-4.756515 z m 14.56511,0.01693 q 7.66798,3.944015 8.49741,4.604171 -1.10027,5.145838 -1.30339,5.298182 h -10.69793 v 0.186198 l 2.9961,3.707035 4.70573,-2.403648 q 0.69401,1.201824 1.9974,4.197921 -0.60937,0.203125 -8.88673,1.303386 -6.85547,-4.519535 -6.90625,-4.705733 1.10026,-8.785165 1.30338,-8.785165 7.16017,-3.046877 8.29428,-3.402347 z m -1.10026,4.096358 q -0.13542,0.338542 -1.79427,2.691409 0,0.710938 1.9974,0.710938 0,0.101563 2.89453,0.490886 0.79557,-1.100261 0.79557,-1.286459 -0.2539,-1.506512 -1.10026,-1.506512 z m 24.2982,-4.113285 q 4.87501,3.114587 5.38282,3.588545 -1.76042,3.91016 -2.01432,3.91016 l -6.16147,-3.571618 h -0.22005 q 0,0.169271 -0.79557,1.895835 8.51433,4.587244 8.51433,4.705734 -2.38672,5.518234 -2.69141,5.822922 l -9.63152,0.558594 q -5.6198,-3.723962 -6.04298,-3.927087 v -0.101562 q 0,-0.423178 1.67579,-3.808598 l 7.51563,3.91016 0.55859,-2.234377 q -6.97396,-3.131513 -8.29428,-3.91016 v -0.236979 q 0,-0.64323 2.69141,-5.704432 z m 32.22789,-7.075518 6.66928,1.04948 q -1.25261,4.807287 -1.64193,4.807287 -5.26433,-0.355469 -5.26433,-0.710938 v -4.908859 q 0.0339,-0.23697 0.23698,-0.23697 z m -1.87891,7.143227 8.07423,2.09896 q -2.45443,14.218763 -2.69141,15.098972 -0.52474,0.473959 -8.64975,4.333338 -6.46615,-3.046878 -7.95573,-3.859379 -1.64193,-6.263027 -1.87891,-6.906256 0.23698,-0.23698 6.66928,-1.878908 0,0.118489 0.11849,0.118489 -0.11849,0.23698 -0.11849,0.355469 0,0.795574 -0.47396,5.501308 5.67058,-0.710939 6.78776,-0.930991 v -3.046878 q 0,-0.270833 -0.10156,-0.473958 l 0.10156,-0.23698 q -0.10156,-0.203125 -0.10156,-0.457031 h 0.10156 l -0.10156,-0.23698 v -0.11849 q 0,-0.118489 0.10156,-0.118489 l -0.10156,-0.23698 v -0.118489 q 0,-0.11849 0.10156,-0.11849 l -0.10156,-0.220052 v -8.311206 q 0.0339,-0.236979 0.22005,-0.236979 z m 19.49092,-0.05078 q 7.66798,3.944015 8.49741,4.604171 -1.10026,5.145838 -1.30339,5.298182 h -10.69793 v 0.186198 l 2.9961,3.707035 4.70573,-2.403648 q 0.69402,1.201824 1.9974,4.197921 -0.60937,0.203125 -8.88672,1.303386 -6.85548,-4.519535 -6.90626,-4.705733 1.10026,-8.785165 1.30339,-8.785165 7.16016,-3.046877 8.29427,-3.402347 z m -1.10026,4.096358 q -0.13541,0.338542 -1.79427,2.691409 0,0.710938 1.9974,0.710938 0,0.101563 2.89453,0.490886 0.79558,-1.100261 0.79558,-1.286459 -0.25391,-1.506512 -1.10027,-1.506512 z m 19.77867,-4.113285 0.11849,0.220053 -2.28516,12.119802 h 0.11849 l 5.82292,-1.709637 v -6.855475 q 0.0339,-0.236979 0.22005,-0.236979 6.56772,0.457032 7.31251,0.457032 0,0.118489 0.11849,0.118489 0,2.894534 -1.82813,12.001313 0,0.524741 -5.2474,0.795574 -0.27083,-0.321615 -0.45703,-1.371095 -6.72006,1.371095 -7.66797,1.371095 -5.36589,-3.994795 -5.36589,-4.113285 0.91406,-12.001313 1.15104,-12.458345 h 0.10156 q 4.28256,-0.118489 7.88803,-0.338542 z m 24.65366,0 h 0.0677 q 4.51953,2.657555 4.875,2.776045 v 0.152343 q -1.16797,1.337241 -4.29948,4.638026 6.14453,2.285158 6.90625,2.759117 l -3.82552,4.72266 q -3.87631,-3.317711 -4.94271,-4.147139 -2.6237,5.111984 -3.26693,6.00912 h -0.0677 q -4.85808,-1.709637 -5.28126,-2.031252 v -0.08464 l 4.46876,-5.839849 q -6.22917,-2.572919 -6.66928,-3.013024 2.74219,-4.654952 3.08073,-4.95964 0.0508,0.11849 6.02605,4.147139 2.11589,-3.91016 2.92839,-5.128911 z m 24.11982,-4.48568 0.0677,0.13542 q -1.69271,14.946624 -1.89583,15.708344 -3.58855,-0.338542 -4.53646,-0.473959 v -0.06771 l -1.08334,-14.151055 q 0.40625,-0.13541 7.44793,-1.15104 z m -6.70313,16.182306 q 0.11848,0.06771 5.28125,0.40625 l 0.0677,0.135417 q -0.79558,4.671879 -1.01563,4.671879 h -3.92708 q -0.20313,0 -0.54167,-4.671879 -0.0677,0 -0.0677,-0.406251 0.20313,-0.06771 0.20313,-0.135416 z"
       id="text15-6"
       transform="matrix(0.31267716,0,0,0.31398295,-5.1795057,203.52641)"
       aria-label="Retente ta chance&#10;sur nos autres jeux !" /></g></svg>
