<?xml version="1.0" encoding="UTF-8" standalone="no"?>
<!-- Created with Inkscape (http://www.inkscape.org/) -->

<svg
   width="150mm"
   height="60mm"
   viewBox="0 0 150 60"
   version="1.1"
   id="svg1"
   inkscape:version="1.3.2 (091e20e, 2023-11-25, custom)"
   sodipodi:docname="win-cafe.svg"
   xmlns:inkscape="http://www.inkscape.org/namespaces/inkscape"
   xmlns:sodipodi="http://sodipodi.sourceforge.net/DTD/sodipodi-0.dtd"
   xmlns:xlink="http://www.w3.org/1999/xlink"
   xmlns="http://www.w3.org/2000/svg"
   xmlns:svg="http://www.w3.org/2000/svg">
  <sodipodi:namedview
     id="namedview1"
     pagecolor="#ffffff"
     bordercolor="#000000"
     borderopacity="0.25"
     inkscape:showpageshadow="2"
     inkscape:pageopacity="0.0"
     inkscape:pagecheckerboard="0"
     inkscape:deskcolor="#d1d1d1"
     inkscape:document-units="mm"
     inkscape:zoom="1.285875"
     inkscape:cx="283.85341"
     inkscape:cy="113.15252"
     inkscape:window-width="1366"
     inkscape:window-height="705"
     inkscape:window-x="-8"
     inkscape:window-y="-8"
     inkscape:window-maximized="1"
     inkscape:current-layer="layer1" />
  <defs
     id="defs1">
    <linearGradient
       inkscape:collect="always"
       id="linearGradient3638">
      <stop
         style="stop-color:#bf953f;stop-opacity:1;"
         offset="0"
         id="stop3634" />
      <stop
         style="stop-color:#faef84;stop-opacity:1;"
         offset="0.25"
         id="stop3642" />
      <stop
         style="stop-color:#b38728;stop-opacity:1;"
         offset="0.5"
         id="stop3644" />
      <stop
         style="stop-color:#fff699;stop-opacity:1;"
         offset="0.755"
         id="stop8004" />
      <stop
         style="stop-color:#ab781c;stop-opacity:1;"
         offset="1"
         id="stop3636" />
    </linearGradient>
    <linearGradient
       inkscape:collect="always"
       xlink:href="#linearGradient3638"
       id="linearGradient2"
       x1="22.144989"
       y1="86.480164"
       x2="82.082001"
       y2="97.542664"
       gradientUnits="userSpaceOnUse"
       gradientTransform="matrix(2.4525743,0,0,2.576271,-41.944504,-64.753675)" />
  </defs>
  <g
     inkscape:label="Calque 1"
     inkscape:groupmode="layer"
     id="layer1"
     transform="translate(-10.867731,-128.04266)">
    <rect
       style="fill:url(#linearGradient2);stroke:#000000;stroke-width:3;stroke-dasharray:none;stroke-opacity:1"
       id="rect1"
       width="147"
       height="57"
       x="12.367731"
       y="129.54266"
       rx="9.999999"
       ry="10" />
    <g
       id="text1"
       style="font-size:10.5833px;line-height:125%;font-family:'Futura Extra';-inkscape-font-specification:'Futura Extra';text-align:center;text-anchor:middle;stroke-width:4"
       aria-label="GAGNÉ !&#10;Tu remportes :&#10;un bon pour un café/thé">
      <path
         style="font-size:17.6389px"
         d="m 49.692078,144.59942 v 3.13972 h 2.187224 c -0.229306,0.81139 -1.199445,1.16417 -1.957918,1.16417 -1.569862,0 -2.487085,-1.37583 -2.487085,-2.83986 0,-1.60514 0.952501,-3.08681 2.681113,-3.08681 0.776112,0 1.464029,0.35278 1.834446,1.02306 l 4.515558,-1.65806 c -1.040695,-2.27542 -4.215697,-3.42195 -6.526393,-3.42195 -4.18042,0 -7.373061,2.61056 -7.373061,6.94973 0,4.26861 3.280836,6.77334 7.337783,6.77334 2.063751,0 4.233336,-0.82903 5.644448,-2.36361 1.569862,-1.69334 1.569862,-3.51015 1.60514,-5.67973 z m 13.423216,6.17361 h 3.651253 l 0.440972,1.65806 h 5.115282 l -4.744865,-13.29973 h -5.344587 l -4.621392,13.29973 h 5.115282 z m 0.864307,-3.15736 0.881945,-4.05695 h 0.176389 c 0.08819,0.56445 0.176389,1.14653 0.3175,1.71098 l 0.564445,2.34597 z m 15.945565,-3.01625 v 3.13972 h 2.187223 c -0.229305,0.81139 -1.199445,1.16417 -1.957917,1.16417 -1.569863,0 -2.487086,-1.37583 -2.487086,-2.83986 0,-1.60514 0.952501,-3.08681 2.681113,-3.08681 0.776112,0 1.464029,0.35278 1.834446,1.02306 l 4.515559,-1.65806 c -1.040695,-2.27542 -4.215698,-3.42195 -6.526394,-3.42195 -4.180419,0 -7.37306,2.61056 -7.37306,6.94973 0,4.26861 3.280835,6.77334 7.337783,6.77334 2.063751,0 4.233336,-0.82903 5.644448,-2.36361 1.569862,-1.69334 1.569862,-3.51015 1.60514,-5.67973 z m 9.048768,7.83167 h 4.621392 v -4.32153 c 0,-0.88194 -0.141112,-1.74625 -0.299862,-2.66347 h 0.141112 l 4.250975,6.985 h 4.621389 v -13.29973 h -4.621389 v 3.98639 c 0,1.12889 0.211666,2.27542 0.405694,3.38667 h -0.141111 l -4.339169,-7.37306 h -4.639031 z m 15.381116,0 h 9.08404 v -3.63361 h -4.2157 v -1.30528 h 3.72181 v -3.45723 h -3.72181 v -1.27 h 4.07459 v -3.63361 h -8.94293 z m 4.5332,-17.44487 -2.3107,2.91042 1.60514,1.09361 2.91042,-2.54 z m 18.87015,12.36487 v -9.08404 h -4.65667 v 9.08404 z m -2.32834,0.8643 c -1.28764,0 -2.62819,0.82903 -2.62819,2.24014 0,1.39348 1.34055,2.18723 2.62819,2.18723 1.28764,0 2.6282,-0.79375 2.6282,-2.18723 0,-1.41111 -1.34056,-2.24014 -2.6282,-2.24014 z"
         id="path1" />
      <path
         d="m 41.670081,160.27332 1.598078,-0.0741 v 5.46099 h 2.899824 v -5.46099 l 1.598079,0.0741 v -2.59291 h -6.095981 z m 6.508732,-0.23284 v 3.17499 c 0,1.778 1.545162,2.57175 3.17499,2.57175 1.629828,0 3.17499,-0.79375 3.17499,-2.57175 v -3.17499 h -2.709325 v 2.89983 c 0,0.32808 -0.02117,0.67733 -0.465665,0.67733 -0.444499,0 -0.465665,-0.34925 -0.465665,-0.67733 v -2.89983 z m 16.414706,-0.127 c -0.920747,-0.0212 -1.418162,0.13759 -1.904994,0.87842 h -0.0635 l 0.0635,-0.75142 h -2.730491 v 5.61974 h 2.730491 v -2.159 c 0,-0.6985 0.359832,-1.12183 1.068913,-1.12183 0.349249,0 0.550332,0.13759 0.836081,0.30692 z m 7.111987,3.39724 c 0.137583,-2.10607 -1.439329,-3.39724 -3.439572,-3.39724 -1.788578,0 -3.227907,1.16417 -3.227907,3.02683 0,1.93674 1.619245,2.84691 3.386656,2.84691 1.291163,0 2.804574,-0.62442 3.164407,-1.97908 h -2.656409 c -0.05292,0.26458 -0.264582,0.46566 -0.550331,0.46566 -0.571498,0 -0.645581,-0.50799 -0.645581,-0.96308 z m -3.968737,-1.16416 c 0,-0.39158 0.201082,-0.73025 0.613831,-0.73025 0.391582,0 0.666748,0.34925 0.666748,0.73025 z m 7.503558,-2.10608 h -2.582325 v 5.61974 h 2.645825 v -2.78341 c 0,-0.32808 0,-0.75142 0.391582,-0.75142 0.402165,0 0.402165,0.42334 0.402165,0.75142 v 2.78341 h 2.645825 v -2.78341 c 0,-0.32808 0,-0.75142 0.391582,-0.75142 0.402166,0 0.402166,0.42334 0.402166,0.75142 v 2.78341 h 2.645825 v -3.49249 c 0,-1.21708 -0.592665,-2.25425 -1.936744,-2.25425 -0.867831,0 -1.386412,0.41275 -1.703911,1.19592 h -0.0635 c -0.243416,-0.762 -0.804331,-1.19592 -1.608662,-1.19592 -0.719664,0 -1.407579,0.43392 -1.629828,1.12183 h -0.08467 z m 11.366461,2.01083 c 0.412748,0 0.709081,0.381 0.709081,0.77258 0,0.381 -0.285749,0.8255 -0.709081,0.8255 -0.455082,0 -0.698498,-0.381 -0.698498,-0.80433 0,-0.41275 0.243416,-0.79375 0.698498,-0.79375 z m -0.698498,-2.01083 h -2.603492 v 7.93748 h 2.730492 v -2.19074 l -0.127,-0.89959 h 0.07408 c 0.306916,0.55034 1.047747,0.89959 1.661578,0.89959 1.534579,0 2.360076,-1.66158 2.360076,-2.9845 0,-1.40757 -0.761998,-2.88924 -2.338909,-2.88924 -0.709081,0 -1.449912,0.37042 -1.756828,1.016 h -0.08467 z m 8.212638,-0.127 c -1.852077,0 -3.407822,1.03717 -3.407822,3.00566 0,1.86266 1.650995,2.86808 3.407822,2.86808 1.756828,0 3.407823,-1.00542 3.407823,-2.86808 0,-1.96849 -1.555745,-3.00566 -3.407823,-3.00566 z m 0,2.13783 c 0.455082,0 0.761998,0.37042 0.761998,0.8255 0,0.4445 -0.338666,0.77258 -0.761998,0.77258 -0.423332,0 -0.761997,-0.32808 -0.761997,-0.77258 0,-0.45508 0.306916,-0.8255 0.761997,-0.8255 z m 8.932312,-2.13783 c -0.92075,-0.0212 -1.41816,0.13759 -1.905,0.87842 h -0.0635 l 0.0635,-0.75142 h -2.730487 v 5.61974 h 2.730487 v -2.159 c 0,-0.6985 0.35984,-1.12183 1.06892,-1.12183 0.34925,0 0.55033,0.13759 0.83608,0.30692 z m 4.14867,-1.68274 h -2.75166 v 1.88383 l -0.66674,-0.0423 v 2.14841 l 0.66674,-0.0529 v 3.49249 h 2.75166 v -3.49249 l 0.91017,0.0529 v -2.14841 l -0.91017,0.0423 z m 7.96923,5.07998 c 0.13758,-2.10607 -1.43933,-3.39724 -3.43957,-3.39724 -1.78858,0 -3.22791,1.16417 -3.22791,3.02683 0,1.93674 1.61925,2.84691 3.38666,2.84691 1.29116,0 2.80457,-0.62442 3.1644,-1.97908 h -2.6564 c -0.0529,0.26458 -0.26459,0.46566 -0.55033,0.46566 -0.5715,0 -0.64559,-0.50799 -0.64559,-0.96308 z m -3.96874,-1.16416 c 0,-0.39158 0.20109,-0.73025 0.61384,-0.73025 0.39158,0 0.66674,0.34925 0.66674,0.73025 z m 4.42383,3.01624 c 0.81491,0.34925 1.68274,0.62442 2.57174,0.62442 1.26999,0 2.71991,-0.60325 2.71991,-2.06375 0,-1.13241 -0.79375,-1.47108 -1.76742,-1.62983 -0.38099,-0.0635 -0.67733,-0.0847 -0.67733,-0.35983 0,-0.20108 0.22225,-0.254 0.39159,-0.254 0.44449,0 0.91016,0.21167 1.25941,0.46567 l 0.66675,-1.55575 c -0.61384,-0.33866 -1.48167,-0.47625 -2.18016,-0.47625 -1.2065,0 -2.62466,0.56092 -2.62466,1.9685 0,1.05833 0.84666,1.42874 1.75683,1.55574 0.22225,0.0317 0.55033,0.0423 0.55033,0.34925 0,0.21167 -0.22225,0.30692 -0.40217,0.30692 -0.46566,0 -1.01599,-0.28575 -1.39699,-0.51858 l -0.16934,-0.10584 z m 12.14964,-2.03199 c -0.77258,0 -1.57692,0.49741 -1.57692,1.34408 0,0.83608 0.80434,1.31233 1.57692,1.31233 0.77258,0 1.57691,-0.47625 1.57691,-1.31233 0,-0.84667 -0.80433,-1.34408 -1.57691,-1.34408 z m 0,-3.21733 c -0.77258,0 -1.57692,0.49742 -1.57692,1.34408 0,0.83608 0.80434,1.31233 1.57692,1.31233 0.77258,0 1.57691,-0.47625 1.57691,-1.31233 0,-0.84666 -0.80433,-1.34408 -1.57691,-1.34408 z"
         id="path2" />
      <path
         style="font-size:9.525px;letter-spacing:0px"
         d="m 18.881404,173.83157 v 2.8575 c 0,1.6002 1.39065,2.31457 2.8575,2.31457 1.46685,0 2.8575,-0.71437 2.8575,-2.31457 v -2.8575 h -2.4384 v 2.60985 c 0,0.29527 -0.01905,0.6096 -0.4191,0.6096 -0.40005,0 -0.4191,-0.31433 -0.4191,-0.6096 v -2.60985 z m 9.048754,0 h -2.400299 v 5.05777 h 2.457449 v -2.46697 c 0,-0.29528 0,-0.71438 0.409575,-0.71438 0.4191,0 0.4191,0.4191 0.4191,0.71438 v 2.46697 h 2.45745 v -3.11467 c 0,-1.11443 -0.4953,-2.0574 -1.7526,-2.0574 -0.790575,0 -1.152525,0.37147 -1.628775,0.92392 h -0.05715 z m 11.258546,1.80975 c 0.371475,0 0.638175,0.3429 0.638175,0.69532 0,0.3429 -0.257175,0.74295 -0.638175,0.74295 -0.409575,0 -0.62865,-0.3429 -0.62865,-0.7239 0,-0.37147 0.219075,-0.71437 0.62865,-0.71437 z m -3.000375,3.24802 h 2.30505 l -0.04762,-0.75247 h 0.05715 c 0.409575,0.51435 0.9906,0.86677 1.647825,0.86677 1.3716,0 2.095499,-1.39065 2.095499,-2.60032 0,-1.2573 -0.676274,-2.68605 -2.105024,-2.68605 -0.5715,0 -1.1811,0.32385 -1.524,0.79057 h -0.08573 l 0.1143,-1.20967 v -2.1336 h -2.45745 z m 9.782167,-5.17207 c -1.666875,0 -3.06705,0.93345 -3.06705,2.7051 0,1.6764 1.4859,2.58127 3.06705,2.58127 1.58115,0 3.06705,-0.90487 3.06705,-2.58127 0,-1.77165 -1.400175,-2.7051 -3.06705,-2.7051 z m 0,1.92405 c 0.409575,0 0.6858,0.33337 0.6858,0.74295 0,0.40005 -0.3048,0.69532 -0.6858,0.69532 -0.381,0 -0.6858,-0.29527 -0.6858,-0.69532 0,-0.40958 0.276225,-0.74295 0.6858,-0.74295 z m 6.276982,-1.80975 h -2.4003 v 5.05777 h 2.45745 v -2.46697 c 0,-0.29528 0,-0.71438 0.409575,-0.71438 0.4191,0 0.4191,0.4191 0.4191,0.71438 v 2.46697 h 2.45745 v -3.11467 c 0,-1.11443 -0.4953,-2.0574 -1.7526,-2.0574 -0.790575,0 -1.152525,0.37147 -1.628775,0.92392 h -0.05715 z m 11.239495,1.80975 c 0.371475,0 0.638175,0.3429 0.638175,0.69532 0,0.3429 -0.257175,0.74295 -0.638175,0.74295 -0.409575,0 -0.62865,-0.3429 -0.62865,-0.7239 0,-0.37147 0.219075,-0.71437 0.62865,-0.71437 z m -0.62865,-1.80975 h -2.343149 v 7.14375 h 2.457449 v -1.97168 l -0.1143,-0.80962 h 0.06668 c 0.276225,0.4953 0.942975,0.80962 1.495425,0.80962 1.381125,0 2.124075,-1.49542 2.124075,-2.68605 0,-1.26682 -0.6858,-2.60032 -2.105025,-2.60032 -0.638175,0 -1.304925,0.33337 -1.58115,0.9144 h -0.0762 z m 7.391397,-0.1143 c -1.666875,0 -3.06705,0.93345 -3.06705,2.7051 0,1.6764 1.4859,2.58127 3.06705,2.58127 1.58115,0 3.06705,-0.90487 3.06705,-2.58127 0,-1.77165 -1.400175,-2.7051 -3.06705,-2.7051 z m 0,1.92405 c 0.409575,0 0.6858,0.33337 0.6858,0.74295 0,0.40005 -0.3048,0.69532 -0.6858,0.69532 -0.381,0 -0.6858,-0.29527 -0.6858,-0.69532 0,-0.40958 0.276225,-0.74295 0.6858,-0.74295 z m 3.867154,-1.80975 v 2.8575 c 0,1.6002 1.39065,2.31457 2.8575,2.31457 1.46685,0 2.8575,-0.71437 2.8575,-2.31457 v -2.8575 h -2.4384 v 2.60985 c 0,0.29527 -0.01905,0.6096 -0.4191,0.6096 -0.40005,0 -0.4191,-0.31433 -0.4191,-0.6096 v -2.60985 z m 10.810881,-0.1143 c -0.828675,-0.0191 -1.27635,0.12382 -1.7145,0.79057 h -0.05715 l 0.05715,-0.67627 h -2.45745 v 5.05777 h 2.45745 v -1.9431 c 0,-0.62865 0.32385,-1.00965 0.962025,-1.00965 0.314325,0 0.4953,0.12383 0.752475,0.27623 z m 4.505338,0.1143 v 2.8575 c 0,1.6002 1.39065,2.31457 2.8575,2.31457 1.46685,0 2.8575,-0.71437 2.8575,-2.31457 v -2.8575 h -2.4384 v 2.60985 c 0,0.29527 -0.01905,0.6096 -0.4191,0.6096 -0.40005,0 -0.4191,-0.31433 -0.4191,-0.6096 v -2.60985 z m 9.048749,0 h -2.4003 v 5.05777 h 2.45745 v -2.46697 c 0,-0.29528 0,-0.71438 0.409575,-0.71438 0.4191,0 0.4191,0.4191 0.4191,0.71438 v 2.46697 h 2.457453 v -3.11467 c 0,-1.11443 -0.4953,-2.0574 -1.7526,-2.0574 -0.790578,0 -1.152528,0.37147 -1.628778,0.92392 h -0.05715 z m 12.220568,0.14287 c -0.4953,-0.16192 -1.0287,-0.25717 -1.54305,-0.25717 -1.51447,0 -2.60985,1.17157 -2.60985,2.667 0,1.69545 1.17158,2.61937 2.80988,2.61937 0.42862,0 0.85725,-0.1143 1.23825,-0.23812 l 0.10477,-2.07645 c -0.28575,0.20002 -0.5715,0.39052 -0.9525,0.39052 -0.40005,0 -0.7239,-0.32385 -0.7239,-0.7239 0,-0.4572 0.32385,-0.75247 0.77153,-0.75247 0.35242,0 0.6477,0.20002 0.90487,0.4191 z m 3.2004,2.3622 c 0,-0.37147 0.24765,-0.69532 0.63818,-0.69532 0.39052,0 0.65722,0.28575 0.65722,0.67627 0,0.39053 -0.1905,0.762 -0.65722,0.762 -0.44768,0 -0.63818,-0.3429 -0.63818,-0.74295 z m 1.2192,2.5527 h 2.40983 v -5.05777 h -2.40983 l 0.0762,0.60007 h -0.0572 c -0.36195,-0.4953 -0.86677,-0.71437 -1.47637,-0.71437 -1.42875,0 -2.20028,1.39065 -2.20028,2.667 0,1.22872 0.762,2.61937 2.1336,2.61937 0.69533,0 1.09538,-0.3048 1.54305,-0.78105 h 0.0572 z m 3.60997,-4.97205 -0.66675,-0.0857 v 1.97167 l 0.66675,-0.0667 v 3.15277 h 2.45745 v -3.15277 l 0.79058,0.0667 v -1.97167 l -0.82868,0.10477 v -0.1905 c 0,-0.33337 0.0952,-0.67627 0.51435,-0.67627 0.1143,0 0.20955,0.0381 0.33338,0.0857 v -1.95262 c -0.36195,-0.0572 -0.71438,-0.1143 -1.07633,-0.1143 -1.524,0 -2.19075,0.81915 -2.19075,2.29552 z m 9.70598,2.8575 c 0.12382,-1.89547 -1.2954,-3.05752 -3.09563,-3.05752 -1.60972,0 -2.90512,1.04775 -2.90512,2.72415 0,1.74307 1.45732,2.56222 3.048,2.56222 1.16205,0 2.52412,-0.56197 2.84797,-1.78117 h -2.39077 c -0.0476,0.23812 -0.23813,0.4191 -0.4953,0.4191 -0.51435,0 -0.58103,-0.4572 -0.58103,-0.86678 z m -3.57188,-1.04775 c 0,-0.35242 0.18098,-0.65722 0.55245,-0.65722 0.35243,0 0.60008,0.31432 0.60008,0.65722 z m 0.60008,-4.13385 -1.24778,1.57163 0.86678,0.59055 1.57162,-1.3716 z m 4.88632,8.7249 5.17208,-9.15352 h -1.4097 l -5.1816,9.15352 z m 8.62013,-8.1153 h -2.4765 v 1.69545 l -0.60007,-0.0381 v 1.93358 l 0.60007,-0.0476 v 3.14325 h 2.4765 v -3.14325 l 0.81915,0.0476 v -1.93358 l -0.81915,0.0381 z m 1.32398,6.68655 h 2.45745 v -2.60985 c 0,-0.31432 0.0857,-0.60007 0.46673,-0.60007 0.35242,0 0.39052,0.33337 0.39052,0.60007 v 2.60985 h 2.4003 v -3.10515 c 0,-1.11442 -0.44767,-2.06692 -1.70497,-2.06692 -0.70485,0 -1.17158,0.43815 -1.62878,0.98107 h -0.0381 l 0.1143,-1.40017 v -2.1336 h -2.45745 z m 12.50632,-2.11455 c 0.12382,-1.89547 -1.2954,-3.05752 -3.09563,-3.05752 -1.60972,0 -2.90512,1.04775 -2.90512,2.72415 0,1.74307 1.45732,2.56222 3.048,2.56222 1.16205,0 2.52412,-0.56197 2.84797,-1.78117 h -2.39077 c -0.0476,0.23812 -0.23813,0.4191 -0.4953,0.4191 -0.51435,0 -0.58103,-0.4572 -0.58103,-0.86678 z m -3.57188,-1.04775 c 0,-0.35242 0.18098,-0.65722 0.55245,-0.65722 0.35243,0 0.60008,0.31432 0.60008,0.65722 z m 0.60008,-4.13385 -1.24778,1.57163 0.86678,0.59055 1.57162,-1.3716 z"
         id="path3" />
    </g>
  </g>
</svg>
