<?xml version="1.0" encoding="UTF-8" standalone="no"?>
<!-- Created with Inkscape (http://www.inkscape.org/) -->

<svg
   width="150mm"
   height="60mm"
   viewBox="0 0 150 60"
   version="1.1"
   id="svg1"
   inkscape:version="1.3.2 (091e20e, 2023-11-25, custom)"
   sodipodi:docname="win-volant.svg"
   xmlns:inkscape="http://www.inkscape.org/namespaces/inkscape"
   xmlns:sodipodi="http://sodipodi.sourceforge.net/DTD/sodipodi-0.dtd"
   xmlns:xlink="http://www.w3.org/1999/xlink"
   xmlns="http://www.w3.org/2000/svg"
   xmlns:svg="http://www.w3.org/2000/svg">
  <sodipodi:namedview
     id="namedview1"
     pagecolor="#ffffff"
     bordercolor="#000000"
     borderopacity="0.25"
     inkscape:showpageshadow="2"
     inkscape:pageopacity="0.0"
     inkscape:pagecheckerboard="0"
     inkscape:deskcolor="#d1d1d1"
     inkscape:document-units="mm"
     inkscape:zoom="0.98777778"
     inkscape:cx="283.46457"
     inkscape:cy="112.87964"
     inkscape:window-width="1366"
     inkscape:window-height="705"
     inkscape:window-x="-8"
     inkscape:window-y="-8"
     inkscape:window-maximized="1"
     inkscape:current-layer="layer1" />
  <defs
     id="defs1">
    <linearGradient
       inkscape:collect="always"
       id="linearGradient3638">
      <stop
         style="stop-color:#bf953f;stop-opacity:1;"
         offset="0"
         id="stop3634" />
      <stop
         style="stop-color:#faef84;stop-opacity:1;"
         offset="0.25"
         id="stop3642" />
      <stop
         style="stop-color:#b38728;stop-opacity:1;"
         offset="0.5"
         id="stop3644" />
      <stop
         style="stop-color:#fff699;stop-opacity:1;"
         offset="0.755"
         id="stop8004" />
      <stop
         style="stop-color:#ab781c;stop-opacity:1;"
         offset="1"
         id="stop3636" />
    </linearGradient>
    <linearGradient
       inkscape:collect="always"
       xlink:href="#linearGradient3638"
       id="linearGradient2"
       x1="22.144989"
       y1="86.480164"
       x2="82.082001"
       y2="97.542664"
       gradientUnits="userSpaceOnUse"
       gradientTransform="matrix(2.4525743,0,0,2.576271,-41.944504,-64.753675)" />
  </defs>
  <g
     inkscape:label="Calque 1"
     inkscape:groupmode="layer"
     id="layer1"
     transform="translate(-10.867731,-128.04266)">
    <rect
       style="fill:url(#linearGradient2);stroke:#000000;stroke-width:3;stroke-dasharray:none;stroke-opacity:1"
       id="rect1"
       width="147"
       height="57"
       x="12.367731"
       y="129.54266"
       rx="9.999999"
       ry="10" />
    <g
       id="text1"
       style="font-size:10.5833px;line-height:125%;font-family:'Futura Extra';-inkscape-font-specification:'Futura Extra';text-align:center;text-anchor:middle;stroke-width:4"
       aria-label="GAGNÉ !&#10;Tu remportes :&#10;deux volants pour ton match">
      <path
         style="font-size:17.6389px"
         d="m 49.692078,144.59942 v 3.13972 h 2.187224 c -0.229306,0.81139 -1.199445,1.16417 -1.957918,1.16417 -1.569862,0 -2.487085,-1.37583 -2.487085,-2.83986 0,-1.60514 0.952501,-3.08681 2.681113,-3.08681 0.776112,0 1.464029,0.35278 1.834446,1.02306 l 4.515558,-1.65806 c -1.040695,-2.27542 -4.215697,-3.42195 -6.526393,-3.42195 -4.18042,0 -7.373061,2.61056 -7.373061,6.94973 0,4.26861 3.280836,6.77334 7.337783,6.77334 2.063751,0 4.233336,-0.82903 5.644448,-2.36361 1.569862,-1.69334 1.569862,-3.51015 1.60514,-5.67973 z m 13.423216,6.17361 h 3.651253 l 0.440972,1.65806 h 5.115282 l -4.744865,-13.29973 h -5.344587 l -4.621392,13.29973 h 5.115282 z m 0.864307,-3.15736 0.881945,-4.05695 h 0.176389 c 0.08819,0.56445 0.176389,1.14653 0.3175,1.71098 l 0.564445,2.34597 z m 15.945565,-3.01625 v 3.13972 h 2.187223 c -0.229305,0.81139 -1.199445,1.16417 -1.957917,1.16417 -1.569863,0 -2.487086,-1.37583 -2.487086,-2.83986 0,-1.60514 0.952501,-3.08681 2.681113,-3.08681 0.776112,0 1.464029,0.35278 1.834446,1.02306 l 4.515559,-1.65806 c -1.040695,-2.27542 -4.215698,-3.42195 -6.526394,-3.42195 -4.180419,0 -7.37306,2.61056 -7.37306,6.94973 0,4.26861 3.280835,6.77334 7.337783,6.77334 2.063751,0 4.233336,-0.82903 5.644448,-2.36361 1.569862,-1.69334 1.569862,-3.51015 1.60514,-5.67973 z m 9.048768,7.83167 h 4.621392 v -4.32153 c 0,-0.88194 -0.141112,-1.74625 -0.299862,-2.66347 h 0.141112 l 4.250975,6.985 h 4.621389 v -13.29973 h -4.621389 v 3.98639 c 0,1.12889 0.211666,2.27542 0.405694,3.38667 h -0.141111 l -4.339169,-7.37306 h -4.639031 z m 15.381116,0 h 9.08404 v -3.63361 h -4.2157 v -1.30528 h 3.72181 v -3.45723 h -3.72181 v -1.27 h 4.07459 v -3.63361 h -8.94293 z m 4.5332,-17.44487 -2.3107,2.91042 1.60514,1.09361 2.91042,-2.54 z m 18.87015,12.36487 v -9.08404 h -4.65667 v 9.08404 z m -2.32834,0.8643 c -1.28764,0 -2.62819,0.82903 -2.62819,2.24014 0,1.39348 1.34055,2.18723 2.62819,2.18723 1.28764,0 2.6282,-0.79375 2.6282,-2.18723 0,-1.41111 -1.34056,-2.24014 -2.6282,-2.24014 z"
         id="path1" />
      <path
         d="m 41.670081,160.27332 1.598078,-0.0741 v 5.46099 h 2.899824 v -5.46099 l 1.598079,0.0741 v -2.59291 h -6.095981 z m 6.508732,-0.23284 v 3.17499 c 0,1.778 1.545162,2.57175 3.17499,2.57175 1.629828,0 3.17499,-0.79375 3.17499,-2.57175 v -3.17499 h -2.709325 v 2.89983 c 0,0.32808 -0.02117,0.67733 -0.465665,0.67733 -0.444499,0 -0.465665,-0.34925 -0.465665,-0.67733 v -2.89983 z m 16.414706,-0.127 c -0.920747,-0.0212 -1.418162,0.13759 -1.904994,0.87842 h -0.0635 l 0.0635,-0.75142 h -2.730491 v 5.61974 h 2.730491 v -2.159 c 0,-0.6985 0.359832,-1.12183 1.068913,-1.12183 0.349249,0 0.550332,0.13759 0.836081,0.30692 z m 7.111987,3.39724 c 0.137583,-2.10607 -1.439329,-3.39724 -3.439572,-3.39724 -1.788578,0 -3.227907,1.16417 -3.227907,3.02683 0,1.93674 1.619245,2.84691 3.386656,2.84691 1.291163,0 2.804574,-0.62442 3.164407,-1.97908 h -2.656409 c -0.05292,0.26458 -0.264582,0.46566 -0.550331,0.46566 -0.571498,0 -0.645581,-0.50799 -0.645581,-0.96308 z m -3.968737,-1.16416 c 0,-0.39158 0.201082,-0.73025 0.613831,-0.73025 0.391582,0 0.666748,0.34925 0.666748,0.73025 z m 7.503558,-2.10608 h -2.582325 v 5.61974 h 2.645825 v -2.78341 c 0,-0.32808 0,-0.75142 0.391582,-0.75142 0.402165,0 0.402165,0.42334 0.402165,0.75142 v 2.78341 h 2.645825 v -2.78341 c 0,-0.32808 0,-0.75142 0.391582,-0.75142 0.402166,0 0.402166,0.42334 0.402166,0.75142 v 2.78341 h 2.645825 v -3.49249 c 0,-1.21708 -0.592665,-2.25425 -1.936744,-2.25425 -0.867831,0 -1.386412,0.41275 -1.703911,1.19592 h -0.0635 c -0.243416,-0.762 -0.804331,-1.19592 -1.608662,-1.19592 -0.719664,0 -1.407579,0.43392 -1.629828,1.12183 h -0.08467 z m 11.366461,2.01083 c 0.412748,0 0.709081,0.381 0.709081,0.77258 0,0.381 -0.285749,0.8255 -0.709081,0.8255 -0.455082,0 -0.698498,-0.381 -0.698498,-0.80433 0,-0.41275 0.243416,-0.79375 0.698498,-0.79375 z m -0.698498,-2.01083 h -2.603492 v 7.93748 h 2.730492 v -2.19074 l -0.127,-0.89959 h 0.07408 c 0.306916,0.55034 1.047747,0.89959 1.661578,0.89959 1.534579,0 2.360076,-1.66158 2.360076,-2.9845 0,-1.40757 -0.761998,-2.88924 -2.338909,-2.88924 -0.709081,0 -1.449912,0.37042 -1.756828,1.016 h -0.08467 z m 8.212638,-0.127 c -1.852077,0 -3.407822,1.03717 -3.407822,3.00566 0,1.86266 1.650995,2.86808 3.407822,2.86808 1.756828,0 3.407823,-1.00542 3.407823,-2.86808 0,-1.96849 -1.555745,-3.00566 -3.407823,-3.00566 z m 0,2.13783 c 0.455082,0 0.761998,0.37042 0.761998,0.8255 0,0.4445 -0.338666,0.77258 -0.761998,0.77258 -0.423332,0 -0.761997,-0.32808 -0.761997,-0.77258 0,-0.45508 0.306916,-0.8255 0.761997,-0.8255 z m 8.932312,-2.13783 c -0.92075,-0.0212 -1.41816,0.13759 -1.905,0.87842 h -0.0635 l 0.0635,-0.75142 h -2.730487 v 5.61974 h 2.730487 v -2.159 c 0,-0.6985 0.35984,-1.12183 1.06892,-1.12183 0.34925,0 0.55033,0.13759 0.83608,0.30692 z m 4.14867,-1.68274 h -2.75166 v 1.88383 l -0.66674,-0.0423 v 2.14841 l 0.66674,-0.0529 v 3.49249 h 2.75166 v -3.49249 l 0.91017,0.0529 v -2.14841 l -0.91017,0.0423 z m 7.96923,5.07998 c 0.13758,-2.10607 -1.43933,-3.39724 -3.43957,-3.39724 -1.78858,0 -3.22791,1.16417 -3.22791,3.02683 0,1.93674 1.61925,2.84691 3.38666,2.84691 1.29116,0 2.80457,-0.62442 3.1644,-1.97908 h -2.6564 c -0.0529,0.26458 -0.26459,0.46566 -0.55033,0.46566 -0.5715,0 -0.64559,-0.50799 -0.64559,-0.96308 z m -3.96874,-1.16416 c 0,-0.39158 0.20109,-0.73025 0.61384,-0.73025 0.39158,0 0.66674,0.34925 0.66674,0.73025 z m 4.42383,3.01624 c 0.81491,0.34925 1.68274,0.62442 2.57174,0.62442 1.26999,0 2.71991,-0.60325 2.71991,-2.06375 0,-1.13241 -0.79375,-1.47108 -1.76742,-1.62983 -0.38099,-0.0635 -0.67733,-0.0847 -0.67733,-0.35983 0,-0.20108 0.22225,-0.254 0.39159,-0.254 0.44449,0 0.91016,0.21167 1.25941,0.46567 l 0.66675,-1.55575 c -0.61384,-0.33866 -1.48167,-0.47625 -2.18016,-0.47625 -1.2065,0 -2.62466,0.56092 -2.62466,1.9685 0,1.05833 0.84666,1.42874 1.75683,1.55574 0.22225,0.0317 0.55033,0.0423 0.55033,0.34925 0,0.21167 -0.22225,0.30692 -0.40217,0.30692 -0.46566,0 -1.01599,-0.28575 -1.39699,-0.51858 l -0.16934,-0.10584 z m 12.14964,-2.03199 c -0.77258,0 -1.57692,0.49741 -1.57692,1.34408 0,0.83608 0.80434,1.31233 1.57692,1.31233 0.77258,0 1.57691,-0.47625 1.57691,-1.31233 0,-0.84667 -0.80433,-1.34408 -1.57691,-1.34408 z m 0,-3.21733 c -0.77258,0 -1.57692,0.49742 -1.57692,1.34408 0,0.83608 0.80434,1.31233 1.57692,1.31233 0.77258,0 1.57691,-0.47625 1.57691,-1.31233 0,-0.84666 -0.80433,-1.34408 -1.57691,-1.34408 z"
         id="path2" />
      <path
         style="font-size:8.46667px;letter-spacing:-0.132292px"
         d="m 20.523381,176.00221 c 0.3302,0 0.567267,0.3048 0.567267,0.61806 0,0.3048 -0.2286,0.6604 -0.567267,0.6604 -0.364067,0 -0.5588,-0.3048 -0.5588,-0.64346 0,-0.3302 0.194733,-0.635 0.5588,-0.635 z m 0.626534,2.88713 h 2.048934 v -6.86647 h -2.184401 v 1.89654 l 0.1016,1.07526 h -0.0762 c -0.3048,-0.41486 -0.846667,-0.70273 -1.354667,-0.70273 -1.270001,0 -1.871134,1.27 -1.871134,2.3876 0,1.07527 0.643466,2.3114 1.862667,2.3114 0.5842,0 1.100667,-0.31327 1.464734,-0.77047 h 0.0508 z m 7.961838,-1.8796 c 0.110067,-1.68487 -1.151467,-2.7178 -2.751668,-2.7178 -1.430867,0 -2.582334,0.93133 -2.582334,2.42147 0,1.5494 1.295401,2.27753 2.709335,2.27753 1.032933,0 2.243667,-0.49953 2.531534,-1.58327 h -2.125134 c -0.04233,0.21167 -0.211667,0.37254 -0.440267,0.37254 -0.4572,0 -0.516467,-0.4064 -0.516467,-0.77047 z m -3.175001,-0.93133 c 0,-0.31327 0.160867,-0.5842 0.491067,-0.5842 0.313267,0 0.5334,0.2794 0.5334,0.5842 z m 3.745443,-1.68487 v 2.54 c 0,1.4224 1.236133,2.0574 2.540001,2.0574 1.303867,0 2.540001,-0.635 2.540001,-2.0574 v -2.54 h -2.167468 v 2.31987 c 0,0.26246 -0.01693,0.54186 -0.372533,0.54186 -0.355601,0 -0.372534,-0.2794 -0.372534,-0.54186 v -2.31987 z m 5.54038,0 1.7018,2.159 -1.888067,2.3368 h 2.633134 l 0.347134,-0.635 0.135466,-0.3556 h 0.04233 l 0.1524,0.3556 0.3556,0.635 h 2.565401 l -1.828801,-2.3368 1.701801,-2.159 h -2.506134 l -0.270934,0.5588 -0.169333,0.381 h -0.04233 l -0.143933,-0.381 -0.2794,-0.5588 z m 9.260419,0 1.972734,4.4958 h 1.981201 l 1.955801,-4.4958 h -2.345268 l -0.465667,1.5748 -0.110067,0.55033 h -0.05927 l -0.584201,-2.12513 z m 8.749251,-0.1016 c -1.481667,0 -2.726268,0.82973 -2.726268,2.40453 0,1.49014 1.320801,2.29447 2.726268,2.29447 1.405467,0 2.726268,-0.80433 2.726268,-2.29447 0,-1.5748 -1.244601,-2.40453 -2.726268,-2.40453 z m 0,1.71027 c 0.364067,0 0.6096,0.29633 0.6096,0.6604 0,0.3556 -0.270933,0.61806 -0.6096,0.61806 -0.338667,0 -0.6096,-0.26246 -0.6096,-0.61806 0,-0.36407 0.245533,-0.6604 0.6096,-0.6604 z m 3.372917,2.88713 h 2.184401 v -6.86647 h -2.184401 z m 4.981569,-2.26907 c 0,-0.3302 0.220134,-0.61806 0.567267,-0.61806 0.347133,0 0.5842,0.254 0.5842,0.60113 0,0.34713 -0.169333,0.67733 -0.5842,0.67733 -0.397933,0 -0.567267,-0.3048 -0.567267,-0.6604 z m 1.083734,2.26907 h 2.142067 v -4.4958 h -2.142067 l 0.06773,0.5334 h -0.0508 c -0.321733,-0.44027 -0.770467,-0.635 -1.312334,-0.635 -1.27,0 -1.9558,1.23613 -1.9558,2.37067 0,1.0922 0.677333,2.32833 1.896534,2.32833 0.618067,0 0.973667,-0.27093 1.3716,-0.69427 h 0.0508 z m 4.998503,-4.4958 h -2.133601 v 4.4958 h 2.184401 v -2.19287 c 0,-0.26246 0,-0.635 0.364066,-0.635 0.372534,0 0.372534,0.37254 0.372534,0.635 v 2.19287 h 2.184401 v -2.7686 c 0,-0.9906 -0.440267,-1.8288 -1.557867,-1.8288 -0.702734,0 -1.024468,0.3302 -1.447801,0.82127 h -0.0508 z m 6.175371,-1.4478 h -2.201335 v 1.50707 l -0.5334,-0.0339 v 1.71873 l 0.5334,-0.0423 v 2.794 h 2.201335 v -2.794 l 0.728133,0.0423 v -1.71873 l -0.728133,0.0339 z m 0.697444,5.54567 c 0.651934,0.2794 1.346201,0.49953 2.057401,0.49953 1.016001,0 2.175934,-0.4826 2.175934,-1.651 0,-0.90593 -0.635,-1.17687 -1.413934,-1.30387 -0.3048,-0.0508 -0.541866,-0.0677 -0.541866,-0.28786 0,-0.16087 0.1778,-0.2032 0.313266,-0.2032 0.3556,0 0.728134,0.16933 1.007534,0.37253 l 0.5334,-1.2446 c -0.491067,-0.27093 -1.185334,-0.381 -1.744134,-0.381 -0.9652,0 -2.099734,0.44873 -2.099734,1.5748 0,0.84667 0.677334,1.143 1.405467,1.2446 0.1778,0.0254 0.440267,0.0339 0.440267,0.2794 0,0.16933 -0.1778,0.24553 -0.321733,0.24553 -0.372534,0 -0.812801,-0.2286 -1.117601,-0.41486 l -0.135466,-0.0847 z m 10.7675,-2.4892 c 0.3302,0 0.567266,0.3048 0.567266,0.61806 0,0.3048 -0.2286,0.6604 -0.567266,0.6604 -0.364067,0 -0.558801,-0.3048 -0.558801,-0.64346 0,-0.3302 0.194734,-0.635 0.558801,-0.635 z m -0.558801,-1.60867 h -2.082801 v 6.35 h 2.184401 v -1.7526 l -0.1016,-0.71967 h 0.05927 c 0.245533,0.44027 0.8382,0.71967 1.329267,0.71967 1.227667,0 1.888068,-1.32927 1.888068,-2.3876 0,-1.12607 -0.609601,-2.3114 -1.871134,-2.3114 -0.567267,0 -1.159934,0.29633 -1.405468,0.8128 h -0.06773 z m 6.437841,-0.1016 c -1.481668,0 -2.726268,0.82973 -2.726268,2.40453 0,1.49014 1.3208,2.29447 2.726268,2.29447 1.405467,0 2.726267,-0.80433 2.726267,-2.29447 0,-1.5748 -1.2446,-2.40453 -2.726267,-2.40453 z m 0,1.71027 c 0.364066,0 0.6096,0.29633 0.6096,0.6604 0,0.3556 -0.270934,0.61806 -0.6096,0.61806 -0.338667,0 -0.609601,-0.26246 -0.609601,-0.61806 0,-0.36407 0.245534,-0.6604 0.609601,-0.6604 z m 3.305183,-1.60867 v 2.54 c 0,1.4224 1.236134,2.0574 2.540001,2.0574 1.303867,0 2.540001,-0.635 2.540001,-2.0574 v -2.54 h -2.167467 v 2.31987 c 0,0.26246 -0.01693,0.54186 -0.372534,0.54186 -0.3556,0 -0.372533,-0.2794 -0.372533,-0.54186 v -2.31987 z m 9.477384,-0.1016 c -0.7366,-0.0169 -1.13453,0.11007 -1.524,0.70273 h -0.0508 l 0.0508,-0.60113 h -2.1844 v 4.4958 h 2.1844 v -1.7272 c 0,-0.5588 0.28787,-0.89747 0.85513,-0.89747 0.2794,0 0.44027,0.11007 0.66887,0.24554 z m 6.23783,-1.3462 h -2.20134 v 1.50707 l -0.5334,-0.0339 v 1.71873 l 0.5334,-0.0423 v 2.794 h 2.20134 v -2.794 l 0.72813,0.0423 v -1.71873 l -0.72813,0.0339 z m 3.64385,1.3462 c -1.48167,0 -2.72627,0.82973 -2.72627,2.40453 0,1.49014 1.3208,2.29447 2.72627,2.29447 1.40547,0 2.72627,-0.80433 2.72627,-2.29447 0,-1.5748 -1.2446,-2.40453 -2.72627,-2.40453 z m 0,1.71027 c 0.36406,0 0.6096,0.29633 0.6096,0.6604 0,0.3556 -0.27094,0.61806 -0.6096,0.61806 -0.33867,0 -0.6096,-0.26246 -0.6096,-0.61806 0,-0.36407 0.24553,-0.6604 0.6096,-0.6604 z m 5.44724,-1.60867 h -2.1336 v 4.4958 h 2.1844 v -2.19287 c 0,-0.26246 0,-0.635 0.36407,-0.635 0.37253,0 0.37253,0.37254 0.37253,0.635 v 2.19287 h 2.1844 v -2.7686 c 0,-0.9906 -0.44026,-1.8288 -1.55786,-1.8288 -0.70274,0 -1.02447,0.3302 -1.4478,0.82127 h -0.0508 z m 9.19269,0 h -2.06587 v 4.4958 h 2.11667 v -2.22673 c 0,-0.26247 0,-0.60114 0.31326,-0.60114 0.32174,0 0.32174,0.33867 0.32174,0.60114 v 2.22673 h 2.11666 v -2.22673 c 0,-0.26247 0,-0.60114 0.31327,-0.60114 0.32173,0 0.32173,0.33867 0.32173,0.60114 v 2.22673 h 2.11667 v -2.794 c 0,-0.97367 -0.47413,-1.8034 -1.5494,-1.8034 -0.69427,0 -1.10913,0.3302 -1.36313,0.95673 h -0.0508 c -0.19474,-0.6096 -0.64347,-0.95673 -1.28694,-0.95673 -0.57573,0 -1.12606,0.34713 -1.30386,0.89747 h -0.0677 z m 8.3259,2.22673 c 0,-0.3302 0.22013,-0.61806 0.56727,-0.61806 0.34713,0 0.5842,0.254 0.5842,0.60113 0,0.34713 -0.16933,0.67733 -0.5842,0.67733 -0.39794,0 -0.56727,-0.3048 -0.56727,-0.6604 z m 1.08374,2.26907 h 2.14206 v -4.4958 h -2.14206 l 0.0677,0.5334 h -0.0508 c -0.32173,-0.44027 -0.77047,-0.635 -1.31234,-0.635 -1.27,0 -1.9558,1.23613 -1.9558,2.37067 0,1.0922 0.67734,2.32833 1.89654,2.32833 0.61806,0 0.97367,-0.27093 1.3716,-0.69427 h 0.0508 z m 5.3541,-5.9436 h -2.20133 v 1.50707 l -0.5334,-0.0339 v 1.71873 l 0.5334,-0.0423 v 2.794 h 2.20133 v -2.794 l 0.72814,0.0423 v -1.71873 l -0.72814,0.0339 z m 4.56672,1.5748 c -0.44027,-0.14393 -0.9144,-0.2286 -1.3716,-0.2286 -1.3462,0 -2.31987,1.0414 -2.31987,2.37067 0,1.50706 1.0414,2.32833 2.49767,2.32833 0.381,0 0.762,-0.1016 1.10067,-0.21167 l 0.0931,-1.84573 c -0.254,0.1778 -0.508,0.34713 -0.84667,0.34713 -0.3556,0 -0.64347,-0.28786 -0.64347,-0.64346 0,-0.4064 0.28787,-0.66887 0.68581,-0.66887 0.31326,0 0.57573,0.1778 0.80433,0.37253 z m 0.69745,4.3688 h 2.1844 v -2.31987 c 0,-0.2794 0.0762,-0.5334 0.41486,-0.5334 0.31327,0 0.34714,0.29634 0.34714,0.5334 v 2.31987 h 2.1336 v -2.76013 c 0,-0.9906 -0.39794,-1.83727 -1.51554,-1.83727 -0.62653,0 -1.0414,0.38947 -1.4478,0.87207 h -0.0339 l 0.1016,-1.2446 v -1.89654 h -2.1844 z"
         id="path3" />
    </g>
  </g>
</svg>
