<?xml version="1.0" encoding="UTF-8" standalone="no"?>
<!-- Created with Inkscape (http://www.inkscape.org/) -->

<svg
   width="96.88884mm"
   height="55.787853mm"
   viewBox="0 0 96.888839 55.787854"
   version="1.1"
   id="svg1"
   inkscape:version="1.3.2 (091e20e, 2023-11-25, custom)"
   sodipodi:docname="win-figurine.svg"
   xml:space="preserve"
   xmlns:inkscape="http://www.inkscape.org/namespaces/inkscape"
   xmlns:sodipodi="http://sodipodi.sourceforge.net/DTD/sodipodi-0.dtd"
   xmlns="http://www.w3.org/2000/svg"
   xmlns:svg="http://www.w3.org/2000/svg"><sodipodi:namedview
     id="namedview1"
     pagecolor="#ffffff"
     bordercolor="#000000"
     borderopacity="0.25"
     inkscape:showpageshadow="2"
     inkscape:pageopacity="0.0"
     inkscape:pagecheckerboard="0"
     inkscape:deskcolor="#d1d1d1"
     inkscape:document-units="mm"
     inkscape:zoom="0.98777778"
     inkscape:cx="183.23959"
     inkscape:cy="101.74353"
     inkscape:window-width="1366"
     inkscape:window-height="705"
     inkscape:window-x="-8"
     inkscape:window-y="-8"
     inkscape:window-maximized="1"
     inkscape:current-layer="layer1" /><defs
     id="defs1"><rect
       x="104.27447"
       y="-102.24972"
       width="360.40494"
       height="68.841393"
       id="rect3" /><filter
       style="color-interpolation-filters:sRGB"
       inkscape:label="Drop Shadow"
       id="filter3"
       x="-0.99226948"
       y="-0.70361084"
       width="3.1738896"
       height="2.5414877"><feFlood
         result="flood"
         in="SourceGraphic"
         flood-opacity="1.000000"
         flood-color="rgb(255,255,255)"
         id="feFlood2-2" /><feGaussianBlur
         result="blur"
         in="SourceGraphic"
         stdDeviation="2.000000"
         id="feGaussianBlur2-6" /><feOffset
         result="offset"
         in="blur"
         dx="1.000000"
         dy="1.000000"
         id="feOffset2-2" /><feComposite
         result="comp1"
         operator="in"
         in="flood"
         in2="offset"
         id="feComposite2-4" /><feComposite
         result="comp2"
         operator="over"
         in="SourceGraphic"
         in2="comp1"
         id="feComposite3-4" /></filter><rect
       x="6.0742407"
       y="-147.80652"
       width="569.96625"
       height="100.22497"
       id="rect15-6" /><filter
       style="color-interpolation-filters:sRGB"
       inkscape:label="Drop Shadow"
       id="filter20"
       x="-0.0099774489"
       y="-0.041186987"
       width="1.0232388"
       height="1.09593"><feFlood
         result="flood"
         in="SourceGraphic"
         flood-opacity="0.498039"
         flood-color="rgb(255,255,255)"
         id="feFlood19" /><feGaussianBlur
         result="blur"
         in="SourceGraphic"
         stdDeviation="1.000000"
         id="feGaussianBlur19" /><feOffset
         result="offset"
         in="blur"
         dx="1.000000"
         dy="1.000000"
         id="feOffset19" /><feComposite
         result="comp1"
         operator="in"
         in="flood"
         in2="offset"
         id="feComposite19" /><feComposite
         result="comp2"
         operator="over"
         in="SourceGraphic"
         in2="comp1"
         id="feComposite20" /></filter><rect
       x="104.27447"
       y="-102.24972"
       width="360.40494"
       height="68.841393"
       id="rect2-5" /><filter
       style="color-interpolation-filters:sRGB"
       inkscape:label="Drop Shadow"
       id="filter15"
       x="-0.022153083"
       y="-0.12888208"
       width="1.0521053"
       height="1.3031381"><feFlood
         result="flood"
         in="SourceGraphic"
         flood-opacity="0.498039"
         flood-color="rgb(255,255,255)"
         id="feFlood14" /><feGaussianBlur
         result="blur"
         in="SourceGraphic"
         stdDeviation="1.000000"
         id="feGaussianBlur14" /><feOffset
         result="offset"
         in="blur"
         dx="1.000000"
         dy="1.000000"
         id="feOffset14" /><feComposite
         result="comp1"
         operator="in"
         in="flood"
         in2="offset"
         id="feComposite14" /><feComposite
         result="comp2"
         operator="over"
         in="SourceGraphic"
         in2="comp1"
         id="feComposite15" /></filter></defs><g
     inkscape:label="Calque 1"
     inkscape:groupmode="layer"
     id="layer1"
     transform="translate(-37.385204,-131.11049)"><path
       style="font-size:34.6667px;line-height:125%;font-family:'New Super Mario Font U';-inkscape-font-specification:'New Super Mario Font U';text-align:center;letter-spacing:-0.5px;white-space:pre;fill:#4bc633;stroke:#000000;stroke-width:0.880886;stroke-linejoin:round;filter:url(#filter15)"
       d="m 231.83621,-92.626073 q 6.4323,1.625001 6.83855,1.929689 -2.28516,5.467453 -2.45443,5.60287 -0.42318,0 -5.50131,-1.92969 -2.94531,2.74219 -2.94531,3.063805 -0.22005,5.07813 -0.22005,5.907558 3.52083,1.625001 4.18099,1.828126 3.28386,-1.421876 3.77474,-1.726564 l -0.60937,-1.946616 q -0.60938,0.338542 -3.67318,1.540366 l -0.10156,-0.203125 v -0.829428 q 0,-1.066407 -0.10157,-3.250003 0.79558,-0.203125 9.27605,-1.015626 0.20313,1.04948 0.71094,8.954435 -0.27083,0.304688 -10.19011,4.079431 -8.44662,-3.080732 -8.56511,-3.470055 -2.64063,-9.174488 -2.64063,-9.665373 3.47005,-6.2461 3.97787,-6.736986 0.42317,-0.203125 8.24349,-2.132814 z m 16.93492,0.05078 q 9.39454,1.354168 10.35938,1.591147 0,0.135417 6.46615,19.381528 -0.67708,0.253907 -7.80339,0.981772 -0.49089,-1.658855 -1.10026,-5.128911 -6.09376,0.558595 -6.09376,0.981772 l -1.10026,3.91016 h -0.11849 q -7.19402,-1.320314 -7.19402,-1.591147 5.73829,-17.942725 6.58465,-20.126321 z m 3.28385,11.713552 h 3.67318 l -1.35416,-5.36589 q -1.57422,0 -1.57422,0.609376 -0.25391,1.235678 -0.7448,4.756514 z m 27.02347,-11.764333 q 6.43229,1.625001 6.83854,1.929689 -2.28515,5.467453 -2.45442,5.60287 -0.42318,0 -5.50131,-1.92969 -2.94532,2.74219 -2.94532,3.063805 -0.22005,5.07813 -0.22005,5.907558 3.52084,1.625001 4.18099,1.828126 3.28386,-1.421876 3.77475,-1.726564 l -0.60938,-1.946616 q -0.60937,0.338542 -3.67318,1.540366 l -0.10156,-0.203125 v -0.829428 q 0,-1.066407 -0.10156,-3.250003 0.79557,-0.203125 9.27605,-1.015626 0.20312,1.04948 0.71093,8.954435 -0.27083,0.304688 -10.19011,4.079431 -8.44662,-3.080732 -8.56511,-3.470055 -2.64063,-9.174488 -2.64063,-9.665373 3.47006,-6.2461 3.97787,-6.736986 0.42318,-0.203125 8.2435,-2.132814 z m 25.21226,-0.03385 h 1.35416 q 0.23698,0 1.15105,5.196619 0.10156,0.152344 3.31771,16.114598 l -0.20313,0.101563 q -6.14453,-0.186199 -6.14453,-0.524741 0,-1.777345 -1.45573,-2.488283 0,-0.06771 -4.77345,-3.842451 h -0.10156 q 0.10156,0.152343 0.6263,5.924484 -4.95964,1.455731 -5.82292,1.557293 -0.27083,0 -1.65885,-11.645844 -0.22006,-0.727865 -1.15105,-8.209643 l 6.02605,-1.658855 q 0.20313,0 1.15104,7.481777 l 5.92449,5.19662 h 0.10156 q 0,-0.253907 -2.60677,-13.000012 0.11849,0 0.11849,-0.101563 2.60677,-0.101562 4.14714,-0.101562 z m 10.181,0.01693 q 16.77475,1.98047 16.77475,2.21745 l -1.625,5.941411 q -7.92188,-2.09896 -8.51433,-2.335939 0,0.152344 -1.74349,3.842451 h 0.11849 q 3.53776,-0.220052 7.6849,-0.694011 l 0.11849,0.236979 q -0.69401,3.927087 -1.04948,5.348964 l -6.51693,-0.930991 q 0.10156,1.929689 0.10156,2.911461 v 0.592449 l 0.11849,0.236979 q 2.16667,-0.236979 8.75131,-0.710938 0.22005,1.04948 0.8125,5.247401 -0.11849,0 -0.11849,0.118489 -15.35288,-0.812501 -15.60678,-1.04948 l -2.45443,-6.990892 q 2.79297,-13.016939 3.14844,-13.981783 z m 33.2943,0.626302 0.0677,0.135417 q -1.69271,14.946628 -1.89584,15.708348 -3.58854,-0.338542 -4.53646,-0.473959 v -0.06771 l -1.08333,-14.151055 q 0.40625,-0.135417 7.44792,-1.151043 z m -6.70313,16.182307 q 0.11849,0.06771 5.28125,0.40625 l 0.0677,0.135417 q -0.79557,4.671879 -1.01562,4.671879 h -3.92709 q -0.20313,0 -0.54167,-4.671879 -0.0677,0 -0.0677,-0.40625 0.20313,-0.06771 0.20313,-0.135417 z"
       id="text2"
       transform="matrix(0.68113223,0,0,0.68113223,-107.69609,204.59602)"
       aria-label="GAGNE !" /><path
       d="m 161.8114,-138.53665 0.10156,0.22005 q -0.4401,6.46616 -0.66015,6.46616 h -0.10157 q -6.99089,-0.5586 -7.78646,-0.66016 v 15.01433 q 0,0.40626 -3.1823,0.54167 0,0.11849 -3.60547,0.44011 l -0.11849,-0.22006 q 0.77865,-13.44011 0.9987,-15.87761 -2.67448,0.42317 -7.88803,1.08333 -1.54036,-5.75521 -1.54036,-5.90756 0,-0.22005 23.78257,-1.10026 z m 10.46876,5.11198 0.11849,0.22006 -2.28516,12.1198 h 0.11849 l 5.82292,-1.70964 v -6.85547 q 0.0339,-0.23698 0.22006,-0.23698 6.56771,0.45703 7.3125,0.45703 0,0.11849 0.11849,0.11849 0,2.89453 -1.82812,12.00131 0,0.52474 -5.2474,0.79558 -0.27084,-0.32162 -0.45704,-1.3711 -6.72005,1.3711 -7.66797,1.3711 -5.36589,-3.9948 -5.36589,-4.11329 0.91406,-12.00131 1.15104,-12.45834 h 0.10156 q 4.28256,-0.11849 7.88803,-0.33855 z m 32.87113,0 q 3.35156,1.87891 4.11328,2.43751 -2.74219,5.70443 -2.94531,5.80599 h -0.11849 l -2.42058,-2.11589 -2.86068,3.48699 0.32162,6.34766 q -0.22005,0.20312 -5.60287,0.94792 -0.20313,-1.45573 -2.64063,-14.26955 0,-0.20312 7.07553,-1.04948 0.11849,0.13542 0.64323,3.16537 4.23177,-4.75652 4.4349,-4.75652 z m 14.56512,0.0169 q 7.66797,3.94402 8.4974,4.60417 -1.10026,5.14584 -1.30339,5.29818 H 216.2125 v 0.1862 l 2.99609,3.70704 4.70574,-2.40365 q 0.69401,1.20182 1.99739,4.19792 -0.60937,0.20313 -8.88672,1.30339 -6.85548,-4.51954 -6.90626,-4.70574 1.10026,-8.78516 1.30339,-8.78516 7.16016,-3.04688 8.29428,-3.40235 z m -1.10027,4.09636 q -0.13541,0.33854 -1.79427,2.69141 0,0.71094 1.9974,0.71094 0,0.10156 2.89453,0.49088 0.79558,-1.10026 0.79558,-1.28646 -0.25391,-1.50651 -1.10027,-1.50651 z m 29.44404,-4.11329 q 4.13021,1.70964 7.1263,3.21615 -0.77864,10.07163 -0.99869,11.01955 -4.97657,1.23567 -5.56902,1.23567 0,-2.20052 -0.33854,-8.6836 -1.87891,0.1862 -1.87891,0.32162 0,0.64323 0.22005,7.34636 0.10157,0 0.10157,0.11849 0,0.20312 -5.23048,1.11719 -0.22005,-0.27084 -1.33724,-8.2435 -2.11589,0.54167 -2.11589,0.77864 l 0.67709,6.90626 q -0.20313,0.22005 -5.56902,1.77735 -3.11458,-11.01954 -3.89323,-14.79429 5.8737,-1.45573 6.56771,-1.45573 0.77865,3.08073 0.77865,3.55469 h 0.11849 q 2.86068,-2.64062 3.9948,-3.55469 h 0.11849 l 3.55469,2.55599 h 0.11849 q 3.33463,-3.21615 3.55469,-3.21615 z m 16.79949,0.0169 q 0.52474,2.16667 0.72787,2.67448 7.48178,-1.70963 7.90495,-1.70963 5.09506,7.32943 5.09506,7.65105 l -3.89323,8.26042 -8.37892,-1.33724 v 0.25391 q 0.98178,7.53255 0.98178,8.00651 -0.11849,0 -0.11849,0.11849 -1.21875,-0.11849 -1.82813,-0.11849 h -1.45573 q -1.26953,0 -3.89323,-0.11849 -0.23698,-0.71093 -3.63933,-21.6159 0.57552,-0.23698 8.4974,-2.06511 z m 0.60938,6.92319 q 0.33854,3.89323 0.60938,3.89323 3.47005,1.20182 4.2487,1.20182 l 1.33724,-5.82292 h -0.11849 q -1.98047,0.11849 -6.07683,0.72787 z m 21.18361,-6.92319 q 6.4323,1.72657 6.82162,2.09896 3.53777,5.01042 3.97787,5.77214 -2.28516,7.2448 -2.6237,7.2448 -7.61719,1.77735 -7.97266,1.77735 -6.29688,-3.67318 -6.70313,-4.09636 -0.22005,-6.83855 -0.22005,-7.54949 -0.10157,-0.20312 -0.10157,-0.30469 6.50001,-4.94271 6.72006,-4.94271 z m -0.32161,6.19532 q -0.10156,0.67708 -0.30469,4.92579 l 3.77474,0.84635 q 1.35417,-4.23177 1.35417,-4.51953 -4.50261,-1.35417 -4.82422,-1.35417 z m 24.31513,-6.21225 q 3.35157,1.87891 4.11329,2.43751 -2.74219,5.70443 -2.94532,5.80599 h -0.11849 l -2.42057,-2.11589 -2.86068,3.48699 0.32161,6.34766 q -0.22005,0.20312 -5.60287,0.94792 -0.20312,-1.45573 -2.64062,-14.26955 0,-0.20312 7.07552,-1.04948 0.11849,0.13542 0.64323,3.16537 4.23178,-4.75652 4.4349,-4.75652 z m 10.02866,-5.11198 7.44792,1.32031 -0.71094,5.65366 q 2.21745,-0.11849 3.25001,-0.11849 h 1.08333 l 0.23698,-0.11849 0.11849,0.23698 q -0.35547,5.14583 -0.60938,5.78906 l -0.23697,-0.13541 q -0.25391,0 -4.57032,-0.23698 -0.23698,3.97787 -0.35547,9.51303 l -0.23698,0.11849 q -5.45053,-0.35547 -6.50001,-0.60938 l 0.11849,-0.47396 q 0,-1.47266 0.47396,-9.14063 -4.57031,-0.25391 -4.57031,-0.60938 0.23698,-5.65365 0.60937,-5.65365 l 4.45183,0.84636 v -1.45573 q 0,-1.77735 -0.13542,-4.8073 0.13542,0 0.13542,-0.11849 z m 22.28387,5.12891 q 7.66797,3.94402 8.4974,4.60417 -1.10026,5.14584 -1.30339,5.29818 H 339.4548 v 0.1862 l 2.99609,3.70704 4.70574,-2.40365 q 0.69401,1.20182 1.9974,4.19792 -0.60938,0.20313 -8.88673,1.30339 -6.85548,-4.51954 -6.90626,-4.70574 1.10026,-8.78516 1.30339,-8.78516 7.16016,-3.04688 8.29428,-3.40235 z m -1.10026,4.09636 q -0.13542,0.33854 -1.79428,2.69141 0,0.71094 1.9974,0.71094 0,0.10156 2.89453,0.49088 0.79558,-1.10026 0.79558,-1.28646 -0.25391,-1.50651 -1.10026,-1.50651 z m 24.2982,-4.11329 q 4.875,3.11459 5.38282,3.58855 -1.76042,3.91016 -2.01433,3.91016 l -6.16146,-3.57162 h -0.22006 q 0,0.16927 -0.79557,1.89584 8.51433,4.58724 8.51433,4.70573 -2.38672,5.51823 -2.69141,5.82292 l -9.63152,0.5586 q -5.61979,-3.72397 -6.04297,-3.92709 v -0.10156 q 0,-0.42318 1.67578,-3.8086 l 7.51563,3.91016 0.5586,-2.23438 q -6.97397,-3.13151 -8.29428,-3.91016 v -0.23698 q 0,-0.64323 2.69141,-5.70443 z m 23.81512,0 0.11849,0.22006 -2.28516,12.1198 h 0.11849 l 5.82292,-1.70964 v -6.85547 q 0.0339,-0.23698 0.22005,-0.23698 6.56772,0.45703 7.31251,0.45703 0,0.11849 0.11849,0.11849 0,2.89453 -1.82813,12.00131 0,0.52474 -5.2474,0.79558 -0.27083,-0.32162 -0.45703,-1.3711 -6.72006,1.3711 -7.66797,1.3711 -5.3659,-3.9948 -5.3659,-4.11329 0.91407,-12.00131 1.15105,-12.45834 h 0.10156 q 4.28256,-0.11849 7.88803,-0.33855 z m 27.64978,0 5.63673,3.87631 q -0.59245,9.64845 -0.82943,11.27345 -0.98177,0.11849 -5.97527,0.35547 l -0.11849,-0.23698 -0.59244,-9.03907 -0.23698,-0.11849 q -3.23308,0.69401 -4.45183,1.04948 0.33854,5.77214 0.33854,8.34506 -5.04427,1.40495 -5.51823,1.40495 -3.28386,-14.45575 -3.28386,-15.26825 7.14324,-0.93099 7.75261,-0.93099 v 0.11849 q 0.11849,0.0846 0.35547,3.52084 6.55079,-4.35027 6.92318,-4.35027 z m 16.42709,0.0169 q 7.66798,3.94402 8.49741,4.60417 -1.10027,5.14584 -1.30339,5.29818 h -10.69793 v 0.1862 l 2.9961,3.70704 4.70573,-2.40365 q 0.69401,1.20182 1.9974,4.19792 -0.60938,0.20313 -8.88673,1.30339 -6.85547,-4.51954 -6.90625,-4.70574 1.10026,-8.78516 1.30338,-8.78516 7.16017,-3.04688 8.29428,-3.40235 z m -1.10026,4.09636 q -0.13542,0.33854 -1.79427,2.69141 0,0.71094 1.9974,0.71094 0,0.10156 2.89453,0.49088 0.79557,-1.10026 0.79557,-1.28646 -0.2539,-1.50651 -1.10026,-1.50651 z m -251.19751,34.108105 q 0.89714,0.101563 6.53386,1.506512 l 0.10157,0.203125 q -0.82943,4.621098 -0.9987,4.621098 h -0.10157 l -2.72526,-1.404949 q 0,0.473959 -0.30469,4.231775 l 3.72397,-0.914064 q 0.16927,0.507813 0.30468,4.519536 -0.54166,0.203125 -3.72396,0.609375 0.71094,3.046878 1.50651,7.447924 -2.60677,0.592448 -6.22917,1.201824 l -0.10156,-0.203126 q -0.47396,-7.837246 -0.79558,-7.837246 -3.28385,0.795573 -3.52083,0.897136 -0.20313,-0.981772 -0.71094,-5.332036 l 0.20313,-0.101563 h 3.62239 q -0.30468,-2.50521 -0.91406,-6.53386 z m 10.02866,-1.675783 6.65235,1.04948 q -1.25261,4.790369 -1.64193,4.790369 -5.2474,-0.355469 -5.2474,-0.694011 v -4.908858 q 0.0508,-0.23698 0.23698,-0.23698 z m -1.86198,8.057299 h 0.10156 q 7.71876,1.40495 7.71876,1.641929 -2.21745,12.559907 -2.69141,13.998711 h -5.36589 q -0.23698,0 -0.23698,-0.23698 z m 21.16668,-1.218751 q 7.19402,0.186198 7.19402,0.626303 1.23568,18.738298 1.23568,19.940122 -5.45053,3.470056 -7.80339,4.705734 -8.29428,-2.606773 -8.29428,-2.97917 2.67448,-3.910159 3.09766,-3.960941 4.51953,2.234377 5.19662,2.234377 l 1.60807,-2.115887 q -0.64323,-2.6237 -0.86328,-3.097659 -0.3724,0 -9.17449,1.489585 -4.82422,-7.837247 -4.82422,-8.040372 4.16406,-6.65235 5.07813,-7.803393 h 0.11849 q 0.49088,0 7.3125,1.608074 v -0.372396 q 0,-0.660157 -0.11849,-2.115887 z m -5.31511,7.17709 q 0.23698,0.52474 1.48959,5.585943 1.57422,-0.507813 4.82422,-1.861981 -0.6263,-3.046878 -0.6263,-3.470055 l -0.60938,-0.11849 h -0.74479 q -1.42187,0 -4.33334,-0.135417 z m 24.21357,-7.227871 0.11849,0.220052 -2.28516,12.119803 h 0.11849 l 5.82292,-1.709637 v -6.855475 q 0.0339,-0.236979 0.22005,-0.236979 6.56772,0.457031 7.31251,0.457031 0,0.11849 0.11849,0.11849 0,2.894534 -1.82813,12.001313 0,0.52474 -5.2474,0.795574 -0.27083,-0.321615 -0.45703,-1.371095 -6.72006,1.371095 -7.66797,1.371095 -5.3659,-3.994796 -5.3659,-4.113285 0.91407,-12.001313 1.15105,-12.458345 h 0.10156 q 4.28256,-0.11849 7.88803,-0.338542 z m 24.77216,0 q 3.35156,1.878908 4.11328,2.437502 -2.74219,5.704432 -2.94531,5.805995 h -0.11849 l -2.42058,-2.115887 -2.86068,3.486982 0.32162,6.347662 q -0.22005,0.203125 -5.60287,0.947918 -0.20313,-1.455731 -2.64063,-14.269545 0,-0.203125 7.07553,-1.04948 0.11849,0.135417 0.64323,3.165368 4.23177,-4.756515 4.4349,-4.756515 z m 7.30339,-6.787767 6.65235,1.04948 q -1.25261,4.790369 -1.64193,4.790369 -5.2474,-0.355469 -5.2474,-0.694011 v -4.908858 q 0.0508,-0.23698 0.23698,-0.23698 z m -1.86198,8.057299 h 0.10156 q 7.71876,1.40495 7.71876,1.641929 -2.21745,12.559907 -2.69141,13.998711 h -5.36589 q -0.23698,0 -0.23698,-0.23698 z m 23.57033,-1.269532 5.63673,3.876306 q -0.59245,9.648446 -0.82943,11.273447 -0.98177,0.11849 -5.97527,0.355469 l -0.11848,-0.236979 -0.59245,-9.039071 -0.23698,-0.118489 q -3.23308,0.694011 -4.45183,1.04948 0.33854,5.77214 0.33854,8.345059 -5.04427,1.40495 -5.51823,1.40495 -3.28386,-14.455743 -3.28386,-15.268243 7.14324,-0.930991 7.75261,-0.930991 v 0.11849 q 0.11849,0.08464 0.35547,3.520836 6.55079,-4.350264 6.92318,-4.350264 z m 16.4271,0.01693 q 7.66798,3.944014 8.4974,4.604171 -1.10026,5.145838 -1.30338,5.298182 h -10.69793 v 0.186198 l 2.9961,3.707035 4.70573,-2.403648 q 0.69401,1.201824 1.9974,4.19792 -0.60938,0.203125 -8.88673,1.303387 -6.85547,-4.519536 -6.90625,-4.705734 1.10026,-8.785164 1.30338,-8.785164 7.16017,-3.046878 8.29428,-3.402347 z m -1.10026,4.096358 q -0.13542,0.338542 -1.79427,2.691409 0,0.710938 1.99739,0.710938 0,0.101562 2.89454,0.490886 0.79557,-1.100262 0.79557,-1.28646 -0.2539,-1.506512 -1.10026,-1.506512 z m 26.28649,-9.242196 q 4.79037,0.338542 4.79037,0.609376 1.84505,4.959639 2.2513,6.330734 h 0.10156 q 0.44011,-0.947917 3.3685,-5.213546 h 0.10156 q 4.58724,0.287761 4.58724,0.626303 l 2.75912,18.873715 q 0,0.169271 -7.2448,0.812501 l -0.10156,-0.203126 q -0.40625,-8.598966 -0.40625,-10.511728 h -0.10156 l -4.181,3.673181 h -0.10156 q -0.20313,-0.101563 -2.86068,-4.485682 h -0.10156 q -3.26693,9.51303 -3.57162,10.105478 h -0.20313 q -5.83985,-2.640627 -6.63542,-3.165367 v -0.101563 q 7.2448,-17.028661 7.54949,-17.350276 z m 21.60679,5.128911 q 10.0547,1.388022 10.0547,1.709637 3.96094,3.402347 3.96094,3.639326 -1.60808,5.027349 -1.82813,6.110683 1.60807,3.571618 1.82813,4.265629 0,0.203125 -5.2474,1.083334 -0.0677,-0.287761 -0.96485,-1.286459 -7.2448,1.388022 -7.80339,1.388022 l -2.57292,-6.957038 5.67058,-2.996096 q 1.37109,0.220052 4.28255,0.220052 0,-0.372396 0.10157,-2.251304 -0.49089,0 -8.76824,0.643229 l -0.10156,-0.220052 q 1.15104,-5.348963 1.38802,-5.348963 z m 3.52084,9.953134 q 0,0.186198 1.08333,3.960941 h 0.10156 q 2.13282,-1.388022 2.13282,-1.828126 l 0.22005,-1.8112 q -0.40625,0 -3.53776,-0.321615 z m 23.75652,-9.953134 q 3.35157,1.878908 4.11329,2.437502 -2.74219,5.704432 -2.94532,5.805995 h -0.11849 l -2.42057,-2.115887 -2.86068,3.486982 0.32161,6.347662 q -0.22005,0.203125 -5.60287,0.947918 -0.20312,-1.455731 -2.64063,-14.269545 0,-0.203125 7.07553,-1.04948 0.11849,0.135417 0.64323,3.165368 4.23178,-4.756515 4.4349,-4.756515 z m 7.30339,-6.787767 6.65235,1.04948 q -1.2526,4.790369 -1.64193,4.790369 -5.2474,-0.355469 -5.2474,-0.694011 v -4.908858 q 0.0508,-0.23698 0.23698,-0.23698 z m -1.86198,8.057299 h 0.10157 q 7.71875,1.40495 7.71875,1.641929 -2.21745,12.559907 -2.69141,13.998711 h -5.36589 q -0.23698,0 -0.23698,-0.23698 z m 15.3607,-1.252605 q 6.43229,1.726564 6.82162,2.09896 3.53776,5.010422 3.97786,5.772141 -2.28515,7.244798 -2.6237,7.244798 -7.61719,1.777346 -7.97266,1.777346 -6.29688,-3.673181 -6.70313,-4.096358 -0.22005,-6.838548 -0.22005,-7.549486 -0.10157,-0.203126 -0.10157,-0.304688 6.50001,-4.942713 6.72006,-4.942713 z m -0.32162,6.195318 q -0.10156,0.677084 -0.30469,4.925786 l 3.77475,0.846355 q 1.35416,-4.231775 1.35416,-4.519535 -4.5026,-1.354168 -4.82422,-1.354168 z"
       id="text15"
       style="font-size:34.6667px;line-height:125%;font-family:'New Super Mario Font U';-inkscape-font-specification:'New Super Mario Font U';text-align:center;letter-spacing:-0.5px;white-space:pre;fill:#4bc633;stroke:#000000;stroke-width:1.27661;stroke-linejoin:round;filter:url(#filter20)"
       transform="matrix(0.31267716,0,0,0.31398295,-5.0548553,205.80333)"
       aria-label="Tu remportes une&#10;figurine Mario" /><path
       style="font-size:34.6667px;line-height:125%;font-family:'New Super Mario Font U';-inkscape-font-specification:'New Super Mario Font U';text-align:center;letter-spacing:-0.5px;white-space:pre;fill:#4bc633;stroke:#000000;stroke-width:0.880886;stroke-linejoin:round;filter:url(#filter3)"
       d="m 284.20671,-93.726335 q 1.55729,1.506512 1.55729,1.895835 l 0.54167,2.031252 q -0.0846,3.520837 -0.33855,3.520837 -4.13021,-3.537764 -4.13021,-3.656254 l -0.8125,-3.046877 q 2.33594,-0.609376 3.1823,-0.744793 z"
       id="text3"
       transform="matrix(-0.58987781,-0.34056611,-0.34056611,0.58987781,250.00341,289.12009)"
       aria-label="`" /></g></svg>
