<?xml version="1.0" encoding="UTF-8" standalone="no"?>
<!-- Created with Inkscape (http://www.inkscape.org/) -->

<svg
   width="141.2522mm"
   height="48.640816mm"
   viewBox="0 0 141.2522 48.640816"
   version="1.1"
   id="svg1"
   inkscape:version="1.3.2 (091e20e, 2023-11-25, custom)"
   sodipodi:docname="win-banane.svg"
   xml:space="preserve"
   xmlns:inkscape="http://www.inkscape.org/namespaces/inkscape"
   xmlns:sodipodi="http://sodipodi.sourceforge.net/DTD/sodipodi-0.dtd"
   xmlns="http://www.w3.org/2000/svg"
   xmlns:svg="http://www.w3.org/2000/svg"><sodipodi:namedview
     id="namedview1"
     pagecolor="#ffffff"
     bordercolor="#000000"
     borderopacity="0.25"
     inkscape:showpageshadow="2"
     inkscape:pageopacity="0.0"
     inkscape:pagecheckerboard="0"
     inkscape:deskcolor="#d1d1d1"
     inkscape:document-units="mm"
     inkscape:zoom="1.0353085"
     inkscape:cx="258.86004"
     inkscape:cy="96.106618"
     inkscape:window-width="1366"
     inkscape:window-height="705"
     inkscape:window-x="-8"
     inkscape:window-y="-8"
     inkscape:window-maximized="1"
     inkscape:current-layer="layer1" /><defs
     id="defs1"><rect
       x="104.27447"
       y="-102.24972"
       width="360.40494"
       height="68.841393"
       id="rect3" /><filter
       style="color-interpolation-filters:sRGB"
       inkscape:label="Drop Shadow"
       id="filter3"
       x="-0.99226948"
       y="-0.70361084"
       width="3.1738896"
       height="2.5414877"><feFlood
         result="flood"
         in="SourceGraphic"
         flood-opacity="1.000000"
         flood-color="rgb(255,255,255)"
         id="feFlood2-2" /><feGaussianBlur
         result="blur"
         in="SourceGraphic"
         stdDeviation="2.000000"
         id="feGaussianBlur2-6" /><feOffset
         result="offset"
         in="blur"
         dx="1.000000"
         dy="1.000000"
         id="feOffset2-2" /><feComposite
         result="comp1"
         operator="in"
         in="flood"
         in2="offset"
         id="feComposite2-4" /><feComposite
         result="comp2"
         operator="over"
         in="SourceGraphic"
         in2="comp1"
         id="feComposite3-4" /></filter><rect
       x="6.0742407"
       y="-147.80652"
       width="569.96625"
       height="100.22497"
       id="rect15-6" /><filter
       style="color-interpolation-filters:sRGB"
       inkscape:label="Drop Shadow"
       id="filter20"
       x="-0.017760689"
       y="-0.31669854"
       width="1.0422505"
       height="1.7533873"><feFlood
         result="flood"
         in="SourceGraphic"
         flood-opacity="0.498039"
         flood-color="rgb(255,255,255)"
         id="feFlood19" /><feGaussianBlur
         result="blur"
         in="SourceGraphic"
         stdDeviation="1.000000"
         id="feGaussianBlur19" /><feOffset
         result="offset"
         in="blur"
         dx="1.000000"
         dy="1.000000"
         id="feOffset19" /><feComposite
         result="comp1"
         operator="in"
         in="flood"
         in2="offset"
         id="feComposite19" /><feComposite
         result="fbSourceGraphic"
         operator="over"
         in="SourceGraphic"
         in2="comp1"
         id="feComposite20" /><feColorMatrix
         result="fbSourceGraphicAlpha"
         in="fbSourceGraphic"
         values="0 0 0 -1 0 0 0 0 -1 0 0 0 0 -1 0 0 0 0 1 0"
         id="feColorMatrix10" /><feFlood
         id="feFlood10"
         result="flood"
         in="fbSourceGraphic"
         flood-opacity="1.000000"
         flood-color="rgb(255,255,255)" /><feGaussianBlur
         id="feGaussianBlur10"
         result="blur"
         in="fbSourceGraphic"
         stdDeviation="1.000000" /><feOffset
         id="feOffset10"
         result="offset"
         in="blur"
         dx="1.000000"
         dy="1.000000" /><feComposite
         id="feComposite10"
         result="comp1"
         operator="in"
         in="flood"
         in2="offset" /><feComposite
         id="feComposite11"
         result="comp2"
         operator="over"
         in="fbSourceGraphic"
         in2="comp1" /></filter><rect
       x="104.27447"
       y="-102.24972"
       width="360.40494"
       height="68.841393"
       id="rect2-5" /><filter
       style="color-interpolation-filters:sRGB"
       inkscape:label="Drop Shadow"
       id="filter15"
       x="-0.022153083"
       y="-0.12888208"
       width="1.0521053"
       height="1.3031381"><feFlood
         result="flood"
         in="SourceGraphic"
         flood-opacity="0.498039"
         flood-color="rgb(255,255,255)"
         id="feFlood14" /><feGaussianBlur
         result="blur"
         in="SourceGraphic"
         stdDeviation="1.000000"
         id="feGaussianBlur14" /><feOffset
         result="offset"
         in="blur"
         dx="1.000000"
         dy="1.000000"
         id="feOffset14" /><feComposite
         result="comp1"
         operator="in"
         in="flood"
         in2="offset"
         id="feComposite14" /><feComposite
         result="comp2"
         operator="over"
         in="SourceGraphic"
         in2="comp1"
         id="feComposite15" /></filter><rect
       x="6.0742407"
       y="-147.80652"
       width="569.96625"
       height="100.22497"
       id="rect9" /></defs><g
     inkscape:label="Calque 1"
     inkscape:groupmode="layer"
     id="layer1"
     transform="translate(-15.272131,-131.11049)"><path
       style="font-size:34.6667px;line-height:125%;font-family:'New Super Mario Font U';-inkscape-font-specification:'New Super Mario Font U';text-align:center;letter-spacing:-0.5px;white-space:pre;fill:#4bc633;stroke:#000000;stroke-width:0.880886;stroke-linejoin:round;filter:url(#filter15)"
       d="m 231.83621,-92.626073 q 6.4323,1.625001 6.83855,1.929689 -2.28516,5.467453 -2.45443,5.60287 -0.42318,0 -5.50131,-1.92969 -2.94531,2.74219 -2.94531,3.063805 -0.22005,5.07813 -0.22005,5.907558 3.52083,1.625001 4.18099,1.828126 3.28386,-1.421876 3.77474,-1.726564 l -0.60937,-1.946616 q -0.60938,0.338542 -3.67318,1.540366 l -0.10156,-0.203125 v -0.829428 q 0,-1.066407 -0.10157,-3.250003 0.79558,-0.203125 9.27605,-1.015626 0.20313,1.04948 0.71094,8.954435 -0.27083,0.304688 -10.19011,4.079431 -8.44662,-3.080732 -8.56511,-3.470055 -2.64063,-9.174488 -2.64063,-9.665373 3.47005,-6.2461 3.97787,-6.736986 0.42317,-0.203125 8.24349,-2.132814 z m 16.93492,0.05078 q 9.39454,1.354168 10.35938,1.591147 0,0.135417 6.46615,19.381528 -0.67708,0.253907 -7.80339,0.981772 -0.49089,-1.658855 -1.10026,-5.128911 -6.09376,0.558595 -6.09376,0.981772 l -1.10026,3.91016 h -0.11849 q -7.19402,-1.320314 -7.19402,-1.591147 5.73829,-17.942725 6.58465,-20.126321 z m 3.28385,11.713552 h 3.67318 l -1.35416,-5.36589 q -1.57422,0 -1.57422,0.609376 -0.25391,1.235678 -0.7448,4.756514 z m 27.02347,-11.764333 q 6.43229,1.625001 6.83854,1.929689 -2.28515,5.467453 -2.45442,5.60287 -0.42318,0 -5.50131,-1.92969 -2.94532,2.74219 -2.94532,3.063805 -0.22005,5.07813 -0.22005,5.907558 3.52084,1.625001 4.18099,1.828126 3.28386,-1.421876 3.77475,-1.726564 l -0.60938,-1.946616 q -0.60937,0.338542 -3.67318,1.540366 l -0.10156,-0.203125 v -0.829428 q 0,-1.066407 -0.10156,-3.250003 0.79557,-0.203125 9.27605,-1.015626 0.20312,1.04948 0.71093,8.954435 -0.27083,0.304688 -10.19011,4.079431 -8.44662,-3.080732 -8.56511,-3.470055 -2.64063,-9.174488 -2.64063,-9.665373 3.47006,-6.2461 3.97787,-6.736986 0.42318,-0.203125 8.2435,-2.132814 z m 25.21226,-0.03385 h 1.35416 q 0.23698,0 1.15105,5.196619 0.10156,0.152344 3.31771,16.114598 l -0.20313,0.101563 q -6.14453,-0.186199 -6.14453,-0.524741 0,-1.777345 -1.45573,-2.488283 0,-0.06771 -4.77345,-3.842451 h -0.10156 q 0.10156,0.152343 0.6263,5.924484 -4.95964,1.455731 -5.82292,1.557293 -0.27083,0 -1.65885,-11.645844 -0.22006,-0.727865 -1.15105,-8.209643 l 6.02605,-1.658855 q 0.20313,0 1.15104,7.481777 l 5.92449,5.19662 h 0.10156 q 0,-0.253907 -2.60677,-13.000012 0.11849,0 0.11849,-0.101563 2.60677,-0.101562 4.14714,-0.101562 z m 10.181,0.01693 q 16.77475,1.98047 16.77475,2.21745 l -1.625,5.941411 q -7.92188,-2.09896 -8.51433,-2.335939 0,0.152344 -1.74349,3.842451 h 0.11849 q 3.53776,-0.220052 7.6849,-0.694011 l 0.11849,0.236979 q -0.69401,3.927087 -1.04948,5.348964 l -6.51693,-0.930991 q 0.10156,1.929689 0.10156,2.911461 v 0.592449 l 0.11849,0.236979 q 2.16667,-0.236979 8.75131,-0.710938 0.22005,1.04948 0.8125,5.247401 -0.11849,0 -0.11849,0.118489 -15.35288,-0.812501 -15.60678,-1.04948 l -2.45443,-6.990892 q 2.79297,-13.016939 3.14844,-13.981783 z m 33.2943,0.626302 0.0677,0.135417 q -1.69271,14.946628 -1.89584,15.708348 -3.58854,-0.338542 -4.53646,-0.473959 v -0.06771 l -1.08333,-14.151055 q 0.40625,-0.135417 7.44792,-1.151043 z m -6.70313,16.182307 q 0.11849,0.06771 5.28125,0.40625 l 0.0677,0.135417 q -0.79557,4.671879 -1.01562,4.671879 h -3.92709 q -0.20313,0 -0.54167,-4.671879 -0.0677,0 -0.0677,-0.40625 0.20313,-0.06771 0.20313,-0.135417 z"
       id="text2"
       transform="matrix(0.68113223,0,0,0.68113223,-107.69609,204.59602)"
       aria-label="GAGNE !" /><path
       style="font-size:18.0144px;line-height:125%;font-family:'New Super Mario Font U';-inkscape-font-specification:'New Super Mario Font U';text-align:center;letter-spacing:-0.5px;white-space:pre;fill:#4bc633;stroke:#000000;stroke-width:0.957459;stroke-linejoin:round;filter:url(#filter20)"
       d="m 147.62708,-128.4244 q 0.088,0.009 0.87961,1.82958 -2.7004,1.55691 -2.74438,1.61848 l -1.05553,6.72022 q 1.1171,0.48379 2.2518,1.1259 -1.09951,1.38099 -1.51293,1.75922 -3.10502,-2.11986 -3.20178,-2.2518 1.23146,-7.6526 1.40738,-8.47944 z m 5.19987,3.1314 q 0.27268,1.1259 0.37823,1.38979 3.88788,-0.88841 4.10778,-0.88841 2.64763,3.80871 2.64763,3.97584 l -2.02311,4.29249 -4.35406,-0.69489 v 0.13194 q 0.51017,3.91426 0.51017,4.16055 -0.0616,0 -0.0616,0.0616 -0.63332,-0.0616 -0.94998,-0.0616 h -0.75646 q -0.65971,0 -2.02311,-0.0616 -0.12314,-0.36944 -1.89116,-11.23261 0.29907,-0.12315 4.41564,-1.07313 z m 0.31666,3.59761 q 0.17592,2.0231 0.31666,2.0231 1.8032,0.62452 2.20782,0.62452 l 0.69489,-3.02585 h -0.0616 q -1.02914,0.0616 -3.1578,0.37823 z m 10.7678,-3.59761 q 3.34251,0.89721 3.54482,1.09072 1.83839,2.60364 2.06709,2.99947 -1.18748,3.76473 -1.3634,3.76473 -3.95824,0.92359 -4.14296,0.92359 -3.27215,-1.90876 -3.48325,-2.12866 -0.11435,-3.55362 -0.11435,-3.92306 -0.0528,-0.10555 -0.0528,-0.15833 3.3777,-2.56846 3.49205,-2.56846 z m -0.16713,3.21938 q -0.0528,0.35184 -0.15833,2.55966 l 1.96153,0.4398 q 0.70369,-2.19902 0.70369,-2.34855 -2.33976,-0.70369 -2.50689,-0.70369 z m 10.82937,-3.22817 0.0616,0.11435 -1.18748,6.298 h 0.0616 l 3.02585,-0.8884 v -3.56242 q 0.0176,-0.12315 0.11435,-0.12315 3.41289,0.2375 3.79991,0.2375 0,0.0616 0.0616,0.0616 0,1.50413 -0.94998,6.23643 0,0.27268 -2.72679,0.41342 -0.14074,-0.16713 -0.2375,-0.71249 -3.49205,0.71249 -3.98463,0.71249 -2.78836,-2.07588 -2.78836,-2.13745 0.47499,-6.23643 0.59814,-6.47393 h 0.0528 q 2.22541,-0.0616 4.09898,-0.17592 z m 12.63257,0 q 1.74163,0.97637 2.13745,1.26664 -1.42497,2.96428 -1.53052,3.01706 h -0.0616 l -1.25784,-1.09952 -1.48654,1.812 0.16712,3.29854 q -0.11435,0.10555 -2.9115,0.49258 -0.10556,-0.75647 -1.37219,-7.41511 0,-0.10555 3.67676,-0.54536 0.0616,0.0704 0.33425,1.64487 2.19903,-2.4717 2.30458,-2.4717 z m 9.96873,-2.65642 q 0.46619,0.0528 3.39529,0.78285 l 0.0528,0.10555 q -0.43101,2.40134 -0.51897,2.40134 h -0.0528 l -1.41617,-0.73008 q 0,0.24629 -0.15833,2.19903 l 1.93514,-0.47499 q 0.088,0.26388 0.15833,2.34855 -0.28147,0.10556 -1.93514,0.31666 0.36944,1.5833 0.78285,3.87028 -1.35459,0.30787 -3.23696,0.62453 l -0.0528,-0.10556 q -0.24629,-4.07259 -0.41341,-4.07259 -1.70644,0.41342 -1.82959,0.46619 -0.10555,-0.51017 -0.36944,-2.77076 l 0.10556,-0.0528 h 1.88236 q -0.15833,-1.30182 -0.47499,-3.39529 z m 5.09432,2.65642 q 5.22488,0.72128 5.22488,0.8884 2.05828,1.76802 2.05828,1.89116 -0.83563,2.61244 -0.94998,3.17539 0.83563,1.85598 0.94998,2.21662 0,0.10555 -2.72679,0.56295 -0.0352,-0.14953 -0.50138,-0.6685 -3.76472,0.72128 -4.05499,0.72128 l -1.33701,-3.6152 2.94669,-1.55691 q 0.71248,0.11435 2.22541,0.11435 0,-0.19351 0.0528,-1.16988 -0.25509,0 -4.55638,0.33425 l -0.0528,-0.11435 q 0.59813,-2.77956 0.72128,-2.77956 z m 1.82958,5.1721 q 0,0.0968 0.56295,2.05829 h 0.0528 q 1.10831,-0.72128 1.10831,-0.94998 l 0.11435,-0.94118 q -0.21111,0 -1.83839,-0.16713 z m 7.00307,-8.69933 3.45687,0.54535 q -0.65091,2.4893 -0.85322,2.4893 -2.72679,-0.18472 -2.72679,-0.36064 v -2.55087 q 0.0264,-0.12314 0.12314,-0.12314 z m -0.96757,4.18694 h 0.0528 q 4.01102,0.73007 4.01102,0.85322 -1.15229,6.5267 -1.39858,7.27437 h -2.78836 q -0.12315,0 -0.12315,-0.12315 z m 10.51271,-0.65971 q 1.74163,0.97637 2.13745,1.26664 -1.42496,2.96428 -1.53052,3.01706 h -0.0616 l -1.25784,-1.09952 -1.48654,1.812 0.16713,3.29854 q -0.11435,0.10555 -2.91151,0.49258 -0.10556,-0.75647 -1.37219,-7.41511 0,-0.10555 3.67676,-0.54536 0.0616,0.0704 0.33426,1.64487 2.19902,-2.4717 2.30457,-2.4717 z m 7.32852,0.009 q 3.98463,2.04949 4.41564,2.39254 -0.57174,2.67401 -0.6773,2.75318 h -5.55913 v 0.0968 l 1.55691,1.92634 2.44531,-1.24904 q 0.36064,0.62452 1.03794,2.18143 -0.31666,0.10555 -4.61795,0.6773 -3.56241,-2.34856 -3.5888,-2.44532 0.57174,-4.56517 0.6773,-4.56517 3.72075,-1.5833 4.31008,-1.76802 z m -0.57174,2.12866 q -0.0704,0.17592 -0.93239,1.39858 0,0.36943 1.03794,0.36943 0,0.0528 1.50413,0.25509 0.41342,-0.57174 0.41342,-0.6685 -0.13194,-0.78285 -0.57175,-0.78285 z m 12.71311,-2.12866 q 3.96703,0.74767 4.15175,0.85323 v 0.10555 q -0.85322,2.41013 -0.85322,2.49809 h -0.0528 q -0.2199,0 -2.12865,-0.6861 -1.06433,1.78561 -1.06433,1.90876 l 1.75922,1.70644 q 2.04069,-1.91755 2.07588,-1.91755 1.59209,2.08467 1.59209,2.33976 -0.87081,0.50138 -3.03465,1.97033 -4.18694,-0.906 -4.52119,-1.01155 l -1.38099,-4.46842 z m 9.79143,-2.66521 q 0.0528,0.0792 0.49258,4.82026 3.39529,-1.03794 3.61519,-1.03794 l 2.24301,1.53052 q -0.54536,5.01377 -0.71249,5.8582 l -3.11381,0.10555 q 0,-0.0528 -0.0616,-0.0528 l 0.0616,-0.2199 q 0,-0.71248 0.2111,-4.32768 -1.28423,-0.0528 -1.90875,-0.0528 h -0.2199 q 0.37823,4.01981 0.37823,4.38045 l -2.95549,0.43981 q -0.16712,-0.56295 -1.97032,-10.51134 0,-0.28147 1.37219,-0.4398 1.73283,-0.49258 2.56846,-0.49258 z m 11.4275,2.65642 0.0616,0.11435 -1.18748,6.298 h 0.0616 l 3.02586,-0.8884 v -3.56242 q 0.0176,-0.12315 0.11435,-0.12315 3.41289,0.2375 3.79991,0.2375 0,0.0616 0.0616,0.0616 0,1.50413 -0.94998,6.23643 0,0.27268 -2.72679,0.41342 -0.14074,-0.16713 -0.2375,-0.71249 -3.49205,0.71249 -3.98463,0.71249 -2.78836,-2.07588 -2.78836,-2.13745 0.47499,-6.23643 0.59814,-6.47393 h 0.0528 q 2.22541,-0.0616 4.09898,-0.17592 z m 8.94701,-2.65642 3.87028,0.68609 -0.36944,2.9379 q 1.15229,-0.0616 1.68885,-0.0616 h 0.56295 l 0.12315,-0.0616 0.0616,0.12315 q -0.18472,2.67401 -0.31666,3.00826 l -0.12314,-0.0704 q -0.13194,0 -2.37495,-0.12314 -0.12314,2.06708 -0.18472,4.9434 l -0.12314,0.0616 q -2.83234,-0.18472 -3.3777,-0.31666 l 0.0616,-0.24629 q 0,-0.76526 0.24629,-4.74989 -2.37494,-0.13195 -2.37494,-0.31666 0.12314,-2.9379 0.31666,-2.9379 l 2.31337,0.43981 v -0.75647 q 0,-0.92359 -0.0704,-2.49809 0.0704,0 0.0704,-0.0616 z m 11.33954,2.66521 q 3.98463,2.04949 4.41564,2.39254 -0.57174,2.67401 -0.6773,2.75318 h -5.55913 v 0.0968 l 1.55691,1.92634 2.44532,-1.24904 q 0.36064,0.62452 1.03793,2.18143 -0.31666,0.10555 -4.61795,0.6773 -3.56241,-2.34856 -3.5888,-2.44532 0.57174,-4.56517 0.6773,-4.56517 3.72075,-1.5833 4.31008,-1.76802 z m -0.57174,2.12866 q -0.0704,0.17592 -0.93239,1.39858 0,0.36943 1.03794,0.36943 0,0.0528 1.50413,0.25509 0.41342,-0.57174 0.41342,-0.6685 -0.13194,-0.78285 -0.57175,-0.78285 z m 11.60341,-2.13745 q 1.74163,0.97637 2.13746,1.26664 -1.42497,2.96428 -1.53052,3.01706 h -0.0616 l -1.25784,-1.09952 -1.48654,1.812 0.16713,3.29854 q -0.11435,0.10555 -2.91151,0.49258 -0.10555,-0.75647 -1.37219,-7.41511 0,-0.10555 3.67677,-0.54536 0.0616,0.0704 0.33425,1.64487 2.19902,-2.4717 2.30457,-2.4717 z m 8.93959,-2.65642 3.87029,0.68609 -0.36944,2.9379 q 1.15229,-0.0616 1.68885,-0.0616 h 0.56295 l 0.12314,-0.0616 0.0616,0.12315 q -0.18472,2.67401 -0.31666,3.00826 l -0.12315,-0.0704 q -0.13194,0 -2.37494,-0.12314 -0.12315,2.06708 -0.18472,4.9434 l -0.12315,0.0616 q -2.83234,-0.18472 -3.3777,-0.31666 l 0.0616,-0.24629 q 0,-0.76526 0.24629,-4.74989 -2.37495,-0.13195 -2.37495,-0.31666 0.12315,-2.9379 0.31666,-2.9379 l 2.31337,0.43981 v -0.75647 q 0,-0.92359 -0.0704,-2.49809 0.0704,0 0.0704,-0.0616 z m 11.33955,2.66521 q 3.98463,2.04949 4.41564,2.39254 -0.57175,2.67401 -0.6773,2.75318 h -5.55913 v 0.0968 l 1.55691,1.92634 2.44531,-1.24904 q 0.36064,0.62452 1.03794,2.18143 -0.31666,0.10555 -4.61795,0.6773 -3.56242,-2.34856 -3.58881,-2.44532 0.57175,-4.56517 0.6773,-4.56517 3.72075,-1.5833 4.31009,-1.76802 z m -0.57175,2.12866 q -0.0704,0.17592 -0.93238,1.39858 0,0.36943 1.03794,0.36943 0,0.0528 1.50413,0.25509 0.41342,-0.57174 0.41342,-0.6685 -0.13195,-0.78285 -0.57175,-0.78285 z m 12.38627,-2.13745 q 2.53328,1.61848 2.79716,1.86477 -0.91479,2.0319 -1.04673,2.0319 l -3.20178,-1.85598 h -0.11435 q 0,0.088 -0.41342,0.98517 4.42444,2.38374 4.42444,2.44531 -1.24025,2.86753 -1.39858,3.02586 l -5.00498,0.29027 q -2.9203,-1.93514 -3.1402,-2.0407 v -0.0528 q 0,-0.21991 0.87081,-1.97912 l 3.90546,2.03189 0.29028,-1.16108 q -3.62399,-1.62728 -4.31009,-2.0319 v -0.12314 q 0,-0.33426 1.39858,-2.96429 z m 8.4822,0 q 5.22488,0.72128 5.22488,0.8884 2.05828,1.76802 2.05828,1.89116 -0.83562,2.61244 -0.94997,3.17539 0.83563,1.85598 0.94997,2.21662 0,0.10555 -2.72678,0.56295 -0.0352,-0.14953 -0.50138,-0.6685 -3.76473,0.72128 -4.055,0.72128 l -1.33701,-3.6152 2.94669,-1.55691 q 0.71249,0.11435 2.22542,0.11435 0,-0.19351 0.0528,-1.16988 -0.25508,0 -4.55637,0.33425 l -0.0528,-0.11435 q 0.59813,-2.77956 0.72128,-2.77956 z m 1.82959,5.1721 q 0,0.0968 0.56295,2.05829 h 0.0528 q 1.10831,-0.72128 1.10831,-0.94998 l 0.11435,-0.94118 q -0.21111,0 -1.83838,-0.16713 z m 11.11083,-7.83732 h 0.0528 q 3.97584,0.33425 3.97584,0.51897 l 1.16988,10.353 q 0,0.11435 -3.50965,0.58055 l -0.0528,-0.11435 v -0.94118 q -3.02586,0.81803 -4.15176,1.05553 -2.67401,-3.78232 -2.80595,-4.02861 1.97032,-3.58001 2.10226,-3.624 l 3.68557,0.17593 q -0.11435,-0.6773 -0.4662,-3.97584 z m -1.63607,6.3068 q 0.88841,2.71799 1.10831,2.98188 l 1.75042,-1.52173 q -0.27268,-1.5745 -0.40462,-1.5745 h -2.33976 q -0.11435,0.0176 -0.11435,0.11435 z m 10.67984,-3.64158 q 2.15505,4.9434 2.29578,5.12812 1.06433,-4.03741 1.24025,-4.30129 3.36011,0.30786 3.36011,0.52777 v 0.0616 q -2.35735,6.47393 -2.53327,6.78179 -2.60365,0.47499 -3.48326,0.58934 l -4.30129,-6.36838 v -0.12314 q 0.0616,-0.11435 3.42168,-2.29578 z m 12.30712,0.009 q 3.98463,2.04949 4.41564,2.39254 -0.57175,2.67401 -0.6773,2.75318 h -5.55913 v 0.0968 l 1.55691,1.92634 2.44531,-1.24904 q 0.36064,0.62452 1.03794,2.18143 -0.31666,0.10555 -4.61795,0.6773 -3.56242,-2.34856 -3.58881,-2.44532 0.57175,-4.56517 0.6773,-4.56517 3.72075,-1.5833 4.31009,-1.76802 z m -0.57175,2.12866 q -0.0704,0.17592 -0.93238,1.39858 0,0.36943 1.03794,0.36943 0,0.0528 1.50413,0.25509 0.41341,-0.57174 0.41341,-0.6685 -0.13194,-0.78285 -0.57174,-0.78285 z m 11.60342,-2.13745 q 1.74163,0.97637 2.13745,1.26664 -1.42497,2.96428 -1.53052,3.01706 h -0.0616 l -1.25784,-1.09952 -1.48654,1.812 0.16712,3.29854 q -0.11435,0.10555 -2.91151,0.49258 -0.10555,-0.75647 -1.37219,-7.41511 0,-0.10555 3.67677,-0.54536 0.0616,0.0704 0.33425,1.64487 2.19903,-2.4717 2.30458,-2.4717 z m 9.43959,0 q 2.53327,1.61848 2.79716,1.86477 -0.9148,2.0319 -1.04674,2.0319 l -3.20178,-1.85598 h -0.11435 q 0,0.088 -0.41341,0.98517 4.42443,2.38374 4.42443,2.44531 -1.24025,2.86753 -1.39858,3.02586 l -5.00497,0.29027 q -2.92031,-1.93514 -3.14021,-2.0407 v -0.0528 q 0,-0.21991 0.87082,-1.97912 l 3.90546,2.03189 0.29027,-1.16108 q -3.62399,-1.62728 -4.31008,-2.0319 v -0.12314 q 0,-0.33426 1.39857,-2.96429 z m 4.51377,0 q 5.22488,0.72128 5.22488,0.8884 2.05828,1.76802 2.05828,1.89116 -0.83563,2.61244 -0.94998,3.17539 0.83563,1.85598 0.94998,2.21662 0,0.10555 -2.72679,0.56295 -0.0352,-0.14953 -0.50138,-0.6685 -3.76472,0.72128 -4.05499,0.72128 l -1.33701,-3.6152 2.94669,-1.55691 q 0.71248,0.11435 2.22541,0.11435 0,-0.19351 0.0528,-1.16988 -0.25509,0 -4.55638,0.33425 l -0.0528,-0.11435 q 0.59813,-2.77956 0.72128,-2.77956 z m 1.82958,5.1721 q 0,0.0968 0.56295,2.05829 h 0.0528 q 1.10831,-0.72128 1.10831,-0.94998 l 0.11435,-0.94118 q -0.21111,0 -1.83839,-0.16713 z m 7.00308,-8.69933 3.45687,0.54535 q -0.65092,2.4893 -0.85323,2.4893 -2.72678,-0.18472 -2.72678,-0.36064 v -2.55087 q 0.0264,-0.12314 0.12314,-0.12314 z m -0.96757,4.18694 h 0.0528 q 4.01102,0.73007 4.01102,0.85322 -1.15229,6.5267 -1.39858,7.27437 h -2.78836 q -0.12315,0 -0.12315,-0.12315 z m 10.5127,-0.65971 q 1.74162,0.97637 2.13745,1.26664 -1.42497,2.96428 -1.53052,3.01706 h -0.0616 l -1.25784,-1.09952 -1.48654,1.812 0.16713,3.29854 q -0.11435,0.10555 -2.91151,0.49258 -0.10555,-0.75647 -1.37219,-7.41511 0,-0.10555 3.67677,-0.54536 0.0616,0.0704 0.33425,1.64487 2.19902,-2.4717 2.30458,-2.4717 z m 7.32852,0.009 q 3.98463,2.04949 4.41564,2.39254 -0.57174,2.67401 -0.6773,2.75318 h -5.55913 v 0.0968 l 1.55691,1.92634 2.44531,-1.24904 q 0.36064,0.62452 1.03794,2.18143 -0.31666,0.10555 -4.61795,0.6773 -3.56241,-2.34856 -3.5888,-2.44532 0.57174,-4.56517 0.6773,-4.56517 3.72075,-1.5833 4.31008,-1.76802 z m -0.57174,2.12866 q -0.0704,0.17592 -0.93239,1.39858 0,0.36943 1.03794,0.36943 0,0.0528 1.50413,0.25509 0.41342,-0.57174 0.41342,-0.6685 -0.13194,-0.78285 -0.57175,-0.78285 z m 12.3863,-2.13745 q 2.53327,1.61848 2.79716,1.86477 -0.9148,2.0319 -1.04674,2.0319 l -3.20178,-1.85598 h -0.11435 q 0,0.088 -0.41341,0.98517 4.42443,2.38374 4.42443,2.44531 -1.24025,2.86753 -1.39858,3.02586 l -5.00498,0.29027 q -2.9203,-1.93514 -3.1402,-2.0407 v -0.0528 q 0,-0.21991 0.87081,-1.97912 l 3.90547,2.03189 0.29027,-1.16108 q -3.62399,-1.62728 -4.31009,-2.0319 v -0.12314 q 0,-0.33426 1.39858,-2.96429 z m 8.0234,-1.90875 q 0.17593,0.82683 1.40738,8.47943 -0.0968,0.13194 -3.21057,2.2518 -0.41342,-0.37823 -1.52173,-1.75922 1.14349,-0.64211 2.2606,-1.1259 l -1.05553,-6.72021 q -0.044,-0.0616 -2.75318,-1.61848 0.80044,-1.8208 0.87961,-1.82959 z"
       id="text9"
       transform="matrix(0.31267716,0,0,0.31398295,-5.3240143,212.90332)"
       aria-label="(pour faire chuter tes adversaires)" /><path
       d="m 97.351054,-138.53665 0.101563,0.22005 q -0.440105,6.46616 -0.660157,6.46616 h -0.101563 q -6.990891,-0.5586 -7.786465,-0.66016 v 15.01433 q 0,0.40626 -3.182295,0.54167 0,0.11849 -3.605472,0.44011 l -0.118489,-0.22006 q 0.778646,-13.44011 0.998698,-15.87761 -2.674481,0.42317 -7.888028,1.08333 -1.540366,-5.75521 -1.540366,-5.90756 0,-0.22005 23.782574,-1.10026 z m 10.468756,5.11198 0.11849,0.22006 -2.28515,12.1198 h 0.11849 l 5.82292,-1.70964 v -6.85547 q 0.0339,-0.23698 0.22005,-0.23698 6.56771,0.45703 7.31251,0.45703 0,0.11849 0.11849,0.11849 0,2.89453 -1.82813,12.00131 0,0.52474 -5.2474,0.79558 -0.27083,-0.32162 -0.45703,-1.3711 -6.72006,1.3711 -7.66798,1.3711 -5.365889,-3.9948 -5.365889,-4.11329 0.914063,-12.00131 1.151043,-12.45834 h 0.101562 q 4.282554,-0.11849 7.888024,-0.33855 z m 32.87113,0 q 3.35157,1.87891 4.11329,2.43751 -2.74219,5.70443 -2.94532,5.80599 h -0.11849 l -2.42057,-2.11589 -2.86068,3.48699 0.32161,6.34766 q -0.22005,0.20312 -5.60287,0.94792 -0.20312,-1.45573 -2.64063,-14.26955 0,-0.20312 7.07553,-1.04948 0.11849,0.13542 0.64323,3.16537 4.23178,-4.75652 4.4349,-4.75652 z m 14.56512,0.0169 q 7.66797,3.94402 8.4974,4.60417 -1.10026,5.14584 -1.30339,5.29818 h -10.69792 v 0.1862 l 2.99609,3.70704 4.70574,-2.40365 q 0.69401,1.20182 1.9974,4.19792 -0.60938,0.20313 -8.88673,1.30339 -6.85548,-4.51954 -6.90626,-4.70574 1.10026,-8.78516 1.30339,-8.78516 7.16016,-3.04688 8.29428,-3.40235 z m -1.10026,4.09636 q -0.13542,0.33854 -1.79428,2.69141 0,0.71094 1.9974,0.71094 0,0.10156 2.89454,0.49088 0.79557,-1.10026 0.79557,-1.28646 -0.25391,-1.50651 -1.10026,-1.50651 z m 29.44403,-4.11329 q 4.13021,1.70964 7.12631,3.21615 -0.77865,10.07163 -0.9987,11.01955 -4.97657,1.23567 -5.56902,1.23567 0,-2.20052 -0.33854,-8.6836 -1.87891,0.1862 -1.87891,0.32162 0,0.64323 0.22006,7.34636 0.10156,0 0.10156,0.11849 0,0.20312 -5.23048,1.11719 -0.22005,-0.27084 -1.33724,-8.2435 -2.11588,0.54167 -2.11588,0.77864 l 0.67708,6.90626 q -0.20312,0.22005 -5.56902,1.77735 -3.11458,-11.01954 -3.89323,-14.79429 5.87371,-1.45573 6.56772,-1.45573 0.77864,3.08073 0.77864,3.55469 h 0.11849 q 2.86068,-2.64062 3.9948,-3.55469 h 0.11849 l 3.55469,2.55599 h 0.11849 q 3.33464,-3.21615 3.55469,-3.21615 z m 16.7995,0.0169 q 0.52474,2.16667 0.72786,2.67448 7.48178,-1.70963 7.90496,-1.70963 5.09505,7.32943 5.09505,7.65105 l -3.89323,8.26042 -8.37891,-1.33724 v 0.25391 q 0.98177,7.53255 0.98177,8.00651 -0.11849,0 -0.11849,0.11849 -1.21875,-0.11849 -1.82813,-0.11849 h -1.45573 q -1.26953,0 -3.89323,-0.11849 -0.23698,-0.71093 -3.63933,-21.6159 0.57552,-0.23698 8.49741,-2.06511 z m 0.60937,6.92319 q 0.33854,3.89323 0.60938,3.89323 3.47005,1.20182 4.2487,1.20182 l 1.33724,-5.82292 h -0.11849 q -1.98047,0.11849 -6.07683,0.72787 z m 21.18362,-6.92319 q 6.43229,1.72657 6.82162,2.09896 3.53776,5.01042 3.97787,5.77214 -2.28516,7.2448 -2.6237,7.2448 -7.6172,1.77735 -7.97267,1.77735 -6.29688,-3.67318 -6.70313,-4.09636 -0.22005,-6.83855 -0.22005,-7.54949 -0.10156,-0.20312 -0.10156,-0.30469 6.5,-4.94271 6.72005,-4.94271 z m -0.32162,6.19532 q -0.10156,0.67708 -0.30469,4.92579 l 3.77475,0.84635 q 1.35417,-4.23177 1.35417,-4.51953 -4.50261,-1.35417 -4.82423,-1.35417 z m 24.31514,-6.21225 q 3.35156,1.87891 4.11328,2.43751 -2.74219,5.70443 -2.94531,5.80599 h -0.11849 l -2.42058,-2.11589 -2.86068,3.48699 0.32162,6.34766 q -0.22006,0.20312 -5.60287,0.94792 -0.20313,-1.45573 -2.64063,-14.26955 0,-0.20312 7.07553,-1.04948 0.11849,0.13542 0.64323,3.16537 4.23177,-4.75652 4.4349,-4.75652 z m 10.02865,-5.11198 7.44792,1.32031 -0.71093,5.65366 q 2.21745,-0.11849 3.25,-0.11849 h 1.08333 l 0.23698,-0.11849 0.11849,0.23698 q -0.35547,5.14583 -0.60937,5.78906 l -0.23698,-0.13541 q -0.25391,0 -4.57032,-0.23698 -0.23698,3.97787 -0.35547,9.51303 l -0.23698,0.11849 q -5.45052,-0.35547 -6.5,-0.60938 l 0.11849,-0.47396 q 0,-1.47266 0.47396,-9.14063 -4.57032,-0.25391 -4.57032,-0.60938 0.23698,-5.65365 0.60937,-5.65365 l 4.45183,0.84636 v -1.45573 q 0,-1.77735 -0.13542,-4.8073 0.13542,0 0.13542,-0.11849 z m 22.28387,5.12891 q 7.66798,3.94402 8.4974,4.60417 -1.10026,5.14584 -1.30338,5.29818 h -10.69793 v 0.1862 l 2.9961,3.70704 4.70573,-2.40365 q 0.69401,1.20182 1.9974,4.19792 -0.60938,0.20313 -8.88673,1.30339 -6.85547,-4.51954 -6.90626,-4.70574 1.10027,-8.78516 1.30339,-8.78516 7.16016,-3.04688 8.29428,-3.40235 z m -1.10026,4.09636 q -0.13542,0.33854 -1.79427,2.69141 0,0.71094 1.99739,0.71094 0,0.10156 2.89454,0.49088 0.79557,-1.10026 0.79557,-1.28646 -0.25391,-1.50651 -1.10026,-1.50651 z m 24.2982,-4.11329 q 4.87501,3.11459 5.38282,3.58855 -1.76042,3.91016 -2.01433,3.91016 l -6.16146,-3.57162 h -0.22005 q 0,0.16927 -0.79558,1.89584 8.51433,4.58724 8.51433,4.70573 -2.38672,5.51823 -2.6914,5.82292 l -9.63152,0.5586 q -5.6198,-3.72397 -6.04298,-3.92709 v -0.10156 q 0,-0.42318 1.67578,-3.8086 l 7.51564,3.91016 0.55859,-2.23438 q -6.97396,-3.13151 -8.29428,-3.91016 v -0.23698 q 0,-0.64323 2.69141,-5.70443 z m 23.81512,0 0.11849,0.22006 -2.28516,12.1198 h 0.11849 l 5.82292,-1.70964 v -6.85547 q 0.0339,-0.23698 0.22006,-0.23698 6.56771,0.45703 7.3125,0.45703 0,0.11849 0.11849,0.11849 0,2.89453 -1.82812,12.00131 0,0.52474 -5.2474,0.79558 -0.27084,-0.32162 -0.45704,-1.3711 -6.72005,1.3711 -7.66797,1.3711 -5.36589,-3.9948 -5.36589,-4.11329 0.91406,-12.00131 1.15104,-12.45834 h 0.10156 q 4.28256,-0.11849 7.88803,-0.33855 z m 27.64979,0 5.63672,3.87631 q -0.59245,9.64845 -0.82943,11.27345 -0.98177,0.11849 -5.97526,0.35547 l -0.11849,-0.23698 -0.59245,-9.03907 -0.23698,-0.11849 q -3.23308,0.69401 -4.45183,1.04948 0.33854,5.77214 0.33854,8.34506 -5.04427,1.40495 -5.51823,1.40495 -3.28386,-14.45575 -3.28386,-15.26825 7.14324,-0.93099 7.75261,-0.93099 v 0.11849 q 0.11849,0.0846 0.35547,3.52084 6.55079,-4.35027 6.92319,-4.35027 z m 16.42709,0.0169 q 7.66797,3.94402 8.4974,4.60417 -1.10026,5.14584 -1.30339,5.29818 h -10.69792 v 0.1862 l 2.99609,3.70704 4.70574,-2.40365 q 0.69401,1.20182 1.99739,4.19792 -0.60937,0.20313 -8.88672,1.30339 -6.85548,-4.51954 -6.90626,-4.70574 1.10026,-8.78516 1.30339,-8.78516 7.16016,-3.04688 8.29428,-3.40235 z m -1.10027,4.09636 q -0.13541,0.33854 -1.79427,2.69141 0,0.71094 1.9974,0.71094 0,0.10156 2.89453,0.49088 0.79558,-1.10026 0.79558,-1.28646 -0.25391,-1.50651 -1.10026,-1.50651 z m 26.64196,-9.22527 0.11849,0.22005 q 0,0.96485 0.44011,7.46485 6.0599,-1.92969 6.78776,-2.03125 l 6.09376,6.55079 q -3.84245,8.61589 -4.181,9.14063 -1.0664,-0.11849 -7.78646,-0.33854 v 0.79557 q 0,0.22006 -0.23698,0.22006 h -6.55079 q -0.35547,0 -1.35417,-10.15626 -0.22005,-0.86328 -1.23567,-10.17319 5.75521,-1.35417 7.90495,-1.69271 z m 1.13412,12.42449 0.4401,4.181 h 3.40235 l 1.23568,-4.73959 q -5.07813,0.4401 -5.07813,0.55859 z m 16.10547,-7.31251 q 10.0547,1.38803 10.0547,1.70964 3.96094,3.40235 3.96094,3.63933 -1.60808,5.02735 -1.82813,6.11068 1.60807,3.57162 1.82813,4.26563 0,0.20312 -5.2474,1.08333 -0.0677,-0.28776 -0.96485,-1.28646 -7.2448,1.38803 -7.80339,1.38803 l -2.57292,-6.95704 5.67058,-2.9961 q 1.37109,0.22005 4.28255,0.22005 0,-0.37239 0.10157,-2.2513 -0.49089,0 -8.76824,0.64323 l -0.10156,-0.22005 q 1.15104,-5.34897 1.38802,-5.34897 z m 3.52084,9.95314 q 0,0.1862 1.08333,3.96094 h 0.10156 q 2.13282,-1.38802 2.13282,-1.82813 l 0.22005,-1.8112 q -0.40625,0 -3.53776,-0.32161 z m 26.63413,-9.95314 5.63672,3.87631 q -0.59245,9.64845 -0.82943,11.27345 -0.98177,0.11849 -5.97526,0.35547 l -0.11849,-0.23698 -0.59245,-9.03907 -0.23698,-0.11849 q -3.23307,0.69401 -4.45183,1.04948 0.33855,5.77214 0.33855,8.34506 -5.04428,1.40495 -5.51824,1.40495 -3.28385,-14.45575 -3.28385,-15.26825 7.14323,-0.93099 7.75261,-0.93099 v 0.11849 q 0.11849,0.0846 0.35547,3.52084 6.55078,-4.35027 6.92318,-4.35027 z m 9.40237,0 q 10.0547,1.38803 10.0547,1.70964 3.96094,3.40235 3.96094,3.63933 -1.60807,5.02735 -1.82813,6.11068 1.60808,3.57162 1.82813,4.26563 0,0.20312 -5.2474,1.08333 -0.0677,-0.28776 -0.96485,-1.28646 -7.24479,1.38803 -7.80339,1.38803 l -2.57292,-6.95704 5.67058,-2.9961 q 1.3711,0.22005 4.28256,0.22005 0,-0.37239 0.10156,-2.2513 -0.49089,0 -8.76824,0.64323 l -0.10156,-0.22005 q 1.15104,-5.34897 1.38802,-5.34897 z m 3.52084,9.95314 q 0,0.1862 1.08333,3.96094 h 0.10157 q 2.13281,-1.38802 2.13281,-1.82813 l 0.22005,-1.8112 q -0.40625,0 -3.53776,-0.32161 z m 26.63413,-9.95314 5.63673,3.87631 q -0.59245,9.64845 -0.82943,11.27345 -0.98177,0.11849 -5.97527,0.35547 l -0.11849,-0.23698 -0.59245,-9.03907 -0.23698,-0.11849 q -3.23307,0.69401 -4.45182,1.04948 0.33854,5.77214 0.33854,8.34506 -5.04428,1.40495 -5.51824,1.40495 -3.28385,-14.45575 -3.28385,-15.26825 7.14323,-0.93099 7.75261,-0.93099 v 0.11849 q 0.11849,0.0846 0.35547,3.52084 6.55079,-4.35027 6.92318,-4.35027 z m 16.42709,0.0169 q 7.66798,3.94402 8.4974,4.60417 -1.10026,5.14584 -1.30338,5.29818 h -10.69793 v 0.1862 l 2.9961,3.70704 4.70573,-2.40365 q 0.69401,1.20182 1.9974,4.19792 -0.60938,0.20313 -8.88673,1.30339 -6.85547,-4.51954 -6.90626,-4.70574 1.10027,-8.78516 1.30339,-8.78516 7.16016,-3.04688 8.29428,-3.40235 z m -1.10026,4.09636 q -0.13542,0.33854 -1.79427,2.69141 0,0.71094 1.99739,0.71094 0,0.10156 2.89454,0.49088 0.79557,-1.10026 0.79557,-1.28646 -0.25391,-1.50651 -1.10026,-1.50651 z"
       id="text15"
       style="font-size:34.6667px;line-height:125%;font-family:'New Super Mario Font U';-inkscape-font-specification:'New Super Mario Font U';text-align:center;letter-spacing:-0.5px;white-space:pre;fill:#4bc633;stroke:#000000;stroke-width:1.27661;stroke-linejoin:round;filter:url(#filter20)"
       transform="matrix(0.31267716,0,0,0.31398295,-5.3240143,205.80333)"
       aria-label="Tu remportes une banane" /><path
       style="font-size:34.6667px;line-height:125%;font-family:'New Super Mario Font U';-inkscape-font-specification:'New Super Mario Font U';text-align:center;letter-spacing:-0.5px;white-space:pre;fill:#4bc633;stroke:#000000;stroke-width:0.880886;stroke-linejoin:round;filter:url(#filter3)"
       d="m 284.20671,-93.726335 q 1.55729,1.506512 1.55729,1.895835 l 0.54167,2.031252 q -0.0846,3.520837 -0.33855,3.520837 -4.13021,-3.537764 -4.13021,-3.656254 l -0.8125,-3.046877 q 2.33594,-0.609376 3.1823,-0.744793 z"
       id="text3"
       transform="matrix(-0.58987781,-0.34056611,-0.34056611,0.58987781,250.00341,289.12009)"
       aria-label="`" /></g></svg>
