<?xml version="1.0" encoding="UTF-8" standalone="no"?>
<!-- Created with Inkscape (http://www.inkscape.org/) -->

<svg
   width="150mm"
   height="60mm"
   viewBox="0 0 150 60"
   version="1.1"
   id="svg1"
   inkscape:version="1.3.2 (091e20e, 2023-11-25, custom)"
   sodipodi:docname="win-biere.svg"
   xmlns:inkscape="http://www.inkscape.org/namespaces/inkscape"
   xmlns:sodipodi="http://sodipodi.sourceforge.net/DTD/sodipodi-0.dtd"
   xmlns:xlink="http://www.w3.org/1999/xlink"
   xmlns="http://www.w3.org/2000/svg"
   xmlns:svg="http://www.w3.org/2000/svg">
  <sodipodi:namedview
     id="namedview1"
     pagecolor="#ffffff"
     bordercolor="#000000"
     borderopacity="0.25"
     inkscape:showpageshadow="2"
     inkscape:pageopacity="0.0"
     inkscape:pagecheckerboard="0"
     inkscape:deskcolor="#d1d1d1"
     inkscape:document-units="mm"
     inkscape:zoom="1.285875"
     inkscape:cx="285.40877"
     inkscape:cy="123.26237"
     inkscape:window-width="1366"
     inkscape:window-height="705"
     inkscape:window-x="-8"
     inkscape:window-y="-8"
     inkscape:window-maximized="1"
     inkscape:current-layer="layer1" />
  <defs
     id="defs1">
    <linearGradient
       inkscape:collect="always"
       id="linearGradient3638">
      <stop
         style="stop-color:#bf953f;stop-opacity:1;"
         offset="0"
         id="stop3634" />
      <stop
         style="stop-color:#faef84;stop-opacity:1;"
         offset="0.25"
         id="stop3642" />
      <stop
         style="stop-color:#b38728;stop-opacity:1;"
         offset="0.5"
         id="stop3644" />
      <stop
         style="stop-color:#fff699;stop-opacity:1;"
         offset="0.755"
         id="stop8004" />
      <stop
         style="stop-color:#ab781c;stop-opacity:1;"
         offset="1"
         id="stop3636" />
    </linearGradient>
    <linearGradient
       inkscape:collect="always"
       xlink:href="#linearGradient3638"
       id="linearGradient2"
       x1="22.144989"
       y1="86.480164"
       x2="82.082001"
       y2="97.542664"
       gradientUnits="userSpaceOnUse"
       gradientTransform="matrix(2.4525743,0,0,2.576271,-41.944504,-64.753675)" />
  </defs>
  <g
     inkscape:label="Calque 1"
     inkscape:groupmode="layer"
     id="layer1"
     transform="translate(-10.867731,-128.04266)">
    <rect
       style="fill:url(#linearGradient2);stroke:#000000;stroke-width:3;stroke-dasharray:none;stroke-opacity:1"
       id="rect1"
       width="147"
       height="57"
       x="12.367731"
       y="129.54266"
       rx="9.999999"
       ry="10" />
    <g
       id="text1"
       style="font-size:10.5833px;line-height:125%;font-family:'Futura Extra';-inkscape-font-specification:'Futura Extra';text-align:center;text-anchor:middle;stroke-width:4"
       aria-label="GAGNÉ !&#10;Tu remportes :&#10;un set de sous-bocks">
      <path
         style="font-size:17.6389px"
         d="m 49.6568,144.58248 v 3.13973 h 2.187224 c -0.229306,0.81139 -1.199446,1.16416 -1.957918,1.16416 -1.569863,0 -2.487085,-1.37583 -2.487085,-2.83986 0,-1.60514 0.9525,-3.08681 2.681113,-3.08681 0.776111,0 1.464028,0.35278 1.834445,1.02306 l 4.515559,-1.65806 c -1.040695,-2.27542 -4.215697,-3.42194 -6.526393,-3.42194 -4.18042,0 -7.373061,2.61055 -7.373061,6.94972 0,4.26862 3.280836,6.77334 7.337783,6.77334 2.063751,0 4.233336,-0.82903 5.644448,-2.36361 1.569862,-1.69334 1.569862,-3.51014 1.60514,-5.67973 z m 13.423216,6.17362 h 3.651253 l 0.440972,1.65805 h 5.115281 l -4.744864,-13.29973 h -5.344587 l -4.621392,13.29973 h 5.115281 z m 0.864306,-3.15737 0.881945,-4.05694 h 0.176389 c 0.08819,0.56444 0.176389,1.14653 0.317501,1.71097 l 0.564444,2.34597 z m 15.945565,-3.01625 v 3.13973 h 2.187224 c -0.229306,0.81139 -1.199445,1.16416 -1.957918,1.16416 -1.569862,0 -2.487085,-1.37583 -2.487085,-2.83986 0,-1.60514 0.952501,-3.08681 2.681113,-3.08681 0.776112,0 1.464029,0.35278 1.834446,1.02306 l 4.515558,-1.65806 c -1.040695,-2.27542 -4.215697,-3.42194 -6.526393,-3.42194 -4.180419,0 -7.37306,2.61055 -7.37306,6.94972 0,4.26862 3.280835,6.77334 7.337782,6.77334 2.063752,0 4.233336,-0.82903 5.644449,-2.36361 1.569862,-1.69334 1.569862,-3.51014 1.605139,-5.67973 z m 9.048768,7.83167 h 4.621392 v -4.32153 c 0,-0.88194 -0.141111,-1.74625 -0.299861,-2.66347 h 0.141111 l 4.250975,6.985 h 4.621388 v -13.29973 h -4.621388 v 3.98639 c 0,1.12889 0.211667,2.27542 0.405695,3.38667 h -0.141111 l -4.33917,-7.37306 h -4.639031 z m 15.381115,0 h 9.08404 v -3.63361 h -4.2157 v -1.30528 h 3.72181 v -3.45722 h -3.72181 v -1.27 h 4.07459 v -3.63362 h -8.94293 z m 4.5332,-17.44487 -2.31069,2.91042 1.60514,1.09361 2.91041,-2.54 z m 18.87015,12.36487 v -9.08403 h -4.65667 v 9.08403 z m -2.32834,0.86431 c -1.28764,0 -2.62819,0.82903 -2.62819,2.24014 0,1.39347 1.34055,2.18722 2.62819,2.18722 1.28764,0 2.6282,-0.79375 2.6282,-2.18722 0,-1.41111 -1.34056,-2.24014 -2.6282,-2.24014 z"
         id="path1" />
      <path
         d="m 41.634803,160.25638 1.598078,-0.0741 v 5.46098 h 2.899824 v -5.46098 l 1.598078,0.0741 v -2.59291 h -6.09598 z m 6.508731,-0.23283 v 3.17499 c 0,1.77799 1.545162,2.57174 3.17499,2.57174 1.629829,0 3.17499,-0.79375 3.17499,-2.57174 v -3.17499 H 51.78419 v 2.89982 c 0,0.32808 -0.02117,0.67733 -0.465666,0.67733 -0.444498,0 -0.465665,-0.34925 -0.465665,-0.67733 v -2.89982 z m 16.414707,-0.127 c -0.920747,-0.0212 -1.418162,0.13758 -1.904994,0.87841 h -0.0635 l 0.0635,-0.75141 h -2.730491 v 5.61973 h 2.730491 v -2.15899 c 0,-0.6985 0.359832,-1.12183 1.068913,-1.12183 0.349249,0 0.550332,0.13758 0.836081,0.30691 z m 7.111987,3.39724 c 0.137583,-2.10608 -1.439329,-3.39724 -3.439573,-3.39724 -1.788577,0 -3.227906,1.16416 -3.227906,3.02682 0,1.93674 1.619245,2.84691 3.386656,2.84691 1.291162,0 2.804574,-0.62442 3.164406,-1.97908 h -2.656408 c -0.05292,0.26458 -0.264582,0.46567 -0.550331,0.46567 -0.571499,0 -0.645582,-0.508 -0.645582,-0.96308 z m -3.968738,-1.16417 c 0,-0.39158 0.201083,-0.73024 0.613832,-0.73024 0.391582,0 0.666748,0.34924 0.666748,0.73024 z m 7.503559,-2.10607 h -2.582325 v 5.61973 h 2.645825 v -2.78341 c 0,-0.32808 0,-0.75141 0.391582,-0.75141 0.402165,0 0.402165,0.42333 0.402165,0.75141 v 2.78341 h 2.645825 v -2.78341 c 0,-0.32808 0,-0.75141 0.391582,-0.75141 0.402165,0 0.402165,0.42333 0.402165,0.75141 v 2.78341 h 2.645825 v -3.49249 c 0,-1.21708 -0.592664,-2.25424 -1.936744,-2.25424 -0.86783,0 -1.386412,0.41275 -1.703911,1.19591 h -0.0635 c -0.243415,-0.762 -0.80433,-1.19591 -1.608661,-1.19591 -0.719664,0 -1.407579,0.43391 -1.629828,1.12183 h -0.08467 z m 11.36646,2.01082 c 0.412749,0 0.709081,0.381 0.709081,0.77258 0,0.381 -0.285749,0.8255 -0.709081,0.8255 -0.455081,0 -0.698497,-0.381 -0.698497,-0.80433 0,-0.41275 0.243416,-0.79375 0.698497,-0.79375 z m -0.698497,-2.01082 H 83.26952 v 7.93747 h 2.730491 v -2.19074 l -0.126999,-0.89958 h 0.07408 c 0.306915,0.55033 1.047746,0.89958 1.661578,0.89958 1.534578,0 2.360076,-1.66158 2.360076,-2.98449 0,-1.40758 -0.761998,-2.88924 -2.33891,-2.88924 -0.709081,0 -1.449912,0.37041 -1.756827,1.01599 h -0.08467 z m 8.212638,-0.127 c -1.852077,0 -3.407822,1.03716 -3.407822,3.00565 0,1.86266 1.650994,2.86808 3.407822,2.86808 1.756828,0 3.407823,-1.00542 3.407823,-2.86808 0,-1.96849 -1.555745,-3.00565 -3.407823,-3.00565 z m 0,2.13782 c 0.455082,0 0.761998,0.37042 0.761998,0.8255 0,0.4445 -0.338666,0.77258 -0.761998,0.77258 -0.423332,0 -0.761997,-0.32808 -0.761997,-0.77258 0,-0.45508 0.306915,-0.8255 0.761997,-0.8255 z m 8.93231,-2.13782 c -0.92075,-0.0212 -1.41816,0.13758 -1.90499,0.87841 h -0.0635 l 0.0635,-0.75141 h -2.730496 v 5.61973 h 2.730496 v -2.15899 c 0,-0.6985 0.35983,-1.12183 1.06891,-1.12183 0.34925,0 0.55033,0.13758 0.83608,0.30691 z m 4.14867,-1.68275 h -2.75165 v 1.88383 l -0.66675,-0.0423 v 2.14841 l 0.66675,-0.0529 v 3.49249 h 2.75165 v -3.49249 l 0.91017,0.0529 v -2.14841 l -0.91017,0.0423 z m 7.96923,5.07999 c 0.13759,-2.10608 -1.43933,-3.39724 -3.43957,-3.39724 -1.78858,0 -3.22791,1.16416 -3.22791,3.02682 0,1.93674 1.61925,2.84691 3.38666,2.84691 1.29116,0 2.80457,-0.62442 3.16441,-1.97908 h -2.65641 c -0.0529,0.26458 -0.26458,0.46567 -0.55033,0.46567 -0.5715,0 -0.64558,-0.508 -0.64558,-0.96308 z m -3.96873,-1.16417 c 0,-0.39158 0.20108,-0.73024 0.61383,-0.73024 0.39158,0 0.66674,0.34924 0.66674,0.73024 z m 4.42382,3.01624 c 0.81491,0.34925 1.68274,0.62442 2.57174,0.62442 1.27,0 2.71991,-0.60325 2.71991,-2.06375 0,-1.13241 -0.79375,-1.47107 -1.76741,-1.62982 -0.381,-0.0635 -0.67733,-0.0847 -0.67733,-0.35984 0,-0.20108 0.22224,-0.25399 0.39158,-0.25399 0.4445,0 0.91016,0.21166 1.25941,0.46566 l 0.66675,-1.55574 c -0.61383,-0.33867 -1.48166,-0.47625 -2.18016,-0.47625 -1.2065,0 -2.62466,0.56091 -2.62466,1.96849 0,1.05833 0.84666,1.42875 1.75683,1.55575 0.22225,0.0317 0.55033,0.0423 0.55033,0.34924 0,0.21167 -0.22225,0.30692 -0.40217,0.30692 -0.46566,0 -1.01599,-0.28575 -1.39699,-0.51858 l -0.16933,-0.10583 z m 12.14964,-2.03199 c -0.77258,0 -1.57691,0.49742 -1.57691,1.34408 0,0.83608 0.80433,1.31233 1.57691,1.31233 0.77258,0 1.57691,-0.47625 1.57691,-1.31233 0,-0.84666 -0.80433,-1.34408 -1.57691,-1.34408 z m 0,-3.21732 c -0.77258,0 -1.57691,0.49741 -1.57691,1.34408 0,0.83608 0.80433,1.31233 1.57691,1.31233 0.77258,0 1.57691,-0.47625 1.57691,-1.31233 0,-0.84667 -0.80433,-1.34408 -1.57691,-1.34408 z"
         id="path2" />
      <path
         d="m 23.203982,173.25267 v 3.17499 c 0,1.778 1.545162,2.57174 3.17499,2.57174 1.629828,0 3.17499,-0.79374 3.17499,-2.57174 v -3.17499 h -2.709325 v 2.89983 c 0,0.32808 -0.02117,0.67733 -0.465665,0.67733 -0.444499,0 -0.465665,-0.34925 -0.465665,-0.67733 v -2.89983 z m 10.05414,0 H 30.59113 v 5.61973 h 2.730492 v -2.74107 c 0,-0.32808 0,-0.79375 0.455082,-0.79375 0.465665,0 0.465665,0.46567 0.465665,0.79375 v 2.74107 h 2.730491 v -3.46074 c 0,-1.23824 -0.550332,-2.28599 -1.947327,-2.28599 -0.878414,0 -1.280579,0.41275 -1.809744,1.02658 h -0.0635 z m 8.741801,5.12232 c 0.814914,0.34925 1.682744,0.62441 2.571742,0.62441 1.269995,0 2.719908,-0.60325 2.719908,-2.06374 0,-1.13241 -0.793748,-1.47108 -1.767412,-1.62983 -0.380998,-0.0635 -0.677331,-0.0847 -0.677331,-0.35983 0,-0.20108 0.22225,-0.254 0.391582,-0.254 0.444499,0 0.910164,0.21167 1.259413,0.46566 l 0.666748,-1.55574 c -0.613831,-0.33867 -1.481662,-0.47625 -2.18016,-0.47625 -1.206496,0 -2.624658,0.56092 -2.624658,1.9685 0,1.05833 0.846664,1.42874 1.756828,1.55574 0.222249,0.0317 0.550331,0.0423 0.550331,0.34925 0,0.21167 -0.222249,0.30691 -0.402165,0.30691 -0.465665,0 -1.015997,-0.28574 -1.396996,-0.51858 l -0.169333,-0.10583 z m 12.572968,-1.85208 c 0.137583,-2.10608 -1.439328,-3.39724 -3.439572,-3.39724 -1.788578,0 -3.227907,1.16416 -3.227907,3.02683 0,1.93674 1.619245,2.8469 3.386656,2.8469 1.291163,0 2.804575,-0.62441 3.164407,-1.97907 h -2.656408 c -0.05292,0.26458 -0.264583,0.46566 -0.550332,0.46566 -0.571498,0 -0.645581,-0.508 -0.645581,-0.96308 z m -3.968737,-1.16416 c 0,-0.39158 0.201083,-0.73025 0.613831,-0.73025 0.391582,0 0.666748,0.34925 0.666748,0.73025 z m 7.969224,-3.91582 H 55.82172 v 1.88382 l -0.666748,-0.0423 v 2.14841 l 0.666748,-0.0529 v 3.49249 h 2.751658 v -3.49249 l 0.910163,0.0529 v -2.14841 l -0.910163,0.0423 z m 9.091066,3.82057 c 0.412749,0 0.709081,0.381 0.709081,0.77258 0,0.381 -0.285749,0.8255 -0.709081,0.8255 -0.455082,0 -0.698498,-0.381 -0.698498,-0.80433 0,-0.41275 0.243416,-0.79375 0.698498,-0.79375 z m 0.783164,3.6089 h 2.561159 v -8.58305 h -2.730492 v 2.37066 l 0.127,1.34408 h -0.09525 c -0.380999,-0.51859 -1.05833,-0.87842 -1.693328,-0.87842 -1.587495,0 -2.338909,1.5875 -2.338909,2.98449 0,1.34408 0.804331,2.88924 2.328326,2.88924 0.730248,0 1.375829,-0.39158 1.830911,-0.96308 h 0.0635 z m 10.117627,-2.34949 c 0.137583,-2.10608 -1.439329,-3.39724 -3.439572,-3.39724 -1.788578,0 -3.227907,1.16416 -3.227907,3.02683 0,1.93674 1.619245,2.8469 3.386656,2.8469 1.291163,0 2.804575,-0.62441 3.164407,-1.97907 h -2.656408 c -0.05292,0.26458 -0.264583,0.46566 -0.550332,0.46566 -0.571498,0 -0.645581,-0.508 -0.645581,-0.96308 z m -3.968737,-1.16416 c 0,-0.39158 0.201082,-0.73025 0.613831,-0.73025 0.391582,0 0.666748,0.34925 0.666748,0.73025 z m 8.826475,3.01624 c 0.814914,0.34925 1.682744,0.62441 2.571741,0.62441 1.269996,0 2.719908,-0.60325 2.719908,-2.06374 0,-1.13241 -0.793747,-1.47108 -1.767411,-1.62983 -0.380998,-0.0635 -0.677331,-0.0847 -0.677331,-0.35983 0,-0.20108 0.22225,-0.254 0.391582,-0.254 0.444499,0 0.910164,0.21167 1.259413,0.46566 l 0.666748,-1.55574 c -0.613832,-0.33867 -1.481662,-0.47625 -2.18016,-0.47625 -1.206496,0 -2.624658,0.56092 -2.624658,1.9685 0,1.05833 0.846664,1.42874 1.756828,1.55574 0.222249,0.0317 0.550331,0.0423 0.550331,0.34925 0,0.21167 -0.222249,0.30691 -0.402165,0.30691 -0.465665,0 -1.015997,-0.28574 -1.396996,-0.51858 l -0.169333,-0.10583 z m 9.323899,-5.24932 c -1.852077,0 -3.407822,1.03716 -3.407822,3.00566 0,1.86266 1.650994,2.86807 3.407822,2.86807 1.756828,0 3.407823,-1.00541 3.407823,-2.86807 0,-1.9685 -1.555746,-3.00566 -3.407823,-3.00566 z m 0,2.13783 c 0.455082,0 0.761998,0.37041 0.761998,0.8255 0,0.44449 -0.338666,0.77258 -0.761998,0.77258 -0.423332,0 -0.761998,-0.32809 -0.761998,-0.77258 0,-0.45509 0.306916,-0.8255 0.761998,-0.8255 z m 4.296824,-2.01083 v 3.17499 c 0,1.778 1.545162,2.57174 3.174994,2.57174 1.62982,0 3.17499,-0.79374 3.17499,-2.57174 v -3.17499 h -2.70933 v 2.89983 c 0,0.32808 -0.0212,0.67733 -0.46566,0.67733 -0.444503,0 -0.465669,-0.34925 -0.465669,-0.67733 v -2.89983 z m 6.953234,5.12232 c 0.81491,0.34925 1.68274,0.62441 2.57174,0.62441 1.27,0 2.71991,-0.60325 2.71991,-2.06374 0,-1.13241 -0.79375,-1.47108 -1.76741,-1.62983 -0.381,-0.0635 -0.67733,-0.0847 -0.67733,-0.35983 0,-0.20108 0.22225,-0.254 0.39158,-0.254 0.4445,0 0.91016,0.21167 1.25941,0.46566 l 0.66675,-1.55574 c -0.61383,-0.33867 -1.48166,-0.47625 -2.18016,-0.47625 -1.2065,0 -2.62466,0.56092 -2.62466,1.9685 0,1.05833 0.84666,1.42874 1.75683,1.55574 0.22225,0.0317 0.55033,0.0423 0.55033,0.34925 0,0.21167 -0.22225,0.30691 -0.40217,0.30691 -0.46566,0 -1.01599,-0.28574 -1.39699,-0.51858 l -0.16933,-0.10583 z m 6.22299,-1.24883 h 3.77823 v -2.32833 h -3.77823 z m 8.31848,-1.86266 c 0.41275,0 0.70908,0.381 0.70908,0.77258 0,0.381 -0.28575,0.8255 -0.70908,0.8255 -0.45508,0 -0.6985,-0.381 -0.6985,-0.80433 0,-0.41275 0.24342,-0.79375 0.6985,-0.79375 z m -3.33374,3.6089 h 2.56116 l -0.0529,-0.83608 h 0.0635 c 0.45509,0.5715 1.10067,0.96308 1.83092,0.96308 1.52399,0 2.32832,-1.54516 2.32832,-2.88924 0,-1.39699 -0.75141,-2.98449 -2.33891,-2.98449 -0.635,0 -1.31233,0.35983 -1.69333,0.87842 h -0.0953 l 0.127,-1.34408 v -2.37066 h -2.73049 z m 10.86904,-5.74673 c -1.85208,0 -3.40782,1.03716 -3.40782,3.00566 0,1.86266 1.65099,2.86807 3.40782,2.86807 1.75683,0 3.40782,-1.00541 3.40782,-2.86807 0,-1.9685 -1.55574,-3.00566 -3.40782,-3.00566 z m 0,2.13783 c 0.45508,0 0.762,0.37041 0.762,0.8255 0,0.44449 -0.33867,0.77258 -0.762,0.77258 -0.42333,0 -0.762,-0.32809 -0.762,-0.77258 0,-0.45509 0.30692,-0.8255 0.762,-0.8255 z m 8.71007,-1.85208 c -0.55033,-0.17992 -1.143,-0.28575 -1.7145,-0.28575 -1.68274,0 -2.89982,1.30175 -2.89982,2.96333 0,1.88382 1.30174,2.9104 3.12207,2.9104 0.47625,0 0.9525,-0.127 1.37583,-0.26458 l 0.11642,-2.30716 c -0.3175,0.22225 -0.635,0.43392 -1.05833,0.43392 -0.4445,0 -0.80433,-0.35984 -0.80433,-0.80433 0,-0.508 0.35983,-0.83609 0.85724,-0.83609 0.39159,0 0.71967,0.22225 1.00542,0.46567 z m 1.05832,5.46098 h 2.73049 v -2.06374 h 0.0635 l 1.143,2.06374 h 3.21732 l -2.16957,-2.86807 2.06374,-2.75166 H 139.705 l -0.84667,1.60866 -0.22225,0.47625 h -0.0635 v -5.04823 h -2.73049 z m 7.39774,-0.49741 c 0.81491,0.34925 1.68274,0.62441 2.57174,0.62441 1.26999,0 2.71991,-0.60325 2.71991,-2.06374 0,-1.13241 -0.79375,-1.47108 -1.76742,-1.62983 -0.38099,-0.0635 -0.67733,-0.0847 -0.67733,-0.35983 0,-0.20108 0.22225,-0.254 0.39158,-0.254 0.4445,0 0.91017,0.21167 1.25942,0.46566 l 0.66675,-1.55574 c -0.61384,-0.33867 -1.48167,-0.47625 -2.18016,-0.47625 -1.2065,0 -2.62466,0.56092 -2.62466,1.9685 0,1.05833 0.84666,1.42874 1.75683,1.55574 0.22224,0.0317 0.55033,0.0423 0.55033,0.34925 0,0.21167 -0.22225,0.30691 -0.40217,0.30691 -0.46566,0 -1.016,-0.28574 -1.39699,-0.51858 l -0.16934,-0.10583 z"
         id="path3" />
    </g>
  </g>
</svg>
