<?xml version="1.0" encoding="UTF-8" standalone="no"?>
<!-- Created with Inkscape (http://www.inkscape.org/) -->

<svg
   width="150mm"
   height="60mm"
   viewBox="0 0 150 60"
   version="1.1"
   id="svg1"
   inkscape:version="1.3.2 (091e20e, 2023-11-25, custom)"
   sodipodi:docname="win-buvette.svg"
   xmlns:inkscape="http://www.inkscape.org/namespaces/inkscape"
   xmlns:sodipodi="http://sodipodi.sourceforge.net/DTD/sodipodi-0.dtd"
   xmlns:xlink="http://www.w3.org/1999/xlink"
   xmlns="http://www.w3.org/2000/svg"
   xmlns:svg="http://www.w3.org/2000/svg">
  <sodipodi:namedview
     id="namedview1"
     pagecolor="#ffffff"
     bordercolor="#000000"
     borderopacity="0.25"
     inkscape:showpageshadow="2"
     inkscape:pageopacity="0.0"
     inkscape:pagecheckerboard="0"
     inkscape:deskcolor="#d1d1d1"
     inkscape:document-units="mm"
     inkscape:zoom="1.285875"
     inkscape:cx="283.85341"
     inkscape:cy="113.15252"
     inkscape:window-width="1366"
     inkscape:window-height="705"
     inkscape:window-x="-8"
     inkscape:window-y="-8"
     inkscape:window-maximized="1"
     inkscape:current-layer="layer1" />
  <defs
     id="defs1">
    <linearGradient
       inkscape:collect="always"
       id="linearGradient3638">
      <stop
         style="stop-color:#bf953f;stop-opacity:1;"
         offset="0"
         id="stop3634" />
      <stop
         style="stop-color:#faef84;stop-opacity:1;"
         offset="0.25"
         id="stop3642" />
      <stop
         style="stop-color:#b38728;stop-opacity:1;"
         offset="0.5"
         id="stop3644" />
      <stop
         style="stop-color:#fff699;stop-opacity:1;"
         offset="0.755"
         id="stop8004" />
      <stop
         style="stop-color:#ab781c;stop-opacity:1;"
         offset="1"
         id="stop3636" />
    </linearGradient>
    <linearGradient
       inkscape:collect="always"
       xlink:href="#linearGradient3638"
       id="linearGradient2"
       x1="22.144989"
       y1="86.480164"
       x2="82.082001"
       y2="97.542664"
       gradientUnits="userSpaceOnUse"
       gradientTransform="matrix(2.4525743,0,0,2.576271,-41.944504,-64.753675)" />
  </defs>
  <g
     inkscape:label="Calque 1"
     inkscape:groupmode="layer"
     id="layer1"
     transform="translate(-10.867731,-128.04266)">
    <rect
       style="fill:url(#linearGradient2);stroke:#000000;stroke-width:3;stroke-dasharray:none;stroke-opacity:1"
       id="rect1"
       width="147"
       height="57"
       x="12.367731"
       y="129.54266"
       rx="9.999999"
       ry="10" />
    <g
       id="text1"
       style="font-size:10.5833px;line-height:125%;font-family:'Futura Extra';-inkscape-font-specification:'Futura Extra';text-align:center;text-anchor:middle;stroke-width:4"
       aria-label="GAGNÉ !&#10;Tu remportes :&#10;une carte buvette de 10 euros">
      <path
         style="font-size:17.6389px"
         d="m 49.692078,144.59942 v 3.13972 h 2.187224 c -0.229306,0.81139 -1.199445,1.16417 -1.957918,1.16417 -1.569862,0 -2.487085,-1.37583 -2.487085,-2.83986 0,-1.60514 0.952501,-3.08681 2.681113,-3.08681 0.776112,0 1.464029,0.35278 1.834446,1.02306 l 4.515558,-1.65806 c -1.040695,-2.27542 -4.215697,-3.42195 -6.526393,-3.42195 -4.18042,0 -7.373061,2.61056 -7.373061,6.94973 0,4.26861 3.280836,6.77334 7.337783,6.77334 2.063751,0 4.233336,-0.82903 5.644448,-2.36361 1.569862,-1.69334 1.569862,-3.51015 1.60514,-5.67973 z m 13.423216,6.17361 h 3.651253 l 0.440972,1.65806 h 5.115282 l -4.744865,-13.29973 h -5.344587 l -4.621392,13.29973 h 5.115282 z m 0.864307,-3.15736 0.881945,-4.05695 h 0.176389 c 0.08819,0.56445 0.176389,1.14653 0.3175,1.71098 l 0.564445,2.34597 z m 15.945565,-3.01625 v 3.13972 h 2.187223 c -0.229305,0.81139 -1.199445,1.16417 -1.957917,1.16417 -1.569863,0 -2.487086,-1.37583 -2.487086,-2.83986 0,-1.60514 0.952501,-3.08681 2.681113,-3.08681 0.776112,0 1.464029,0.35278 1.834446,1.02306 l 4.515559,-1.65806 c -1.040695,-2.27542 -4.215698,-3.42195 -6.526394,-3.42195 -4.180419,0 -7.37306,2.61056 -7.37306,6.94973 0,4.26861 3.280835,6.77334 7.337783,6.77334 2.063751,0 4.233336,-0.82903 5.644448,-2.36361 1.569862,-1.69334 1.569862,-3.51015 1.60514,-5.67973 z m 9.048768,7.83167 h 4.621392 v -4.32153 c 0,-0.88194 -0.141112,-1.74625 -0.299862,-2.66347 h 0.141112 l 4.250975,6.985 h 4.621389 v -13.29973 h -4.621389 v 3.98639 c 0,1.12889 0.211666,2.27542 0.405694,3.38667 h -0.141111 l -4.339169,-7.37306 h -4.639031 z m 15.381116,0 h 9.08404 v -3.63361 h -4.2157 v -1.30528 h 3.72181 v -3.45723 h -3.72181 v -1.27 h 4.07459 v -3.63361 h -8.94293 z m 4.5332,-17.44487 -2.3107,2.91042 1.60514,1.09361 2.91042,-2.54 z m 18.87015,12.36487 v -9.08404 h -4.65667 v 9.08404 z m -2.32834,0.8643 c -1.28764,0 -2.62819,0.82903 -2.62819,2.24014 0,1.39348 1.34055,2.18723 2.62819,2.18723 1.28764,0 2.6282,-0.79375 2.6282,-2.18723 0,-1.41111 -1.34056,-2.24014 -2.6282,-2.24014 z"
         id="path1" />
      <path
         d="m 41.670081,160.27332 1.598078,-0.0741 v 5.46099 h 2.899824 v -5.46099 l 1.598079,0.0741 v -2.59291 h -6.095981 z m 6.508732,-0.23284 v 3.17499 c 0,1.778 1.545162,2.57175 3.17499,2.57175 1.629828,0 3.17499,-0.79375 3.17499,-2.57175 v -3.17499 h -2.709325 v 2.89983 c 0,0.32808 -0.02117,0.67733 -0.465665,0.67733 -0.444499,0 -0.465665,-0.34925 -0.465665,-0.67733 v -2.89983 z m 16.414706,-0.127 c -0.920747,-0.0212 -1.418162,0.13759 -1.904994,0.87842 h -0.0635 l 0.0635,-0.75142 h -2.730491 v 5.61974 h 2.730491 v -2.159 c 0,-0.6985 0.359832,-1.12183 1.068913,-1.12183 0.349249,0 0.550332,0.13759 0.836081,0.30692 z m 7.111987,3.39724 c 0.137583,-2.10607 -1.439329,-3.39724 -3.439572,-3.39724 -1.788578,0 -3.227907,1.16417 -3.227907,3.02683 0,1.93674 1.619245,2.84691 3.386656,2.84691 1.291163,0 2.804574,-0.62442 3.164407,-1.97908 h -2.656409 c -0.05292,0.26458 -0.264582,0.46566 -0.550331,0.46566 -0.571498,0 -0.645581,-0.50799 -0.645581,-0.96308 z m -3.968737,-1.16416 c 0,-0.39158 0.201082,-0.73025 0.613831,-0.73025 0.391582,0 0.666748,0.34925 0.666748,0.73025 z m 7.503558,-2.10608 h -2.582325 v 5.61974 h 2.645825 v -2.78341 c 0,-0.32808 0,-0.75142 0.391582,-0.75142 0.402165,0 0.402165,0.42334 0.402165,0.75142 v 2.78341 h 2.645825 v -2.78341 c 0,-0.32808 0,-0.75142 0.391582,-0.75142 0.402166,0 0.402166,0.42334 0.402166,0.75142 v 2.78341 h 2.645825 v -3.49249 c 0,-1.21708 -0.592665,-2.25425 -1.936744,-2.25425 -0.867831,0 -1.386412,0.41275 -1.703911,1.19592 h -0.0635 c -0.243416,-0.762 -0.804331,-1.19592 -1.608662,-1.19592 -0.719664,0 -1.407579,0.43392 -1.629828,1.12183 h -0.08467 z m 11.366461,2.01083 c 0.412748,0 0.709081,0.381 0.709081,0.77258 0,0.381 -0.285749,0.8255 -0.709081,0.8255 -0.455082,0 -0.698498,-0.381 -0.698498,-0.80433 0,-0.41275 0.243416,-0.79375 0.698498,-0.79375 z m -0.698498,-2.01083 h -2.603492 v 7.93748 h 2.730492 v -2.19074 l -0.127,-0.89959 h 0.07408 c 0.306916,0.55034 1.047747,0.89959 1.661578,0.89959 1.534579,0 2.360076,-1.66158 2.360076,-2.9845 0,-1.40757 -0.761998,-2.88924 -2.338909,-2.88924 -0.709081,0 -1.449912,0.37042 -1.756828,1.016 h -0.08467 z m 8.212638,-0.127 c -1.852077,0 -3.407822,1.03717 -3.407822,3.00566 0,1.86266 1.650995,2.86808 3.407822,2.86808 1.756828,0 3.407823,-1.00542 3.407823,-2.86808 0,-1.96849 -1.555745,-3.00566 -3.407823,-3.00566 z m 0,2.13783 c 0.455082,0 0.761998,0.37042 0.761998,0.8255 0,0.4445 -0.338666,0.77258 -0.761998,0.77258 -0.423332,0 -0.761997,-0.32808 -0.761997,-0.77258 0,-0.45508 0.306916,-0.8255 0.761997,-0.8255 z m 8.932312,-2.13783 c -0.92075,-0.0212 -1.41816,0.13759 -1.905,0.87842 h -0.0635 l 0.0635,-0.75142 h -2.730487 v 5.61974 h 2.730487 v -2.159 c 0,-0.6985 0.35984,-1.12183 1.06892,-1.12183 0.34925,0 0.55033,0.13759 0.83608,0.30692 z m 4.14867,-1.68274 h -2.75166 v 1.88383 l -0.66674,-0.0423 v 2.14841 l 0.66674,-0.0529 v 3.49249 h 2.75166 v -3.49249 l 0.91017,0.0529 v -2.14841 l -0.91017,0.0423 z m 7.96923,5.07998 c 0.13758,-2.10607 -1.43933,-3.39724 -3.43957,-3.39724 -1.78858,0 -3.22791,1.16417 -3.22791,3.02683 0,1.93674 1.61925,2.84691 3.38666,2.84691 1.29116,0 2.80457,-0.62442 3.1644,-1.97908 h -2.6564 c -0.0529,0.26458 -0.26459,0.46566 -0.55033,0.46566 -0.5715,0 -0.64559,-0.50799 -0.64559,-0.96308 z m -3.96874,-1.16416 c 0,-0.39158 0.20109,-0.73025 0.61384,-0.73025 0.39158,0 0.66674,0.34925 0.66674,0.73025 z m 4.42383,3.01624 c 0.81491,0.34925 1.68274,0.62442 2.57174,0.62442 1.26999,0 2.71991,-0.60325 2.71991,-2.06375 0,-1.13241 -0.79375,-1.47108 -1.76742,-1.62983 -0.38099,-0.0635 -0.67733,-0.0847 -0.67733,-0.35983 0,-0.20108 0.22225,-0.254 0.39159,-0.254 0.44449,0 0.91016,0.21167 1.25941,0.46567 l 0.66675,-1.55575 c -0.61384,-0.33866 -1.48167,-0.47625 -2.18016,-0.47625 -1.2065,0 -2.62466,0.56092 -2.62466,1.9685 0,1.05833 0.84666,1.42874 1.75683,1.55574 0.22225,0.0317 0.55033,0.0423 0.55033,0.34925 0,0.21167 -0.22225,0.30692 -0.40217,0.30692 -0.46566,0 -1.01599,-0.28575 -1.39699,-0.51858 l -0.16934,-0.10584 z m 12.14964,-2.03199 c -0.77258,0 -1.57692,0.49741 -1.57692,1.34408 0,0.83608 0.80434,1.31233 1.57692,1.31233 0.77258,0 1.57691,-0.47625 1.57691,-1.31233 0,-0.84667 -0.80433,-1.34408 -1.57691,-1.34408 z m 0,-3.21733 c -0.77258,0 -1.57692,0.49742 -1.57692,1.34408 0,0.83608 0.80434,1.31233 1.57692,1.31233 0.77258,0 1.57691,-0.47625 1.57691,-1.31233 0,-0.84666 -0.80433,-1.34408 -1.57691,-1.34408 z"
         id="path2" />
      <path
         style="font-size:7.76111px;letter-spacing:0px"
         d="m 18.935543,174.76819 v 2.32833 c 0,1.30387 1.133122,1.88595 2.328333,1.88595 1.195211,0 2.328333,-0.58208 2.328333,-1.88595 v -2.32833 h -1.986844 v 2.12655 c 0,0.24059 -0.01552,0.49671 -0.341489,0.49671 -0.325967,0 -0.341489,-0.25612 -0.341489,-0.49671 v -2.12655 z m 7.373058,0 h -1.9558 v 4.12115 h 2.002366 v -2.01013 c 0,-0.24059 0,-0.58208 0.333728,-0.58208 0.341489,0 0.341489,0.34149 0.341489,0.58208 v 2.01013 h 2.002366 v -2.53788 c 0,-0.90805 -0.403577,-1.6764 -1.428044,-1.6764 -0.644172,0 -0.939094,0.30268 -1.32715,0.75283 h -0.04657 z m 8.265575,2.39818 c 0.100895,-1.54446 -1.055511,-2.49131 -2.52236,-2.49131 -1.311628,0 -2.367139,0.85372 -2.367139,2.21968 0,1.42028 1.18745,2.08773 2.483555,2.08773 0.946856,0 2.056694,-0.4579 2.320572,-1.45132 h -1.948039 c -0.03881,0.19402 -0.194027,0.34149 -0.403577,0.34149 -0.4191,0 -0.473428,-0.37254 -0.473428,-0.70627 z m -2.910416,-0.85372 c 0,-0.28716 0.147461,-0.53551 0.450144,-0.53551 0.287162,0 0.48895,0.25611 0.48895,0.53551 z m 10.019594,-1.42804 c -0.403577,-0.13194 -0.838199,-0.20955 -1.257299,-0.20955 -1.234017,0 -2.126545,0.95461 -2.126545,2.17311 0,1.38148 0.954617,2.1343 2.289528,2.1343 0.34925,0 0.6985,-0.0931 1.008944,-0.19402 l 0.08537,-1.69193 c -0.232833,0.16299 -0.465666,0.31821 -0.776111,0.31821 -0.325966,0 -0.589844,-0.26388 -0.589844,-0.58984 0,-0.37254 0.263878,-0.61313 0.62865,-0.61313 0.287161,0 0.527755,0.16298 0.737305,0.34149 z m 2.607733,1.92475 c 0,-0.30268 0.201789,-0.56656 0.519994,-0.56656 0.318206,0 0.535517,0.23284 0.535517,0.55104 0,0.31821 -0.155222,0.62089 -0.535517,0.62089 -0.364772,0 -0.519994,-0.2794 -0.519994,-0.60537 z m 0.993422,2.07998 h 1.963561 v -4.12115 h -1.963561 l 0.06209,0.48895 h -0.04657 c -0.294922,-0.40358 -0.706261,-0.58208 -1.202972,-0.58208 -1.164166,0 -1.792816,1.13312 -1.792816,2.17311 0,1.00118 0.620889,2.1343 1.738488,2.1343 0.566561,0 0.892528,-0.24835 1.2573,-0.63641 h 0.04657 z m 6.139032,-4.21428 c -0.675216,-0.0155 -1.039988,0.10089 -1.396999,0.64417 h -0.04657 l 0.04657,-0.55104 h -2.002367 v 4.12115 h 2.002367 v -1.58327 c 0,-0.51223 0.263877,-0.82267 0.783872,-0.82267 0.256116,0 0.403577,0.10089 0.613127,0.22507 z m 3.04237,-1.23402 h -2.017889 v 1.38148 l -0.488949,-0.031 v 1.57551 l 0.488949,-0.0388 v 2.56117 h 2.017889 v -2.56117 l 0.667455,0.0388 v -1.57551 l -0.667455,0.031 z m 5.84412,3.72533 c 0.100895,-1.54446 -1.055511,-2.49131 -2.52236,-2.49131 -1.311628,0 -2.367139,0.85372 -2.367139,2.21968 0,1.42028 1.18745,2.08773 2.483555,2.08773 0.946856,0 2.056694,-0.4579 2.320572,-1.45132 h -1.948038 c -0.03881,0.19402 -0.194028,0.34149 -0.403578,0.34149 -0.4191,0 -0.473428,-0.37254 -0.473428,-0.70627 z m -2.910416,-0.85372 c 0,-0.28716 0.147461,-0.53551 0.450145,-0.53551 0.287161,0 0.488949,0.25611 0.488949,0.53551 z m 9.235722,-0.0699 c 0.302684,0 0.519995,0.2794 0.519995,0.56656 0,0.2794 -0.20955,0.60537 -0.519995,0.60537 -0.333727,0 -0.512233,-0.2794 -0.512233,-0.58984 0,-0.30269 0.178506,-0.58209 0.512233,-0.58209 z m -2.444749,2.64654 h 1.878188 l -0.0388,-0.61313 h 0.04657 c 0.333728,0.4191 0.807156,0.70626 1.342672,0.70626 1.1176,0 1.707445,-1.13312 1.707445,-2.11878 0,-1.02447 -0.551039,-2.18863 -1.715206,-2.18863 -0.465666,0 -0.962377,0.26388 -1.241777,0.64417 h -0.06985 l 0.09313,-0.98566 v -1.73849 h -2.002366 z m 5.580232,-4.12115 v 2.32833 c 0,1.30387 1.133122,1.88595 2.328333,1.88595 1.195211,0 2.328333,-0.58208 2.328333,-1.88595 v -2.32833 h -1.986844 v 2.12655 c 0,0.24059 -0.01552,0.49671 -0.341489,0.49671 -0.325966,0 -0.341489,-0.25612 -0.341489,-0.49671 v -2.12655 z m 4.982636,0 1.808338,4.12115 h 1.8161 l 1.792816,-4.12115 h -2.149827 l -0.426861,1.44357 -0.100895,0.50447 H 77.4388 l -0.535517,-1.94804 z m 10.52407,2.39818 c 0.100895,-1.54446 -1.055511,-2.49131 -2.52236,-2.49131 -1.311628,0 -2.367139,0.85372 -2.367139,2.21968 0,1.42028 1.18745,2.08773 2.483555,2.08773 0.946856,0 2.056694,-0.4579 2.320572,-1.45132 h -1.948038 c -0.03881,0.19402 -0.194028,0.34149 -0.403578,0.34149 -0.4191,0 -0.473428,-0.37254 -0.473428,-0.70627 z m -2.910416,-0.85372 c 0,-0.28716 0.147461,-0.53551 0.450145,-0.53551 0.287161,0 0.488949,0.25611 0.488949,0.53551 z m 5.84412,-2.87161 h -2.017888 v 1.38148 l -0.48895,-0.031 v 1.57551 l 0.48895,-0.0388 v 2.56117 h 2.017888 v -2.56117 l 0.667456,0.0388 v -1.57551 l -0.667456,0.031 z m 3.360566,0 h -2.017889 v 1.38148 l -0.48895,-0.031 v 1.57551 l 0.48895,-0.0388 v 2.56117 h 2.017889 v -2.56117 l 0.667455,0.0388 v -1.57551 l -0.667455,0.031 z m 5.84412,3.72533 c 0.100894,-1.54446 -1.055511,-2.49131 -2.522361,-2.49131 -1.311627,0 -2.367138,0.85372 -2.367138,2.21968 0,1.42028 1.18745,2.08773 2.483555,2.08773 0.946855,0 2.056694,-0.4579 2.320572,-1.45132 h -1.948039 c -0.0388,0.19402 -0.194028,0.34149 -0.403578,0.34149 -0.419099,0 -0.473427,-0.37254 -0.473427,-0.70627 z M 94.5055,176.31265 c 0,-0.28716 0.147461,-0.53551 0.450144,-0.53551 0.287161,0 0.48895,0.25611 0.48895,0.53551 z m 9.15035,-0.0699 c 0.30268,0 0.51999,0.2794 0.51999,0.56656 0,0.2794 -0.20955,0.60537 -0.51999,0.60537 -0.33373,0 -0.51224,-0.2794 -0.51224,-0.58984 0,-0.30269 0.17851,-0.58209 0.51224,-0.58209 z m 0.57432,2.64654 h 1.87819 v -6.29426 h -2.00237 v 1.73849 l 0.0931,0.98566 h -0.0698 c -0.2794,-0.38029 -0.77611,-0.64417 -1.24177,-0.64417 -1.16417,0 -1.71521,1.16416 -1.71521,2.18863 0,0.98566 0.58985,2.11878 1.70744,2.11878 0.53552,0 1.00895,-0.28716 1.34268,-0.70626 h 0.0466 z m 7.41962,-1.72297 c 0.10089,-1.54446 -1.05551,-2.49131 -2.52236,-2.49131 -1.31163,0 -2.36714,0.85372 -2.36714,2.21968 0,1.42028 1.18745,2.08773 2.48355,2.08773 0.94686,0 2.0567,-0.4579 2.32058,-1.45132 h -1.94804 c -0.0388,0.19402 -0.19403,0.34149 -0.40358,0.34149 -0.4191,0 -0.47343,-0.37254 -0.47343,-0.70627 z m -2.91042,-0.85372 c 0,-0.28716 0.14746,-0.53551 0.45015,-0.53551 0.28716,0 0.48895,0.25611 0.48895,0.53551 z"
         id="path3" />
      <path
         style="font-size:7.76111px;letter-spacing:-1.32292px"
         d="m 116.58585,174.97774 0.90029,-0.0621 v 3.97369 h 2.11102 v -5.85188 l -3.01131,0.0931 z m 6.91939,-2.03341 c -1.76954,0 -2.794,1.30387 -2.794,2.96474 0,1.75402 0.98566,3.0734 2.794,3.0734 1.80834,0 2.794,-1.31938 2.794,-3.0734 0,-1.66087 -1.02447,-2.96474 -2.794,-2.96474 z m 0,1.8161 c 0.63641,0 0.76059,0.72178 0.76059,1.20297 0,0.45015 -0.16299,1.28835 -0.76059,1.28835 -0.59761,0 -0.76059,-0.8382 -0.76059,-1.28835 0,-0.48119 0.12418,-1.20297 0.76059,-1.20297 z"
         id="path4" />
      <path
         style="font-size:7.76111px;letter-spacing:0px"
         d="m 133.79295,177.16637 c 0.10089,-1.54446 -1.05552,-2.49131 -2.52237,-2.49131 -1.31162,0 -2.36713,0.85372 -2.36713,2.21968 0,1.42028 1.18745,2.08773 2.48355,2.08773 0.94686,0 2.0567,-0.4579 2.32057,-1.45132 h -1.94804 c -0.0388,0.19402 -0.19402,0.34149 -0.40357,0.34149 -0.4191,0 -0.47343,-0.37254 -0.47343,-0.70627 z m -2.91042,-0.85372 c 0,-0.28716 0.14746,-0.53551 0.45014,-0.53551 0.28716,0 0.48895,0.25611 0.48895,0.53551 z m 3.55459,-1.54446 v 2.32833 c 0,1.30387 1.13312,1.88595 2.32833,1.88595 1.19522,0 2.32834,-0.58208 2.32834,-1.88595 v -2.32833 h -1.98685 v 2.12655 c 0,0.24059 -0.0155,0.49671 -0.34149,0.49671 -0.32596,0 -0.34148,-0.25612 -0.34148,-0.49671 v -2.12655 z m 8.80886,-0.0931 c -0.67522,-0.0155 -1.03999,0.10089 -1.397,0.64417 h -0.0466 l 0.0466,-0.55104 h -2.00237 v 4.12115 h 2.00237 v -1.58327 c 0,-0.51223 0.26388,-0.82267 0.78387,-0.82267 0.25612,0 0.40358,0.10089 0.61313,0.22507 z m 2.83282,0 c -1.3582,0 -2.49908,0.76059 -2.49908,2.20415 0,1.36596 1.21073,2.10326 2.49908,2.10326 1.28834,0 2.49907,-0.7373 2.49907,-2.10326 0,-1.44356 -1.14088,-2.20415 -2.49907,-2.20415 z m 0,1.56774 c 0.33372,0 0.55879,0.27164 0.55879,0.60537 0,0.32597 -0.24835,0.56656 -0.55879,0.56656 -0.31045,0 -0.5588,-0.24059 -0.5588,-0.56656 0,-0.33373 0.22507,-0.60537 0.5588,-0.60537 z m 2.84056,2.28177 c 0.59761,0.25611 1.23402,0.4579 1.88595,0.4579 0.93134,0 1.99461,-0.44238 1.99461,-1.51341 0,-0.83044 -0.58208,-1.0788 -1.29611,-1.19521 -0.2794,-0.0466 -0.49671,-0.0621 -0.49671,-0.26388 0,-0.14746 0.16299,-0.18627 0.28716,-0.18627 0.32597,0 0.66746,0.15522 0.92358,0.34149 l 0.48895,-1.14088 c -0.45015,-0.24836 -1.08656,-0.34925 -1.59879,-0.34925 -0.88477,0 -1.92476,0.41134 -1.92476,1.44356 0,0.77612 0.62089,1.04775 1.28835,1.14089 0.16298,0.0233 0.40357,0.031 0.40357,0.25611 0,0.15523 -0.16298,0.22508 -0.29492,0.22508 -0.34149,0 -0.74506,-0.20955 -1.02446,-0.3803 l -0.12418,-0.0776 z"
         id="path5" />
    </g>
  </g>
</svg>
