<?xml version="1.0" encoding="UTF-8" standalone="no"?>
<!-- Created with Inkscape (http://www.inkscape.org/) -->

<svg
   width="98.33577mm"
   height="52.983154mm"
   viewBox="0 0 98.33577 52.983154"
   version="1.1"
   id="svg1"
   inkscape:version="1.3.2 (091e20e, 2023-11-25, custom)"
   sodipodi:docname="win-biere.svg"
   xmlns:inkscape="http://www.inkscape.org/namespaces/inkscape"
   xmlns:sodipodi="http://sodipodi.sourceforge.net/DTD/sodipodi-0.dtd"
   xmlns="http://www.w3.org/2000/svg"
   xmlns:svg="http://www.w3.org/2000/svg">
  <sodipodi:namedview
     id="namedview1"
     pagecolor="#ffffff"
     bordercolor="#000000"
     borderopacity="0.25"
     inkscape:showpageshadow="2"
     inkscape:pageopacity="0.0"
     inkscape:pagecheckerboard="0"
     inkscape:deskcolor="#d1d1d1"
     inkscape:document-units="mm"
     inkscape:zoom="0.6429375"
     inkscape:cx="99.543113"
     inkscape:cy="-5.443764"
     inkscape:window-width="1366"
     inkscape:window-height="705"
     inkscape:window-x="-8"
     inkscape:window-y="-8"
     inkscape:window-maximized="1"
     inkscape:current-layer="layer1" />
  <defs
     id="defs1">
    <filter
       style="color-interpolation-filters:sRGB"
       inkscape:label="Drop Shadow"
       id="filter3"
       x="-0.99226948"
       y="-0.70361084"
       width="3.1738896"
       height="2.5414877">
      <feFlood
         result="flood"
         in="SourceGraphic"
         flood-opacity="1.000000"
         flood-color="rgb(255,255,255)"
         id="feFlood2-2" />
      <feGaussianBlur
         result="blur"
         in="SourceGraphic"
         stdDeviation="2.000000"
         id="feGaussianBlur2-6" />
      <feOffset
         result="offset"
         in="blur"
         dx="1.000000"
         dy="1.000000"
         id="feOffset2-2" />
      <feComposite
         result="comp1"
         operator="in"
         in="flood"
         in2="offset"
         id="feComposite2-4" />
      <feComposite
         result="comp2"
         operator="over"
         in="SourceGraphic"
         in2="comp1"
         id="feComposite3-4" />
    </filter>
    <filter
       style="color-interpolation-filters:sRGB"
       inkscape:label="Drop Shadow"
       id="filter20"
       x="-0.0098832514"
       y="-0.046488683"
       width="1.0230193"
       height="1.1082785">
      <feFlood
         result="flood"
         in="SourceGraphic"
         flood-opacity="0.498039"
         flood-color="rgb(255,255,255)"
         id="feFlood19" />
      <feGaussianBlur
         result="blur"
         in="SourceGraphic"
         stdDeviation="1.000000"
         id="feGaussianBlur19" />
      <feOffset
         result="offset"
         in="blur"
         dx="1.000000"
         dy="1.000000"
         id="feOffset19" />
      <feComposite
         result="comp1"
         operator="in"
         in="flood"
         in2="offset"
         id="feComposite19" />
      <feComposite
         result="comp2"
         operator="over"
         in="SourceGraphic"
         in2="comp1"
         id="feComposite20" />
    </filter>
    <filter
       style="color-interpolation-filters:sRGB"
       inkscape:label="Drop Shadow"
       id="filter15"
       x="-0.022153083"
       y="-0.12888208"
       width="1.0521053"
       height="1.3031381">
      <feFlood
         result="flood"
         in="SourceGraphic"
         flood-opacity="0.498039"
         flood-color="rgb(255,255,255)"
         id="feFlood14" />
      <feGaussianBlur
         result="blur"
         in="SourceGraphic"
         stdDeviation="1.000000"
         id="feGaussianBlur14" />
      <feOffset
         result="offset"
         in="blur"
         dx="1.000000"
         dy="1.000000"
         id="feOffset14" />
      <feComposite
         result="comp1"
         operator="in"
         in="flood"
         in2="offset"
         id="feComposite14" />
      <feComposite
         result="comp2"
         operator="over"
         in="SourceGraphic"
         in2="comp1"
         id="feComposite15" />
    </filter>
  </defs>
  <g
     inkscape:label="Calque 1"
     inkscape:groupmode="layer"
     id="layer1"
     transform="translate(-36.699847,-131.55108)">
    <path
       style="font-size:34.6667px;line-height:125%;font-family:'New Super Mario Font U';-inkscape-font-specification:'New Super Mario Font U';text-align:center;letter-spacing:-0.5px;white-space:pre;fill:#4bc633;stroke:#000000;stroke-width:0.880886;stroke-linejoin:round;filter:url(#filter15)"
       d="m 231.83621,-92.626073 q 6.4323,1.625001 6.83855,1.929689 -2.28516,5.467453 -2.45443,5.60287 -0.42318,0 -5.50131,-1.92969 -2.94531,2.74219 -2.94531,3.063805 -0.22005,5.07813 -0.22005,5.907558 3.52083,1.625001 4.18099,1.828126 3.28386,-1.421876 3.77474,-1.726564 l -0.60937,-1.946616 q -0.60938,0.338542 -3.67318,1.540366 l -0.10156,-0.203125 v -0.829428 q 0,-1.066407 -0.10157,-3.250003 0.79558,-0.203125 9.27605,-1.015626 0.20313,1.04948 0.71094,8.954435 -0.27083,0.304688 -10.19011,4.079431 -8.44662,-3.080732 -8.56511,-3.470055 -2.64063,-9.174488 -2.64063,-9.665373 3.47005,-6.2461 3.97787,-6.736986 0.42317,-0.203125 8.24349,-2.132814 z m 16.93492,0.05078 q 9.39454,1.354168 10.35938,1.591147 0,0.135417 6.46615,19.381528 -0.67708,0.253907 -7.80339,0.981772 -0.49089,-1.658855 -1.10026,-5.128911 -6.09376,0.558595 -6.09376,0.981772 l -1.10026,3.91016 h -0.11849 q -7.19402,-1.320314 -7.19402,-1.591147 5.73829,-17.942725 6.58465,-20.126321 z m 3.28385,11.713552 h 3.67318 l -1.35416,-5.36589 q -1.57422,0 -1.57422,0.609376 -0.25391,1.235678 -0.7448,4.756514 z m 27.02347,-11.764333 q 6.43229,1.625001 6.83854,1.929689 -2.28515,5.467453 -2.45442,5.60287 -0.42318,0 -5.50131,-1.92969 -2.94532,2.74219 -2.94532,3.063805 -0.22005,5.07813 -0.22005,5.907558 3.52084,1.625001 4.18099,1.828126 3.28386,-1.421876 3.77475,-1.726564 l -0.60938,-1.946616 q -0.60937,0.338542 -3.67318,1.540366 l -0.10156,-0.203125 v -0.829428 q 0,-1.066407 -0.10156,-3.250003 0.79557,-0.203125 9.27605,-1.015626 0.20312,1.04948 0.71093,8.954435 -0.27083,0.304688 -10.19011,4.079431 -8.44662,-3.080732 -8.56511,-3.470055 -2.64063,-9.174488 -2.64063,-9.665373 3.47006,-6.2461 3.97787,-6.736986 0.42318,-0.203125 8.2435,-2.132814 z m 25.21226,-0.03385 h 1.35416 q 0.23698,0 1.15105,5.196619 0.10156,0.152344 3.31771,16.114598 l -0.20313,0.101563 q -6.14453,-0.186199 -6.14453,-0.524741 0,-1.777345 -1.45573,-2.488283 0,-0.06771 -4.77345,-3.842451 h -0.10156 q 0.10156,0.152343 0.6263,5.924484 -4.95964,1.455731 -5.82292,1.557293 -0.27083,0 -1.65885,-11.645844 -0.22006,-0.727865 -1.15105,-8.209643 l 6.02605,-1.658855 q 0.20313,0 1.15104,7.481777 l 5.92449,5.19662 h 0.10156 q 0,-0.253907 -2.60677,-13.000012 0.11849,0 0.11849,-0.101563 2.60677,-0.101562 4.14714,-0.101562 z m 10.181,0.01693 q 16.77475,1.98047 16.77475,2.21745 l -1.625,5.941411 q -7.92188,-2.09896 -8.51433,-2.335939 0,0.152344 -1.74349,3.842451 h 0.11849 q 3.53776,-0.220052 7.6849,-0.694011 l 0.11849,0.236979 q -0.69401,3.927087 -1.04948,5.348964 l -6.51693,-0.930991 q 0.10156,1.929689 0.10156,2.911461 v 0.592449 l 0.11849,0.236979 q 2.16667,-0.236979 8.75131,-0.710938 0.22005,1.04948 0.8125,5.247401 -0.11849,0 -0.11849,0.118489 -15.35288,-0.812501 -15.60678,-1.04948 l -2.45443,-6.990892 q 2.79297,-13.016939 3.14844,-13.981783 z m 33.2943,0.626302 0.0677,0.135417 q -1.69271,14.946628 -1.89584,15.708348 -3.58854,-0.338542 -4.53646,-0.473959 v -0.06771 l -1.08333,-14.151055 q 0.40625,-0.135417 7.44792,-1.151043 z m -6.70313,16.182307 q 0.11849,0.06771 5.28125,0.40625 l 0.0677,0.135417 q -0.79557,4.671879 -1.01562,4.671879 h -3.92709 q -0.20313,0 -0.54167,-4.671879 -0.0677,0 -0.0677,-0.40625 0.20313,-0.06771 0.20313,-0.135417 z"
       id="text2"
       transform="matrix(0.68113223,0,0,0.68113223,-107.67227,205.03661)"
       aria-label="GAGNE !" />
    <path
       d="m 171.37912,-138.53665 0.10156,0.22005 q -0.4401,6.46616 -0.66016,6.46616 h -0.10156 q -6.99089,-0.5586 -7.78646,-0.66016 v 15.01433 q 0,0.40626 -3.1823,0.54167 0,0.11849 -3.60547,0.44011 l -0.11849,-0.22006 q 0.77865,-13.44011 0.9987,-15.87761 -2.67448,0.42317 -7.88803,1.08333 -1.54037,-5.75521 -1.54037,-5.90756 0,-0.22005 23.78258,-1.10026 z m 10.46876,5.11198 0.11849,0.22006 -2.28516,12.1198 h 0.11849 l 5.82292,-1.70964 v -6.85547 q 0.0339,-0.23698 0.22005,-0.23698 6.56772,0.45703 7.31251,0.45703 0,0.11849 0.11849,0.11849 0,2.89453 -1.82813,12.00131 0,0.52474 -5.2474,0.79558 -0.27083,-0.32162 -0.45703,-1.3711 -6.72006,1.3711 -7.66797,1.3711 -5.36589,-3.9948 -5.36589,-4.11329 0.91406,-12.00131 1.15104,-12.45834 h 0.10156 q 4.28256,-0.11849 7.88803,-0.33855 z m 32.87113,0 q 3.35156,1.87891 4.11328,2.43751 -2.74219,5.70443 -2.94531,5.80599 h -0.11849 l -2.42058,-2.11589 -2.86068,3.48699 0.32162,6.34766 q -0.22006,0.20312 -5.60287,0.94792 -0.20313,-1.45573 -2.64063,-14.26955 0,-0.20312 7.07553,-1.04948 0.11849,0.13542 0.64323,3.16537 4.23177,-4.75652 4.4349,-4.75652 z m 14.56511,0.0169 q 7.66798,3.94402 8.49741,4.60417 -1.10027,5.14584 -1.30339,5.29818 h -10.69793 v 0.1862 l 2.9961,3.70704 4.70573,-2.40365 q 0.69401,1.20182 1.9974,4.19792 -0.60937,0.20313 -8.88673,1.30339 -6.85547,-4.51954 -6.90625,-4.70574 1.10026,-8.78516 1.30338,-8.78516 7.16017,-3.04688 8.29428,-3.40235 z m -1.10026,4.09636 q -0.13542,0.33854 -1.79427,2.69141 0,0.71094 1.9974,0.71094 0,0.10156 2.89453,0.49088 0.79557,-1.10026 0.79557,-1.28646 -0.2539,-1.50651 -1.10026,-1.50651 z m 29.44403,-4.11329 q 4.13022,1.70964 7.12631,3.21615 -0.77864,10.07163 -0.9987,11.01955 -4.97656,1.23567 -5.56901,1.23567 0,-2.20052 -0.33854,-8.6836 -1.87891,0.1862 -1.87891,0.32162 0,0.64323 0.22005,7.34636 0.10156,0 0.10156,0.11849 0,0.20312 -5.23047,1.11719 -0.22005,-0.27084 -1.33724,-8.2435 -2.11589,0.54167 -2.11589,0.77864 l 0.67708,6.90626 q -0.20312,0.22005 -5.56901,1.77735 -3.11459,-11.01954 -3.89323,-14.79429 5.8737,-1.45573 6.56771,-1.45573 0.77865,3.08073 0.77865,3.55469 h 0.11849 q 2.86068,-2.64062 3.99479,-3.55469 h 0.11849 l 3.55469,2.55599 h 0.11849 q 3.33464,-3.21615 3.55469,-3.21615 z m 16.7995,0.0169 q 0.52474,2.16667 0.72787,2.67448 7.48177,-1.70963 7.90495,-1.70963 5.09506,7.32943 5.09506,7.65105 l -3.89323,8.26042 -8.37892,-1.33724 v 0.25391 q 0.98177,7.53255 0.98177,8.00651 -0.11849,0 -0.11849,0.11849 -1.21875,-0.11849 -1.82812,-0.11849 h -1.45573 q -1.26954,0 -3.89324,-0.11849 -0.23698,-0.71093 -3.63932,-21.6159 0.57552,-0.23698 8.4974,-2.06511 z m 0.60938,6.92319 q 0.33854,3.89323 0.60937,3.89323 3.47006,1.20182 4.2487,1.20182 l 1.33724,-5.82292 h -0.11848 q -1.98048,0.11849 -6.07683,0.72787 z m 21.18361,-6.92319 q 6.4323,1.72657 6.82162,2.09896 3.53777,5.01042 3.97787,5.77214 -2.28516,7.2448 -2.6237,7.2448 -7.61719,1.77735 -7.97266,1.77735 -6.29688,-3.67318 -6.70313,-4.09636 -0.22006,-6.83855 -0.22006,-7.54949 -0.10156,-0.20312 -0.10156,-0.30469 6.50001,-4.94271 6.72006,-4.94271 z m -0.32161,6.19532 q -0.10157,0.67708 -0.30469,4.92579 l 3.77474,0.84635 q 1.35417,-4.23177 1.35417,-4.51953 -4.50261,-1.35417 -4.82422,-1.35417 z m 24.31513,-6.21225 q 3.35157,1.87891 4.11329,2.43751 -2.74219,5.70443 -2.94532,5.80599 h -0.11849 l -2.42057,-2.11589 -2.86068,3.48699 0.32161,6.34766 q -0.22005,0.20312 -5.60287,0.94792 -0.20312,-1.45573 -2.64063,-14.26955 0,-0.20312 7.07553,-1.04948 0.11849,0.13542 0.64323,3.16537 4.23178,-4.75652 4.4349,-4.75652 z m 10.02866,-5.11198 7.44792,1.32031 -0.71094,5.65366 q 2.21745,-0.11849 3.25,-0.11849 h 1.08334 l 0.23698,-0.11849 0.11849,0.23698 q -0.35547,5.14583 -0.60938,5.78906 l -0.23698,-0.13541 q -0.2539,0 -4.57031,-0.23698 -0.23698,3.97787 -0.35547,9.51303 l -0.23698,0.11849 q -5.45053,-0.35547 -6.50001,-0.60938 l 0.11849,-0.47396 q 0,-1.47266 0.47396,-9.14063 -4.57032,-0.25391 -4.57032,-0.60938 0.23698,-5.65365 0.60938,-5.65365 l 4.45183,0.84636 v -1.45573 q 0,-1.77735 -0.13542,-4.8073 0.13542,0 0.13542,-0.11849 z m 22.28386,5.12891 q 7.66798,3.94402 8.49741,4.60417 -1.10026,5.14584 -1.30339,5.29818 h -10.69793 v 0.1862 l 2.9961,3.70704 4.70573,-2.40365 q 0.69402,1.20182 1.9974,4.19792 -0.60937,0.20313 -8.88672,1.30339 -6.85548,-4.51954 -6.90626,-4.70574 1.10026,-8.78516 1.30339,-8.78516 7.16016,-3.04688 8.29427,-3.40235 z m -1.10026,4.09636 q -0.13541,0.33854 -1.79427,2.69141 0,0.71094 1.9974,0.71094 0,0.10156 2.89453,0.49088 0.79558,-1.10026 0.79558,-1.28646 -0.25391,-1.50651 -1.10027,-1.50651 z m 24.29821,-4.11329 q 4.875,3.11459 5.38281,3.58855 -1.76042,3.91016 -2.01432,3.91016 l -6.16147,-3.57162 h -0.22005 q 0,0.16927 -0.79557,1.89584 8.51433,4.58724 8.51433,4.70573 -2.38672,5.51823 -2.69141,5.82292 l -9.63152,0.5586 q -5.6198,-3.72397 -6.04297,-3.92709 v -0.10156 q 0,-0.42318 1.67578,-3.8086 l 7.51563,3.91016 0.5586,-2.23438 q -6.97397,-3.13151 -8.29428,-3.91016 v -0.23698 q 0,-0.64323 2.69141,-5.70443 z m 23.81512,0 0.11849,0.22006 -2.28516,12.1198 h 0.11849 l 5.82292,-1.70964 v -6.85547 q 0.0338,-0.23698 0.22005,-0.23698 6.56772,0.45703 7.31251,0.45703 0,0.11849 0.11849,0.11849 0,2.89453 -1.82813,12.00131 0,0.52474 -5.2474,0.79558 -0.27083,-0.32162 -0.45703,-1.3711 -6.72006,1.3711 -7.66798,1.3711 -5.36589,-3.9948 -5.36589,-4.11329 0.91407,-12.00131 1.15104,-12.45834 h 0.10157 q 4.28255,-0.11849 7.88803,-0.33855 z m 27.64978,0 5.63673,3.87631 q -0.59245,9.64845 -0.82943,11.27345 -0.98177,0.11849 -5.97527,0.35547 l -0.11849,-0.23698 -0.59245,-9.03907 -0.23698,-0.11849 q -3.23307,0.69401 -4.45182,1.04948 0.33854,5.77214 0.33854,8.34506 -5.04428,1.40495 -5.51824,1.40495 -3.28385,-14.45575 -3.28385,-15.26825 7.14323,-0.93099 7.75261,-0.93099 v 0.11849 q 0.11849,0.0846 0.35547,3.52084 6.55078,-4.35027 6.92318,-4.35027 z m -277.02762,43.333379 q 4.87501,3.114586 5.38282,3.588545 -1.76042,3.91016 -2.01433,3.91016 l -6.16146,-3.571618 h -0.22005 q 0,0.169271 -0.79558,1.895835 8.51433,4.587244 8.51433,4.705733 -2.38672,5.518235 -2.6914,5.822922 l -9.63152,0.558595 q -5.6198,-3.723962 -6.04298,-3.927087 v -0.101563 q 0,-0.423177 1.67578,-3.808597 l 7.51564,3.91016 0.55859,-2.234377 q -6.97396,-3.131514 -8.29428,-3.91016 v -0.23698 q 0,-0.643229 2.69141,-5.704432 z m 16.17319,0.01693 q 7.66798,3.944014 8.49741,4.604171 -1.10026,5.145838 -1.30339,5.298182 h -10.69793 v 0.186198 l 2.9961,3.707035 4.70573,-2.403648 q 0.69402,1.201824 1.9974,4.19792 -0.60937,0.203125 -8.88672,1.303387 -6.85548,-4.519536 -6.90626,-4.705734 1.10026,-8.785164 1.30339,-8.785164 7.16016,-3.046878 8.29427,-3.402347 z m -1.10026,4.096358 q -0.13541,0.338542 -1.79427,2.691409 0,0.710938 1.9974,0.710938 0,0.101562 2.89453,0.490886 0.79558,-1.100262 0.79558,-1.28646 -0.25391,-1.506512 -1.10027,-1.506512 z m 15.69924,-9.225269 7.44792,1.320314 -0.71094,5.653651 q 2.21745,-0.11849 3.25,-0.11849 h 1.08334 l 0.23698,-0.11849 0.11849,0.23698 q -0.35547,5.145838 -0.60938,5.789068 l -0.23698,-0.135417 q -0.2539,0 -4.57031,-0.23698 -0.23698,3.977869 -0.35547,9.51303 l -0.23698,0.11849 q -5.45053,-0.355469 -6.50001,-0.609376 l 0.11849,-0.473959 q 0,-1.472657 0.47396,-9.140633 -4.57032,-0.253907 -4.57032,-0.609376 0.23698,-5.653651 0.60938,-5.653651 l 4.45183,0.846355 v -1.45573 q 0,-1.777346 -0.13542,-4.807296 0.13542,0 0.13542,-0.11849 z m 31.02607,-0.01693 h 0.10156 q 7.65105,0.64323 7.65105,0.998699 l 2.25131,19.923195 q 0,0.220052 -6.75392,1.117189 l -0.10156,-0.220053 v -1.811199 q -5.82292,1.57422 -7.98959,2.031252 -5.14584,-7.278653 -5.39974,-7.752612 3.79167,-6.889329 4.04557,-6.973964 l 7.09246,0.338542 q -0.22005,-1.303387 -0.89714,-7.651049 z m -3.14844,12.13673 q 1.70964,5.230473 2.13282,5.738286 l 3.36849,-2.928388 q -0.52474,-3.02995 -0.77865,-3.02995 h -4.50261 q -0.22005,0.03385 -0.22005,0.220052 z m 24.02737,-6.990892 q 7.66797,3.944014 8.4974,4.604171 -1.10026,5.145838 -1.30339,5.298182 h -10.69792 v 0.186198 l 2.99609,3.707035 4.70574,-2.403648 q 0.69401,1.201824 1.9974,4.19792 -0.60938,0.203125 -8.88673,1.303387 -6.85548,-4.519536 -6.90626,-4.705734 1.10026,-8.785164 1.30339,-8.785164 7.16016,-3.046878 8.29428,-3.402347 z m -1.10026,4.096358 q -0.13542,0.338542 -1.79428,2.691409 0,0.710938 1.9974,0.710938 0,0.101562 2.89453,0.490886 0.79558,-1.100262 0.79558,-1.28646 -0.25391,-1.506512 -1.10026,-1.506512 z m 32.39716,-4.113285 q 4.875,3.114586 5.38282,3.588545 -1.76042,3.91016 -2.01433,3.91016 l -6.16146,-3.571618 h -0.22005 q 0,0.169271 -0.79558,1.895835 8.51433,4.587244 8.51433,4.705733 -2.38672,5.518235 -2.69141,5.822922 l -9.63152,0.558595 q -5.61979,-3.723962 -6.04297,-3.927087 v -0.101563 q 0,-0.423177 1.67578,-3.808597 l 7.51563,3.91016 0.5586,-2.234377 q -6.97397,-3.131514 -8.29428,-3.91016 v -0.23698 q 0,-0.643229 2.69141,-5.704432 z m 13.39715,0.01693 q 6.43229,1.726564 6.82162,2.09896 3.53776,5.010422 3.97786,5.772141 -2.28515,7.244798 -2.6237,7.244798 -7.61719,1.777346 -7.97266,1.777346 -6.29688,-3.673181 -6.70313,-4.096358 -0.22005,-6.838548 -0.22005,-7.549486 -0.10157,-0.203126 -0.10157,-0.304688 6.50001,-4.942713 6.72006,-4.942713 z m -0.32162,6.195318 q -0.10156,0.677084 -0.30469,4.925786 l 3.77475,0.846355 q 1.35416,-4.231775 1.35416,-4.519535 -4.5026,-1.354168 -4.82422,-1.354168 z m 21.30211,-6.212245 0.11849,0.220052 -2.28516,12.119803 h 0.11849 l 5.82292,-1.709637 v -6.855475 q 0.0339,-0.236979 0.22006,-0.236979 6.56771,0.457031 7.3125,0.457031 0,0.11849 0.11849,0.11849 0,2.894534 -1.82812,12.001313 0,0.52474 -5.2474,0.795574 -0.27084,-0.321615 -0.45704,-1.371095 -6.72005,1.371095 -7.66797,1.371095 -5.36589,-3.994796 -5.36589,-4.113285 0.91406,-12.001313 1.15104,-12.458345 h 0.10156 q 4.28256,-0.11849 7.88803,-0.338542 z m 26.27866,0 q 4.87501,3.114586 5.38282,3.588545 -1.76042,3.91016 -2.01433,3.91016 l -6.16146,-3.571618 H 321.779 q 0,0.169271 -0.79558,1.895835 8.51434,4.587244 8.51434,4.705733 -2.38673,5.518235 -2.69141,5.822922 l -9.63152,0.558595 q -5.6198,-3.723962 -6.04298,-3.927087 v -0.101563 q 0,-0.423177 1.67579,-3.808597 l 7.51563,3.91016 0.55859,-2.234377 q -6.97396,-3.131514 -8.29428,-3.91016 v -0.23698 q 0,-0.643229 2.69141,-5.704432 z m 19.44013,6.720058 0.10156,0.220052 q -0.10156,2.268232 -0.10156,3.707035 v 0.541667 q 0,0.152344 -0.33854,0.321615 -1.84505,0 -11.76433,0.440105 -0.1862,0 -0.76172,-4.908859 0.10156,0 0.10156,-0.101563 5.55209,-0.118489 8.71745,-0.118489 h 1.86199 q 0.71093,0 2.18359,-0.101563 z m 8.91147,-11.832042 0.11849,0.220052 q 0,0.964845 0.4401,7.464851 6.05991,-1.929689 6.78777,-2.031252 l 6.09376,6.550787 q -3.84245,8.615894 -4.181,9.140634 -1.0664,-0.11849 -7.78646,-0.338542 v 0.795573 q 0,0.220053 -0.23698,0.220053 h -6.55079 q -0.35547,0 -1.35417,-10.15626 -0.22005,-0.863282 -1.23568,-10.173186 5.75522,-1.354168 7.90496,-1.69271 z m 1.13412,12.424491 0.4401,4.180993 h 3.40235 l 1.23568,-4.739588 q -5.07813,0.440105 -5.07813,0.558595 z m 20.35417,-7.29558 q 6.4323,1.726564 6.82162,2.09896 3.53776,5.010422 3.97787,5.772141 -2.28516,7.244798 -2.6237,7.244798 -7.6172,1.777346 -7.97266,1.777346 -6.29689,-3.673181 -6.70314,-4.096358 -0.22005,-6.838548 -0.22005,-7.549486 -0.10156,-0.203126 -0.10156,-0.304688 6.50001,-4.942713 6.72006,-4.942713 z m -0.32161,6.195318 q -0.10157,0.677084 -0.30469,4.925786 l 3.77474,0.846355 q 1.35417,-4.231775 1.35417,-4.519535 -4.50261,-1.354168 -4.82422,-1.354168 z m 18.81382,-6.195318 q 7.63412,1.438803 7.98959,1.641929 v 0.203125 q -1.64192,4.638025 -1.64192,4.807296 h -0.10157 q -0.42317,0 -4.09636,-1.320314 -2.04817,3.436201 -2.04817,3.673181 l 3.38542,3.283857 q 3.92708,-3.690108 3.99479,-3.690108 3.06381,4.011723 3.06381,4.502609 -1.67579,0.964844 -5.83985,3.79167 -8.0573,-1.743492 -8.70053,-1.946617 l -2.65756,-8.598966 z m 19.18621,-5.128911 q 0.23698,0.677084 1.0664,9.597665 l 5.07813,-5.687505 h 0.11849 q 1.1849,0.981772 4.38412,4.147139 v 0.11849 l -4.85808,4.011722 q 5.48438,3.673181 5.806,4.147139 -3.45313,3.842452 -4.14714,4.384119 l -5.90756,-5.450526 q 0.35547,3.656254 0.35547,5.450526 -0.42318,0.236979 -6.27995,1.303387 -0.47396,-2.369794 -3.08073,-20.3633 1.08333,-0.355469 7.46485,-1.658856 z m 26.22791,5.111984 q 4.875,3.114586 5.38282,3.588545 -1.76042,3.91016 -2.01433,3.91016 l -6.16146,-3.571618 h -0.22006 q 0,0.169271 -0.79557,1.895835 8.51433,4.587244 8.51433,4.705733 -2.38672,5.518235 -2.69141,5.822922 l -9.63152,0.558595 q -5.61979,-3.723962 -6.04297,-3.927087 v -0.101563 q 0,-0.423177 1.67578,-3.808597 l 7.51563,3.91016 0.5586,-2.234377 q -6.97397,-3.131514 -8.29428,-3.91016 v -0.23698 q 0,-0.643229 2.69141,-5.704432 z"
       id="text15"
       style="font-size:34.6667px;line-height:125%;font-family:'New Super Mario Font U';-inkscape-font-specification:'New Super Mario Font U';text-align:center;letter-spacing:-0.5px;white-space:pre;fill:#4bc633;stroke:#000000;stroke-width:1.27661;stroke-linejoin:round;filter:url(#filter20)"
       transform="matrix(0.31267716,0,0,0.31398295,-5.0310398,206.24392)"
       aria-label="Tu remportes un&#10;set de sous-bocks" />
    <path
       style="font-size:34.6667px;line-height:125%;font-family:'New Super Mario Font U';-inkscape-font-specification:'New Super Mario Font U';text-align:center;letter-spacing:-0.5px;white-space:pre;fill:#4bc633;stroke:#000000;stroke-width:0.880886;stroke-linejoin:round;filter:url(#filter3)"
       d="m 284.20671,-93.726335 q 1.55729,1.506512 1.55729,1.895835 l 0.54167,2.031252 q -0.0846,3.520837 -0.33855,3.520837 -4.13021,-3.537764 -4.13021,-3.656254 l -0.8125,-3.046877 q 2.33594,-0.609376 3.1823,-0.744793 z"
       id="text3"
       transform="matrix(-0.58987781,-0.34056611,-0.34056611,0.58987781,250.02723,289.56068)"
       aria-label="`" />
  </g>
</svg>
